%
M48
M72
T01C0.02362
T02C0.03150
T03C0.03543
T04C0.04000
%
T01
X84428Y140000
T02
X110787Y60187
X118661Y60187
T03
X99428Y80000
X129428Y80000
X119428Y175000
X109428Y175000
X99428Y175000
X99428Y205000
X109428Y205000
X119428Y205000
T04
X34428Y220000
X33428Y210000
X34428Y200000
X33428Y190000
X34428Y180000
X33428Y170000
X34428Y160000
X33428Y150000
X34428Y135000
X33428Y125000
X34428Y115000
X33428Y105000
X34428Y95000
X33428Y85000
X34428Y75000
X33428Y65000
X34428Y55000
X34428Y45000
X59428Y65000
X59428Y75000
X59428Y85000
X59428Y115000
X59428Y125000
X59428Y135000
X59428Y155000
X59428Y165000
X59428Y175000
X59428Y195000
X59428Y205000
X59428Y215000
X89428Y215000
X99428Y215000
X109428Y215000
X119428Y215000
X129428Y215000
X139428Y215000
X149428Y215000
X159428Y215000
X149428Y190000
X149428Y180000
X149428Y170000
X149428Y160000
X149428Y150000
X149428Y140000
X149428Y130000
X149428Y120000
X149428Y110000
X149428Y100000
X184428Y115000
X194428Y115000
X204428Y115000
X224428Y110000
X225428Y100000
X224428Y90000
X225428Y80000
X225428Y120000
X224428Y130000
X225428Y140000
X224428Y150000
X225428Y170000
X224428Y180000
X225428Y190000
X224428Y200000
X225428Y210000
X224428Y220000
X204428Y185000
X194428Y185000
X184428Y185000
X184428Y150000
X194428Y150000
X204428Y150000
M30
