G75*
%MOIN*%
%OFA0B0*%
%FSLAX25Y25*%
%IPPOS*%
%LPD*%
%AMOC8*
5,1,8,0,0,1.08239X$1,22.5*
%
%ADD10C,0.00000*%
%ADD11R,0.07800X0.07800*%
%ADD12C,0.07800*%
%ADD13C,0.05124*%
D10*
X0019428Y0035000D02*
X0019428Y0234961D01*
X0238129Y0234961D01*
X0238129Y0035000D01*
X0019428Y0035000D01*
D11*
X0059428Y0065000D03*
X0059428Y0115000D03*
X0059428Y0155000D03*
X0059428Y0195000D03*
X0089428Y0215000D03*
X0184428Y0185000D03*
X0184428Y0150000D03*
X0184428Y0115000D03*
D12*
X0194428Y0115000D03*
X0204428Y0115000D03*
X0224428Y0110000D03*
X0225428Y0100000D03*
X0224428Y0090000D03*
X0225428Y0080000D03*
X0225428Y0120000D03*
X0224428Y0130000D03*
X0225428Y0140000D03*
X0224428Y0150000D03*
X0225428Y0170000D03*
X0224428Y0180000D03*
X0225428Y0190000D03*
X0224428Y0200000D03*
X0225428Y0210000D03*
X0224428Y0220000D03*
X0204428Y0185000D03*
X0194428Y0185000D03*
X0194428Y0150000D03*
X0204428Y0150000D03*
X0149428Y0150000D03*
X0149428Y0140000D03*
X0149428Y0130000D03*
X0149428Y0120000D03*
X0149428Y0110000D03*
X0149428Y0100000D03*
X0129428Y0080000D03*
X0099428Y0080000D03*
X0059428Y0075000D03*
X0059428Y0085000D03*
X0034428Y0075000D03*
X0033428Y0065000D03*
X0034428Y0055000D03*
X0034428Y0045000D03*
X0033428Y0085000D03*
X0034428Y0095000D03*
X0033428Y0105000D03*
X0034428Y0115000D03*
X0033428Y0125000D03*
X0034428Y0135000D03*
X0033428Y0150000D03*
X0034428Y0160000D03*
X0033428Y0170000D03*
X0034428Y0180000D03*
X0033428Y0190000D03*
X0034428Y0200000D03*
X0033428Y0210000D03*
X0034428Y0220000D03*
X0059428Y0215000D03*
X0059428Y0205000D03*
X0059428Y0175000D03*
X0059428Y0165000D03*
X0059428Y0135000D03*
X0059428Y0125000D03*
X0099428Y0175000D03*
X0109428Y0175000D03*
X0119428Y0175000D03*
X0119428Y0205000D03*
X0109428Y0205000D03*
X0099428Y0205000D03*
X0099428Y0215000D03*
X0109428Y0215000D03*
X0119428Y0215000D03*
X0129428Y0215000D03*
X0139428Y0215000D03*
X0149428Y0215000D03*
X0159428Y0215000D03*
X0149428Y0190000D03*
X0149428Y0180000D03*
X0149428Y0170000D03*
X0149428Y0160000D03*
D13*
X0118661Y0061368D02*
X0118661Y0059006D01*
X0110787Y0059006D02*
X0110787Y0061368D01*
M02*
