G75*
%MOIN*%
%OFA0B0*%
%FSLAX25Y25*%
%IPPOS*%
%LPD*%
%AMOC8*
5,1,8,0,0,1.08239X$1,22.5*
%
%ADD10C,0.00000*%
%ADD11C,0.01700*%
%ADD12R,0.07400X0.07400*%
%ADD13C,0.07400*%
%ADD14C,0.04724*%
%ADD15C,0.01600*%
%ADD16C,0.05362*%
D10*
X0019428Y0035000D02*
X0019428Y0234961D01*
X0238129Y0234961D01*
X0238129Y0035000D01*
X0019428Y0035000D01*
D11*
X0142308Y0058350D02*
X0142308Y0066657D01*
X0145077Y0063888D01*
X0147846Y0066657D01*
X0147846Y0058350D01*
X0151516Y0058350D02*
X0154285Y0058350D01*
X0152901Y0058350D02*
X0152901Y0063888D01*
X0151516Y0063888D01*
X0152901Y0066657D02*
X0152901Y0068042D01*
X0157655Y0063888D02*
X0161808Y0063888D01*
X0163193Y0062504D01*
X0163193Y0058350D01*
X0166863Y0058350D02*
X0169632Y0058350D01*
X0168247Y0058350D02*
X0168247Y0063888D01*
X0166863Y0063888D01*
X0168247Y0066657D02*
X0168247Y0068042D01*
X0173001Y0062504D02*
X0178539Y0062504D01*
X0182209Y0061119D02*
X0186363Y0061119D01*
X0187747Y0062504D01*
X0187747Y0065273D01*
X0186363Y0066657D01*
X0182209Y0066657D01*
X0182209Y0058350D01*
X0184978Y0061119D02*
X0187747Y0058350D01*
X0191417Y0059735D02*
X0192802Y0058350D01*
X0195571Y0058350D01*
X0196955Y0059735D01*
X0196955Y0062504D01*
X0195571Y0063888D01*
X0192802Y0063888D01*
X0191417Y0062504D01*
X0191417Y0059735D01*
X0200625Y0058350D02*
X0200625Y0063888D01*
X0202009Y0063888D01*
X0203394Y0062504D01*
X0204778Y0063888D01*
X0206163Y0062504D01*
X0206163Y0058350D01*
X0203394Y0058350D02*
X0203394Y0062504D01*
X0209833Y0059735D02*
X0211217Y0061119D01*
X0215371Y0061119D01*
X0215371Y0062504D02*
X0215371Y0058350D01*
X0211217Y0058350D01*
X0209833Y0059735D01*
X0211217Y0063888D02*
X0213986Y0063888D01*
X0215371Y0062504D01*
X0219041Y0063888D02*
X0219041Y0058350D01*
X0219041Y0063888D02*
X0223194Y0063888D01*
X0224579Y0062504D01*
X0224579Y0058350D01*
X0204628Y0043350D02*
X0199090Y0043350D01*
X0201859Y0043350D02*
X0201859Y0051657D01*
X0199090Y0048888D01*
X0186213Y0048888D02*
X0183444Y0043350D01*
X0180675Y0048888D01*
X0177005Y0047504D02*
X0177005Y0046119D01*
X0171467Y0046119D01*
X0171467Y0044735D02*
X0171467Y0047504D01*
X0172851Y0048888D01*
X0175620Y0048888D01*
X0177005Y0047504D01*
X0175620Y0043350D02*
X0172851Y0043350D01*
X0171467Y0044735D01*
X0167797Y0043350D02*
X0165028Y0046119D01*
X0166412Y0046119D02*
X0162259Y0046119D01*
X0162259Y0043350D02*
X0162259Y0051657D01*
X0166412Y0051657D01*
X0167797Y0050273D01*
X0167797Y0047504D01*
X0166412Y0046119D01*
X0157655Y0058350D02*
X0157655Y0063888D01*
D12*
X0184428Y0115000D03*
X0184428Y0150000D03*
X0184428Y0185000D03*
X0089428Y0215000D03*
X0059428Y0195000D03*
X0059428Y0155000D03*
X0059428Y0115000D03*
X0059428Y0065000D03*
D13*
X0059428Y0075000D03*
X0059428Y0085000D03*
X0034428Y0075000D03*
X0033428Y0065000D03*
X0034428Y0055000D03*
X0034428Y0045000D03*
X0033428Y0085000D03*
X0034428Y0095000D03*
X0033428Y0105000D03*
X0034428Y0115000D03*
X0033428Y0125000D03*
X0034428Y0135000D03*
X0033428Y0150000D03*
X0034428Y0160000D03*
X0033428Y0170000D03*
X0034428Y0180000D03*
X0033428Y0190000D03*
X0034428Y0200000D03*
X0033428Y0210000D03*
X0034428Y0220000D03*
X0059428Y0215000D03*
X0059428Y0205000D03*
X0059428Y0175000D03*
X0059428Y0165000D03*
X0059428Y0135000D03*
X0059428Y0125000D03*
X0099428Y0080000D03*
X0129428Y0080000D03*
X0149428Y0100000D03*
X0149428Y0110000D03*
X0149428Y0120000D03*
X0149428Y0130000D03*
X0149428Y0140000D03*
X0149428Y0150000D03*
X0149428Y0160000D03*
X0149428Y0170000D03*
X0149428Y0180000D03*
X0149428Y0190000D03*
X0149428Y0215000D03*
X0139428Y0215000D03*
X0129428Y0215000D03*
X0119428Y0215000D03*
X0109428Y0215000D03*
X0099428Y0215000D03*
X0099428Y0205000D03*
X0109428Y0205000D03*
X0119428Y0205000D03*
X0119428Y0175000D03*
X0109428Y0175000D03*
X0099428Y0175000D03*
X0159428Y0215000D03*
X0194428Y0185000D03*
X0204428Y0185000D03*
X0224428Y0180000D03*
X0225428Y0190000D03*
X0224428Y0200000D03*
X0225428Y0210000D03*
X0224428Y0220000D03*
X0225428Y0170000D03*
X0224428Y0150000D03*
X0225428Y0140000D03*
X0224428Y0130000D03*
X0225428Y0120000D03*
X0224428Y0110000D03*
X0225428Y0100000D03*
X0224428Y0090000D03*
X0225428Y0080000D03*
X0204428Y0115000D03*
X0194428Y0115000D03*
X0194428Y0150000D03*
X0204428Y0150000D03*
D14*
X0118661Y0061368D02*
X0118661Y0059006D01*
X0110787Y0059006D02*
X0110787Y0061368D01*
D15*
X0019428Y0035000D02*
X0239428Y0035000D01*
X0019428Y0035000D01*
X0019428Y0235000D01*
X0239428Y0235000D01*
X0239428Y0035000D01*
X0239428Y0036599D02*
X0019428Y0036599D01*
X0019428Y0038197D02*
X0239428Y0038197D01*
X0239428Y0039796D02*
X0037725Y0039796D01*
X0037867Y0039854D02*
X0039574Y0041562D01*
X0040498Y0043793D01*
X0040498Y0046207D01*
X0039574Y0048438D01*
X0038013Y0050000D01*
X0039574Y0051562D01*
X0040498Y0053793D01*
X0040498Y0056207D01*
X0039574Y0058438D01*
X0037867Y0060146D01*
X0037366Y0060353D01*
X0038574Y0061562D01*
X0039498Y0063793D01*
X0039498Y0066207D01*
X0038574Y0068438D01*
X0036917Y0070095D01*
X0037311Y0070296D01*
X0038011Y0070805D01*
X0038448Y0071242D01*
X0038448Y0070824D01*
X0038931Y0069659D01*
X0039823Y0068768D01*
X0057258Y0051333D01*
X0058423Y0050850D01*
X0113574Y0050850D01*
X0114739Y0051333D01*
X0115631Y0052224D01*
X0117692Y0054285D01*
X0117719Y0054274D01*
X0119602Y0054274D01*
X0121341Y0054994D01*
X0122673Y0056325D01*
X0123393Y0058065D01*
X0123393Y0062309D01*
X0122673Y0064049D01*
X0121341Y0065380D01*
X0119602Y0066100D01*
X0117719Y0066100D01*
X0115980Y0065380D01*
X0114724Y0064123D01*
X0113467Y0065380D01*
X0112944Y0065597D01*
X0112944Y0070501D01*
X0112461Y0071666D01*
X0105450Y0078676D01*
X0105498Y0078793D01*
X0105498Y0081207D01*
X0104574Y0083438D01*
X0102867Y0085146D01*
X0100636Y0086070D01*
X0098221Y0086070D01*
X0095990Y0085146D01*
X0094283Y0083438D01*
X0093358Y0081207D01*
X0093358Y0078793D01*
X0094283Y0076562D01*
X0095990Y0074854D01*
X0098221Y0073930D01*
X0100636Y0073930D01*
X0101056Y0074104D01*
X0106604Y0068557D01*
X0106604Y0063635D01*
X0106055Y0062309D01*
X0106055Y0058065D01*
X0106417Y0057190D01*
X0060367Y0057190D01*
X0058057Y0059500D01*
X0059228Y0059500D01*
X0059228Y0064800D01*
X0053928Y0064800D01*
X0053928Y0063628D01*
X0044788Y0072768D01*
X0044788Y0078426D01*
X0044306Y0079591D01*
X0039498Y0084398D01*
X0039498Y0086207D01*
X0038574Y0088438D01*
X0037366Y0089647D01*
X0037867Y0089854D01*
X0039574Y0091562D01*
X0040498Y0093793D01*
X0040498Y0096207D01*
X0039574Y0098438D01*
X0037867Y0100146D01*
X0037366Y0100353D01*
X0038574Y0101562D01*
X0039498Y0103793D01*
X0039498Y0106207D01*
X0038574Y0108438D01*
X0037366Y0109647D01*
X0037867Y0109854D01*
X0039574Y0111562D01*
X0040498Y0113793D01*
X0040498Y0114057D01*
X0046374Y0108182D01*
X0046374Y0085090D01*
X0046856Y0083924D01*
X0053714Y0077066D01*
X0053358Y0076207D01*
X0053358Y0073793D01*
X0054283Y0071562D01*
X0055375Y0070469D01*
X0055034Y0070377D01*
X0054623Y0070140D01*
X0054288Y0069805D01*
X0054051Y0069395D01*
X0053928Y0068937D01*
X0053928Y0065200D01*
X0059228Y0065200D01*
X0059228Y0064800D01*
X0059628Y0064800D01*
X0059628Y0059500D01*
X0063365Y0059500D01*
X0063823Y0059623D01*
X0064234Y0059860D01*
X0064569Y0060195D01*
X0064806Y0060605D01*
X0064928Y0061063D01*
X0064928Y0064800D01*
X0059629Y0064800D01*
X0059629Y0065200D01*
X0064928Y0065200D01*
X0064928Y0068937D01*
X0064806Y0069395D01*
X0064569Y0069805D01*
X0064234Y0070140D01*
X0063823Y0070377D01*
X0063482Y0070469D01*
X0064574Y0071562D01*
X0065498Y0073793D01*
X0065498Y0076207D01*
X0064574Y0078438D01*
X0063013Y0080000D01*
X0064574Y0081562D01*
X0065498Y0083793D01*
X0065498Y0086207D01*
X0064574Y0088438D01*
X0062867Y0090146D01*
X0060636Y0091070D01*
X0058221Y0091070D01*
X0058197Y0091060D01*
X0055884Y0093373D01*
X0055884Y0109500D01*
X0059228Y0109500D01*
X0059228Y0114800D01*
X0059628Y0114800D01*
X0059628Y0109500D01*
X0063365Y0109500D01*
X0063823Y0109623D01*
X0064234Y0109860D01*
X0064569Y0110195D01*
X0064806Y0110605D01*
X0064928Y0111063D01*
X0064928Y0114800D01*
X0059629Y0114800D01*
X0059629Y0115200D01*
X0064928Y0115200D01*
X0064928Y0118937D01*
X0064806Y0119395D01*
X0064569Y0119805D01*
X0064234Y0120140D01*
X0063823Y0120377D01*
X0063482Y0120469D01*
X0064574Y0121562D01*
X0065498Y0123793D01*
X0065498Y0126207D01*
X0064574Y0128438D01*
X0063013Y0130000D01*
X0064574Y0131562D01*
X0065394Y0133541D01*
X0071523Y0127413D01*
X0072688Y0126930D01*
X0144130Y0126930D01*
X0144283Y0126562D01*
X0145844Y0125000D01*
X0144283Y0123438D01*
X0143358Y0121207D01*
X0143358Y0118793D01*
X0144283Y0116562D01*
X0145844Y0115000D01*
X0144283Y0113438D01*
X0143358Y0111207D01*
X0143358Y0108793D01*
X0144283Y0106562D01*
X0145990Y0104854D01*
X0146476Y0104653D01*
X0145845Y0104195D01*
X0145233Y0103583D01*
X0144724Y0102883D01*
X0144331Y0102111D01*
X0144064Y0101288D01*
X0143928Y0100433D01*
X0143928Y0100200D01*
X0149228Y0100200D01*
X0149228Y0099800D01*
X0143928Y0099800D01*
X0143928Y0099567D01*
X0144064Y0098712D01*
X0144331Y0097889D01*
X0144724Y0097117D01*
X0145233Y0096417D01*
X0145845Y0095805D01*
X0146546Y0095296D01*
X0147317Y0094903D01*
X0148141Y0094635D01*
X0148996Y0094500D01*
X0149228Y0094500D01*
X0149228Y0099800D01*
X0149628Y0099800D01*
X0149628Y0094500D01*
X0149861Y0094500D01*
X0150716Y0094635D01*
X0151540Y0094903D01*
X0152311Y0095296D01*
X0153011Y0095805D01*
X0153624Y0096417D01*
X0154132Y0097117D01*
X0154526Y0097889D01*
X0154793Y0098712D01*
X0154928Y0099567D01*
X0154928Y0099800D01*
X0149629Y0099800D01*
X0149629Y0100200D01*
X0154928Y0100200D01*
X0154928Y0100433D01*
X0154793Y0101288D01*
X0154526Y0102111D01*
X0154132Y0102883D01*
X0153624Y0103583D01*
X0153011Y0104195D01*
X0152381Y0104653D01*
X0152867Y0104854D01*
X0154574Y0106562D01*
X0155498Y0108793D01*
X0155498Y0111207D01*
X0154574Y0113438D01*
X0153013Y0115000D01*
X0154574Y0116562D01*
X0155498Y0118793D01*
X0155498Y0121207D01*
X0154574Y0123438D01*
X0153013Y0125000D01*
X0154574Y0126562D01*
X0155498Y0128793D01*
X0155498Y0131207D01*
X0154574Y0133438D01*
X0153013Y0135000D01*
X0154574Y0136562D01*
X0155498Y0138793D01*
X0155498Y0141207D01*
X0154574Y0143438D01*
X0153013Y0145000D01*
X0154574Y0146562D01*
X0155498Y0148793D01*
X0155498Y0151207D01*
X0154574Y0153438D01*
X0153013Y0155000D01*
X0154574Y0156562D01*
X0155498Y0158793D01*
X0155498Y0161207D01*
X0154574Y0163438D01*
X0153013Y0165000D01*
X0154574Y0166562D01*
X0155498Y0168793D01*
X0155498Y0171207D01*
X0154574Y0173438D01*
X0153013Y0175000D01*
X0154574Y0176562D01*
X0155498Y0178793D01*
X0155498Y0181207D01*
X0154574Y0183438D01*
X0153013Y0185000D01*
X0154574Y0186562D01*
X0155498Y0188793D01*
X0155498Y0191207D01*
X0154574Y0193438D01*
X0152867Y0195146D01*
X0150636Y0196070D01*
X0148221Y0196070D01*
X0145990Y0195146D01*
X0144283Y0193438D01*
X0143358Y0191207D01*
X0143358Y0188793D01*
X0144283Y0186562D01*
X0145844Y0185000D01*
X0144283Y0183438D01*
X0143358Y0181207D01*
X0143358Y0178793D01*
X0144283Y0176562D01*
X0145844Y0175000D01*
X0144283Y0173438D01*
X0143358Y0171207D01*
X0143358Y0168793D01*
X0144283Y0166562D01*
X0145844Y0165000D01*
X0144283Y0163438D01*
X0143358Y0161207D01*
X0143358Y0158793D01*
X0144283Y0156562D01*
X0145844Y0155000D01*
X0144283Y0153438D01*
X0143358Y0151207D01*
X0143358Y0148793D01*
X0144283Y0146562D01*
X0145844Y0145000D01*
X0145209Y0144365D01*
X0103162Y0144365D01*
X0058027Y0189500D01*
X0059228Y0189500D01*
X0059228Y0194800D01*
X0053928Y0194800D01*
X0053928Y0193598D01*
X0045891Y0201636D01*
X0044999Y0202528D01*
X0043834Y0203010D01*
X0039752Y0203010D01*
X0039574Y0203438D01*
X0037867Y0205146D01*
X0037366Y0205353D01*
X0038574Y0206562D01*
X0039498Y0208793D01*
X0039498Y0211207D01*
X0038574Y0213438D01*
X0037366Y0214647D01*
X0037867Y0214854D01*
X0039574Y0216562D01*
X0040498Y0218793D01*
X0040498Y0221207D01*
X0039574Y0223438D01*
X0039397Y0223615D01*
X0095781Y0223615D01*
X0098326Y0221070D01*
X0098221Y0221070D01*
X0095990Y0220146D01*
X0094897Y0219053D01*
X0094806Y0219395D01*
X0094569Y0219805D01*
X0094234Y0220140D01*
X0093823Y0220377D01*
X0093365Y0220500D01*
X0089628Y0220500D01*
X0089628Y0215200D01*
X0089228Y0215200D01*
X0089228Y0214800D01*
X0083928Y0214800D01*
X0083928Y0211063D01*
X0084051Y0210605D01*
X0084288Y0210195D01*
X0084623Y0209860D01*
X0085034Y0209623D01*
X0085491Y0209500D01*
X0089228Y0209500D01*
X0089228Y0214800D01*
X0089628Y0214800D01*
X0089628Y0209500D01*
X0093365Y0209500D01*
X0093823Y0209623D01*
X0094234Y0209860D01*
X0094569Y0210195D01*
X0094806Y0210605D01*
X0094897Y0210947D01*
X0095844Y0210000D01*
X0094283Y0208438D01*
X0093358Y0206207D01*
X0093358Y0203793D01*
X0094283Y0201562D01*
X0095990Y0199854D01*
X0098221Y0198930D01*
X0100636Y0198930D01*
X0102867Y0199854D01*
X0104428Y0201416D01*
X0105990Y0199854D01*
X0108221Y0198930D01*
X0110636Y0198930D01*
X0112867Y0199854D01*
X0114428Y0201416D01*
X0115990Y0199854D01*
X0118221Y0198930D01*
X0120636Y0198930D01*
X0122867Y0199854D01*
X0124574Y0201562D01*
X0125498Y0203793D01*
X0125498Y0206207D01*
X0124574Y0208438D01*
X0123013Y0210000D01*
X0124428Y0211416D01*
X0125990Y0209854D01*
X0128221Y0208930D01*
X0130636Y0208930D01*
X0130943Y0209057D01*
X0141263Y0198738D01*
X0142428Y0198255D01*
X0218581Y0198255D01*
X0219283Y0196562D01*
X0220759Y0195085D01*
X0201073Y0195085D01*
X0199908Y0194603D01*
X0199016Y0193711D01*
X0196159Y0190853D01*
X0195636Y0191070D01*
X0193221Y0191070D01*
X0190990Y0190146D01*
X0189897Y0189053D01*
X0189806Y0189395D01*
X0189569Y0189805D01*
X0189234Y0190140D01*
X0188823Y0190377D01*
X0188365Y0190500D01*
X0184628Y0190500D01*
X0184628Y0185200D01*
X0184228Y0185200D01*
X0184228Y0184800D01*
X0178928Y0184800D01*
X0178928Y0181063D01*
X0179051Y0180605D01*
X0179288Y0180195D01*
X0179623Y0179860D01*
X0180034Y0179623D01*
X0180491Y0179500D01*
X0184228Y0179500D01*
X0184228Y0184800D01*
X0184628Y0184800D01*
X0184628Y0179500D01*
X0188365Y0179500D01*
X0188823Y0179623D01*
X0189234Y0179860D01*
X0189569Y0180195D01*
X0189806Y0180605D01*
X0189897Y0180947D01*
X0190990Y0179854D01*
X0193221Y0178930D01*
X0195636Y0178930D01*
X0197867Y0179854D01*
X0199428Y0181416D01*
X0200990Y0179854D01*
X0203221Y0178930D01*
X0205636Y0178930D01*
X0207867Y0179854D01*
X0209574Y0181562D01*
X0210498Y0183793D01*
X0210498Y0186207D01*
X0209574Y0188438D01*
X0209267Y0188745D01*
X0219378Y0188745D01*
X0220283Y0186562D01*
X0221491Y0185353D01*
X0220990Y0185146D01*
X0219283Y0183438D01*
X0218358Y0181207D01*
X0218358Y0178793D01*
X0218537Y0178362D01*
X0196067Y0155891D01*
X0195636Y0156070D01*
X0193221Y0156070D01*
X0190990Y0155146D01*
X0189897Y0154053D01*
X0189806Y0154395D01*
X0189569Y0154805D01*
X0189234Y0155140D01*
X0188823Y0155377D01*
X0188365Y0155500D01*
X0184628Y0155500D01*
X0184628Y0150200D01*
X0184228Y0150200D01*
X0184228Y0149800D01*
X0178928Y0149800D01*
X0178928Y0146063D01*
X0179051Y0145605D01*
X0179288Y0145195D01*
X0179623Y0144860D01*
X0180034Y0144623D01*
X0180491Y0144500D01*
X0184228Y0144500D01*
X0184228Y0149800D01*
X0184628Y0149800D01*
X0184628Y0144500D01*
X0188365Y0144500D01*
X0188823Y0144623D01*
X0189234Y0144860D01*
X0189569Y0145195D01*
X0189806Y0145605D01*
X0189897Y0145947D01*
X0190990Y0144854D01*
X0193221Y0143930D01*
X0195636Y0143930D01*
X0197867Y0144854D01*
X0199428Y0146416D01*
X0200990Y0144854D01*
X0203154Y0143958D01*
X0192676Y0133481D01*
X0192194Y0132316D01*
X0192194Y0120644D01*
X0190990Y0120146D01*
X0189897Y0119053D01*
X0189806Y0119395D01*
X0189569Y0119805D01*
X0189234Y0120140D01*
X0188823Y0120377D01*
X0188365Y0120500D01*
X0184628Y0120500D01*
X0184628Y0115200D01*
X0184228Y0115200D01*
X0184228Y0114800D01*
X0178928Y0114800D01*
X0178928Y0111063D01*
X0179051Y0110605D01*
X0179288Y0110195D01*
X0179623Y0109860D01*
X0180034Y0109623D01*
X0180491Y0109500D01*
X0184228Y0109500D01*
X0184228Y0114800D01*
X0184628Y0114800D01*
X0184628Y0109500D01*
X0188365Y0109500D01*
X0188823Y0109623D01*
X0189234Y0109860D01*
X0189569Y0110195D01*
X0189806Y0110605D01*
X0189897Y0110947D01*
X0190990Y0109854D01*
X0193221Y0108930D01*
X0195636Y0108930D01*
X0197867Y0109854D01*
X0199428Y0111416D01*
X0200990Y0109854D01*
X0203221Y0108930D01*
X0205636Y0108930D01*
X0207867Y0109854D01*
X0209574Y0111562D01*
X0210498Y0113793D01*
X0210498Y0116207D01*
X0209574Y0118438D01*
X0207867Y0120146D01*
X0205636Y0121070D01*
X0203221Y0121070D01*
X0200990Y0120146D01*
X0199428Y0118584D01*
X0198534Y0119479D01*
X0198534Y0130372D01*
X0218358Y0150197D01*
X0218358Y0148793D01*
X0219283Y0146562D01*
X0220990Y0144854D01*
X0221491Y0144647D01*
X0220283Y0143438D01*
X0219358Y0141207D01*
X0219358Y0138793D01*
X0220283Y0136562D01*
X0221491Y0135353D01*
X0220990Y0135146D01*
X0219283Y0133438D01*
X0218358Y0131207D01*
X0218358Y0128793D01*
X0219283Y0126562D01*
X0220990Y0124854D01*
X0221491Y0124647D01*
X0220283Y0123438D01*
X0219358Y0121207D01*
X0219358Y0118793D01*
X0220283Y0116562D01*
X0221491Y0115353D01*
X0220990Y0115146D01*
X0219283Y0113438D01*
X0218358Y0111207D01*
X0218358Y0108793D01*
X0219283Y0106562D01*
X0220990Y0104854D01*
X0221491Y0104647D01*
X0220283Y0103438D01*
X0219358Y0101207D01*
X0219358Y0098793D01*
X0220283Y0096562D01*
X0221491Y0095353D01*
X0220990Y0095146D01*
X0219283Y0093438D01*
X0218358Y0091207D01*
X0218358Y0088793D01*
X0219283Y0086562D01*
X0220990Y0084854D01*
X0221491Y0084647D01*
X0220283Y0083438D01*
X0219358Y0081207D01*
X0219358Y0078793D01*
X0220283Y0076562D01*
X0221990Y0074854D01*
X0224221Y0073930D01*
X0226636Y0073930D01*
X0228867Y0074854D01*
X0230574Y0076562D01*
X0231498Y0078793D01*
X0231498Y0081207D01*
X0230574Y0083438D01*
X0228867Y0085146D01*
X0228366Y0085353D01*
X0229574Y0086562D01*
X0230498Y0088793D01*
X0230498Y0091207D01*
X0229574Y0093438D01*
X0228366Y0094647D01*
X0228867Y0094854D01*
X0230574Y0096562D01*
X0231498Y0098793D01*
X0231498Y0101207D01*
X0230574Y0103438D01*
X0228867Y0105146D01*
X0228366Y0105353D01*
X0229574Y0106562D01*
X0230498Y0108793D01*
X0230498Y0111207D01*
X0229574Y0113438D01*
X0228366Y0114647D01*
X0228867Y0114854D01*
X0230574Y0116562D01*
X0231498Y0118793D01*
X0231498Y0121207D01*
X0230574Y0123438D01*
X0228867Y0125146D01*
X0228366Y0125353D01*
X0229574Y0126562D01*
X0230498Y0128793D01*
X0230498Y0131207D01*
X0229574Y0133438D01*
X0228366Y0134647D01*
X0228867Y0134854D01*
X0230574Y0136562D01*
X0231498Y0138793D01*
X0231498Y0141207D01*
X0230574Y0143438D01*
X0228867Y0145146D01*
X0228366Y0145353D01*
X0229574Y0146562D01*
X0230498Y0148793D01*
X0230498Y0151207D01*
X0229574Y0153438D01*
X0227867Y0155146D01*
X0225636Y0156070D01*
X0224232Y0156070D01*
X0225689Y0157528D01*
X0226581Y0158420D01*
X0227064Y0159585D01*
X0227064Y0164107D01*
X0228867Y0164854D01*
X0230574Y0166562D01*
X0231498Y0168793D01*
X0231498Y0171207D01*
X0230574Y0173438D01*
X0228867Y0175146D01*
X0228366Y0175353D01*
X0229574Y0176562D01*
X0230498Y0178793D01*
X0230498Y0181207D01*
X0229574Y0183438D01*
X0228366Y0184647D01*
X0228867Y0184854D01*
X0230574Y0186562D01*
X0231498Y0188793D01*
X0231498Y0191207D01*
X0230574Y0193438D01*
X0228867Y0195146D01*
X0228366Y0195353D01*
X0229574Y0196562D01*
X0230498Y0198793D01*
X0230498Y0201207D01*
X0229574Y0203438D01*
X0228366Y0204647D01*
X0228867Y0204854D01*
X0230574Y0206562D01*
X0231498Y0208793D01*
X0231498Y0211207D01*
X0230574Y0213438D01*
X0228867Y0215146D01*
X0228366Y0215353D01*
X0229574Y0216562D01*
X0230498Y0218793D01*
X0230498Y0221207D01*
X0229574Y0223438D01*
X0227867Y0225146D01*
X0225636Y0226070D01*
X0223221Y0226070D01*
X0221121Y0225200D01*
X0156693Y0225200D01*
X0155528Y0224718D01*
X0154636Y0223826D01*
X0151516Y0220705D01*
X0150636Y0221070D01*
X0148221Y0221070D01*
X0145990Y0220146D01*
X0144428Y0218584D01*
X0142867Y0220146D01*
X0140636Y0221070D01*
X0138221Y0221070D01*
X0135990Y0220146D01*
X0134428Y0218584D01*
X0132867Y0220146D01*
X0130636Y0221070D01*
X0128221Y0221070D01*
X0125990Y0220146D01*
X0124428Y0218584D01*
X0122867Y0220146D01*
X0120636Y0221070D01*
X0118387Y0221070D01*
X0106814Y0232643D01*
X0105649Y0233125D01*
X0029893Y0233125D01*
X0028728Y0232643D01*
X0027836Y0231751D01*
X0027836Y0231751D01*
X0021496Y0225411D01*
X0021013Y0224246D01*
X0021013Y0104110D01*
X0021496Y0102944D01*
X0028358Y0096082D01*
X0028358Y0093793D01*
X0029283Y0091562D01*
X0030491Y0090353D01*
X0029990Y0090146D01*
X0028283Y0088438D01*
X0027358Y0086207D01*
X0027358Y0083793D01*
X0028283Y0081562D01*
X0029990Y0079854D01*
X0031113Y0079389D01*
X0030845Y0079195D01*
X0030233Y0078583D01*
X0029724Y0077883D01*
X0029331Y0077111D01*
X0029064Y0076288D01*
X0028928Y0075433D01*
X0028928Y0075200D01*
X0034228Y0075200D01*
X0034228Y0074800D01*
X0028928Y0074800D01*
X0028928Y0074567D01*
X0029064Y0073712D01*
X0029331Y0072889D01*
X0029724Y0072117D01*
X0030233Y0071417D01*
X0030845Y0070805D01*
X0031113Y0070611D01*
X0029990Y0070146D01*
X0028283Y0068438D01*
X0027358Y0066207D01*
X0027358Y0063793D01*
X0028283Y0061562D01*
X0029990Y0059854D01*
X0030491Y0059647D01*
X0029283Y0058438D01*
X0028358Y0056207D01*
X0028358Y0053793D01*
X0029283Y0051562D01*
X0030844Y0050000D01*
X0029283Y0048438D01*
X0028358Y0046207D01*
X0028358Y0043793D01*
X0029283Y0041562D01*
X0030990Y0039854D01*
X0033221Y0038930D01*
X0035636Y0038930D01*
X0037867Y0039854D01*
X0039407Y0041394D02*
X0159661Y0041394D01*
X0159529Y0041526D02*
X0160435Y0040620D01*
X0161618Y0040130D01*
X0162899Y0040130D01*
X0164083Y0040620D01*
X0164989Y0041526D01*
X0165012Y0041582D01*
X0165973Y0040620D01*
X0167156Y0040130D01*
X0168437Y0040130D01*
X0169621Y0040620D01*
X0170324Y0041323D01*
X0171027Y0040620D01*
X0172211Y0040130D01*
X0176261Y0040130D01*
X0177444Y0040620D01*
X0178350Y0041526D01*
X0178840Y0042709D01*
X0178840Y0043401D01*
X0179492Y0044053D01*
X0180461Y0042115D01*
X0180591Y0041724D01*
X0180745Y0041547D01*
X0180850Y0041337D01*
X0181161Y0041067D01*
X0181431Y0040756D01*
X0181640Y0040651D01*
X0181818Y0040498D01*
X0182208Y0040368D01*
X0182576Y0040184D01*
X0182810Y0040167D01*
X0183033Y0040093D01*
X0183444Y0040122D01*
X0183854Y0040093D01*
X0184077Y0040167D01*
X0184311Y0040184D01*
X0184679Y0040368D01*
X0185069Y0040498D01*
X0185247Y0040651D01*
X0185456Y0040756D01*
X0185726Y0041067D01*
X0186037Y0041337D01*
X0186142Y0041547D01*
X0186296Y0041724D01*
X0186426Y0042115D01*
X0189379Y0048021D01*
X0189470Y0049299D01*
X0189065Y0050514D01*
X0188225Y0051482D01*
X0187080Y0052055D01*
X0185802Y0052145D01*
X0184587Y0051740D01*
X0183619Y0050901D01*
X0183444Y0050550D01*
X0183268Y0050901D01*
X0182300Y0051740D01*
X0181085Y0052145D01*
X0179807Y0052055D01*
X0178662Y0051482D01*
X0178159Y0050903D01*
X0177444Y0051618D01*
X0176261Y0052108D01*
X0172211Y0052108D01*
X0171027Y0051618D01*
X0170813Y0051404D01*
X0170527Y0052097D01*
X0169621Y0053002D01*
X0168236Y0054387D01*
X0167053Y0054877D01*
X0161618Y0054877D01*
X0160435Y0054387D01*
X0159529Y0053481D01*
X0159039Y0052298D01*
X0159039Y0045479D01*
X0159039Y0042709D01*
X0159529Y0041526D01*
X0159039Y0042993D02*
X0040167Y0042993D01*
X0040498Y0044591D02*
X0159039Y0044591D01*
X0159039Y0046190D02*
X0040498Y0046190D01*
X0039844Y0047788D02*
X0159039Y0047788D01*
X0159039Y0049387D02*
X0038626Y0049387D01*
X0038998Y0050985D02*
X0058097Y0050985D01*
X0056007Y0052584D02*
X0039998Y0052584D01*
X0040498Y0054182D02*
X0054408Y0054182D01*
X0052810Y0055781D02*
X0040498Y0055781D01*
X0040013Y0057379D02*
X0051211Y0057379D01*
X0049613Y0058978D02*
X0039035Y0058978D01*
X0037589Y0060576D02*
X0048014Y0060576D01*
X0046416Y0062175D02*
X0038828Y0062175D01*
X0039490Y0063773D02*
X0044817Y0063773D01*
X0043219Y0065372D02*
X0039498Y0065372D01*
X0039182Y0066970D02*
X0041620Y0066970D01*
X0040022Y0068569D02*
X0038444Y0068569D01*
X0038721Y0070167D02*
X0037058Y0070167D01*
X0041619Y0071455D02*
X0041619Y0077795D01*
X0033693Y0085720D01*
X0033428Y0085000D01*
X0029194Y0089349D02*
X0019428Y0089349D01*
X0019428Y0087751D02*
X0027998Y0087751D01*
X0027358Y0086152D02*
X0019428Y0086152D01*
X0019428Y0084554D02*
X0027358Y0084554D01*
X0027705Y0082955D02*
X0019428Y0082955D01*
X0019428Y0081357D02*
X0028487Y0081357D01*
X0030221Y0079758D02*
X0019428Y0079758D01*
X0019428Y0078160D02*
X0029926Y0078160D01*
X0029153Y0076561D02*
X0019428Y0076561D01*
X0019428Y0074963D02*
X0034228Y0074963D01*
X0029177Y0073364D02*
X0019428Y0073364D01*
X0019428Y0071766D02*
X0029980Y0071766D01*
X0030042Y0070167D02*
X0019428Y0070167D01*
X0019428Y0068569D02*
X0028413Y0068569D01*
X0027674Y0066970D02*
X0019428Y0066970D01*
X0019428Y0065372D02*
X0027358Y0065372D01*
X0027366Y0063773D02*
X0019428Y0063773D01*
X0019428Y0062175D02*
X0028029Y0062175D01*
X0029268Y0060576D02*
X0019428Y0060576D01*
X0019428Y0058978D02*
X0029822Y0058978D01*
X0028844Y0057379D02*
X0019428Y0057379D01*
X0019428Y0055781D02*
X0028358Y0055781D01*
X0028358Y0054182D02*
X0019428Y0054182D01*
X0019428Y0052584D02*
X0028859Y0052584D01*
X0029859Y0050985D02*
X0019428Y0050985D01*
X0019428Y0049387D02*
X0030231Y0049387D01*
X0029013Y0047788D02*
X0019428Y0047788D01*
X0019428Y0046190D02*
X0028358Y0046190D01*
X0028358Y0044591D02*
X0019428Y0044591D01*
X0019428Y0042993D02*
X0028690Y0042993D01*
X0029450Y0041394D02*
X0019428Y0041394D01*
X0019428Y0039796D02*
X0031131Y0039796D01*
X0052185Y0065372D02*
X0053928Y0065372D01*
X0053928Y0066970D02*
X0050586Y0066970D01*
X0048988Y0068569D02*
X0053928Y0068569D01*
X0054670Y0070167D02*
X0047389Y0070167D01*
X0045791Y0071766D02*
X0054198Y0071766D01*
X0053536Y0073364D02*
X0044788Y0073364D01*
X0044788Y0074963D02*
X0053358Y0074963D01*
X0053505Y0076561D02*
X0044788Y0076561D01*
X0044788Y0078160D02*
X0052621Y0078160D01*
X0051022Y0079758D02*
X0044138Y0079758D01*
X0042540Y0081357D02*
X0049424Y0081357D01*
X0047825Y0082955D02*
X0040941Y0082955D01*
X0039498Y0084554D02*
X0046595Y0084554D01*
X0046374Y0086152D02*
X0039498Y0086152D01*
X0038859Y0087751D02*
X0046374Y0087751D01*
X0046374Y0089349D02*
X0037663Y0089349D01*
X0038961Y0090948D02*
X0046374Y0090948D01*
X0046374Y0092546D02*
X0039982Y0092546D01*
X0040498Y0094145D02*
X0046374Y0094145D01*
X0046374Y0095743D02*
X0040498Y0095743D01*
X0040029Y0097342D02*
X0046374Y0097342D01*
X0046374Y0098940D02*
X0039072Y0098940D01*
X0037552Y0100539D02*
X0046374Y0100539D01*
X0046374Y0102137D02*
X0038813Y0102137D01*
X0039475Y0103736D02*
X0046374Y0103736D01*
X0046374Y0105334D02*
X0039498Y0105334D01*
X0039198Y0106933D02*
X0046374Y0106933D01*
X0046024Y0108532D02*
X0038481Y0108532D01*
X0038143Y0110130D02*
X0044426Y0110130D01*
X0042827Y0111729D02*
X0039644Y0111729D01*
X0040306Y0113327D02*
X0041229Y0113327D01*
X0049544Y0109495D02*
X0049544Y0085720D01*
X0059054Y0076210D01*
X0059428Y0075000D01*
X0063254Y0079758D02*
X0093358Y0079758D01*
X0093420Y0081357D02*
X0064370Y0081357D01*
X0065152Y0082955D02*
X0094082Y0082955D01*
X0095398Y0084554D02*
X0065498Y0084554D01*
X0065498Y0086152D02*
X0219692Y0086152D01*
X0218790Y0087751D02*
X0064859Y0087751D01*
X0063663Y0089349D02*
X0218358Y0089349D01*
X0218358Y0090948D02*
X0060931Y0090948D01*
X0056710Y0092546D02*
X0218913Y0092546D01*
X0219989Y0094145D02*
X0055884Y0094145D01*
X0055884Y0095743D02*
X0145930Y0095743D01*
X0144610Y0097342D02*
X0055884Y0097342D01*
X0055884Y0098940D02*
X0144028Y0098940D01*
X0143945Y0100539D02*
X0055884Y0100539D01*
X0055884Y0102137D02*
X0144345Y0102137D01*
X0145386Y0103736D02*
X0055884Y0103736D01*
X0055884Y0105334D02*
X0145510Y0105334D01*
X0144129Y0106933D02*
X0055884Y0106933D01*
X0055884Y0108532D02*
X0143467Y0108532D01*
X0143358Y0110130D02*
X0064504Y0110130D01*
X0064928Y0111729D02*
X0143574Y0111729D01*
X0144236Y0113327D02*
X0064928Y0113327D01*
X0064928Y0116524D02*
X0144320Y0116524D01*
X0143636Y0118123D02*
X0064928Y0118123D01*
X0064617Y0119721D02*
X0143358Y0119721D01*
X0143405Y0121320D02*
X0064332Y0121320D01*
X0065136Y0122918D02*
X0144067Y0122918D01*
X0145361Y0124517D02*
X0065498Y0124517D01*
X0065498Y0126115D02*
X0144729Y0126115D01*
X0149428Y0130000D02*
X0149399Y0130100D01*
X0073319Y0130100D01*
X0040034Y0163385D01*
X0040034Y0174480D01*
X0035278Y0179235D01*
X0034428Y0180000D01*
X0040144Y0182063D02*
X0056498Y0182063D01*
X0056759Y0180465D02*
X0040498Y0180465D01*
X0040498Y0181207D02*
X0039574Y0183438D01*
X0037867Y0185146D01*
X0037366Y0185353D01*
X0038574Y0186562D01*
X0039498Y0188793D01*
X0039498Y0191207D01*
X0038574Y0193438D01*
X0037366Y0194647D01*
X0037867Y0194854D01*
X0039574Y0196562D01*
X0039619Y0196670D01*
X0041890Y0196670D01*
X0057705Y0180856D01*
X0055990Y0180146D01*
X0054283Y0178438D01*
X0053358Y0176207D01*
X0053358Y0173793D01*
X0054283Y0171562D01*
X0055844Y0170000D01*
X0054283Y0168438D01*
X0053358Y0166207D01*
X0053358Y0163793D01*
X0054283Y0161562D01*
X0055375Y0160469D01*
X0055034Y0160377D01*
X0054623Y0160140D01*
X0054288Y0159805D01*
X0054051Y0159395D01*
X0053928Y0158937D01*
X0053928Y0155200D01*
X0059228Y0155200D01*
X0059228Y0154800D01*
X0053928Y0154800D01*
X0053928Y0153973D01*
X0043203Y0164698D01*
X0043203Y0175111D01*
X0042721Y0176276D01*
X0040412Y0178584D01*
X0040498Y0178793D01*
X0040498Y0181207D01*
X0040498Y0178866D02*
X0054710Y0178866D01*
X0053798Y0177268D02*
X0041729Y0177268D01*
X0042972Y0175669D02*
X0053358Y0175669D01*
X0053358Y0174070D02*
X0043203Y0174070D01*
X0043203Y0172472D02*
X0053905Y0172472D01*
X0054971Y0170873D02*
X0043203Y0170873D01*
X0043203Y0169275D02*
X0055119Y0169275D01*
X0053967Y0167676D02*
X0043203Y0167676D01*
X0043203Y0166078D02*
X0053358Y0166078D01*
X0053358Y0164479D02*
X0043422Y0164479D01*
X0045021Y0162881D02*
X0053736Y0162881D01*
X0054562Y0161282D02*
X0046619Y0161282D01*
X0048218Y0159684D02*
X0054218Y0159684D01*
X0053928Y0158085D02*
X0049816Y0158085D01*
X0051415Y0156487D02*
X0053928Y0156487D01*
X0053013Y0154888D02*
X0059228Y0154888D01*
X0059228Y0154800D02*
X0059628Y0154800D01*
X0059628Y0149500D01*
X0063365Y0149500D01*
X0063823Y0149623D01*
X0064234Y0149860D01*
X0064569Y0150195D01*
X0064806Y0150605D01*
X0064928Y0151063D01*
X0064928Y0154800D01*
X0059629Y0154800D01*
X0059629Y0155200D01*
X0064928Y0155200D01*
X0064928Y0158937D01*
X0064806Y0159395D01*
X0064569Y0159805D01*
X0064234Y0160140D01*
X0063823Y0160377D01*
X0063482Y0160469D01*
X0064574Y0161562D01*
X0065498Y0163793D01*
X0065498Y0166207D01*
X0064574Y0168438D01*
X0063013Y0170000D01*
X0064574Y0171562D01*
X0065285Y0173276D01*
X0100053Y0138508D01*
X0101218Y0138025D01*
X0102479Y0138025D01*
X0143676Y0138025D01*
X0144283Y0136562D01*
X0145844Y0135000D01*
X0144283Y0133438D01*
X0144213Y0133270D01*
X0074632Y0133270D01*
X0058402Y0149500D01*
X0059228Y0149500D01*
X0059228Y0154800D01*
X0059629Y0154888D02*
X0083672Y0154888D01*
X0082074Y0156487D02*
X0064928Y0156487D01*
X0064928Y0158085D02*
X0080475Y0158085D01*
X0078877Y0159684D02*
X0064639Y0159684D01*
X0064295Y0161282D02*
X0077278Y0161282D01*
X0075680Y0162881D02*
X0065121Y0162881D01*
X0065498Y0164479D02*
X0074081Y0164479D01*
X0072483Y0166078D02*
X0065498Y0166078D01*
X0064890Y0167676D02*
X0070884Y0167676D01*
X0069286Y0169275D02*
X0063738Y0169275D01*
X0063886Y0170873D02*
X0067687Y0170873D01*
X0066089Y0172472D02*
X0064951Y0172472D01*
X0068661Y0178866D02*
X0095516Y0178866D01*
X0095233Y0178583D02*
X0094724Y0177883D01*
X0094331Y0177111D01*
X0094064Y0176288D01*
X0093928Y0175433D01*
X0093928Y0175086D01*
X0099343Y0175086D01*
X0099343Y0180500D01*
X0098996Y0180500D01*
X0098141Y0180365D01*
X0097317Y0180097D01*
X0096546Y0179704D01*
X0095845Y0179195D01*
X0095233Y0178583D01*
X0094411Y0177268D02*
X0070259Y0177268D01*
X0071858Y0175669D02*
X0093966Y0175669D01*
X0093928Y0174914D02*
X0093928Y0174567D01*
X0094064Y0173712D01*
X0094331Y0172889D01*
X0094724Y0172117D01*
X0095233Y0171417D01*
X0095845Y0170805D01*
X0096546Y0170296D01*
X0097317Y0169903D01*
X0098141Y0169635D01*
X0098996Y0169500D01*
X0099343Y0169500D01*
X0099343Y0174914D01*
X0099514Y0174914D01*
X0099514Y0169500D01*
X0099861Y0169500D01*
X0100716Y0169635D01*
X0101540Y0169903D01*
X0102311Y0170296D01*
X0103011Y0170805D01*
X0103624Y0171417D01*
X0104132Y0172117D01*
X0104428Y0172698D01*
X0104724Y0172117D01*
X0105233Y0171417D01*
X0105845Y0170805D01*
X0106546Y0170296D01*
X0107317Y0169903D01*
X0108141Y0169635D01*
X0108996Y0169500D01*
X0109343Y0169500D01*
X0109343Y0174914D01*
X0109514Y0174914D01*
X0109514Y0169500D01*
X0109861Y0169500D01*
X0110716Y0169635D01*
X0111540Y0169903D01*
X0112311Y0170296D01*
X0113011Y0170805D01*
X0113624Y0171417D01*
X0114132Y0172117D01*
X0114428Y0172698D01*
X0114724Y0172117D01*
X0115233Y0171417D01*
X0115845Y0170805D01*
X0116546Y0170296D01*
X0117317Y0169903D01*
X0118141Y0169635D01*
X0118996Y0169500D01*
X0119343Y0169500D01*
X0119343Y0174914D01*
X0119514Y0174914D01*
X0119514Y0169500D01*
X0119861Y0169500D01*
X0120716Y0169635D01*
X0121540Y0169903D01*
X0122311Y0170296D01*
X0123011Y0170805D01*
X0123624Y0171417D01*
X0124132Y0172117D01*
X0124526Y0172889D01*
X0124793Y0173712D01*
X0124928Y0174567D01*
X0124928Y0174914D01*
X0119514Y0174914D01*
X0119514Y0175086D01*
X0119343Y0175086D01*
X0119343Y0180500D01*
X0118996Y0180500D01*
X0118141Y0180365D01*
X0117317Y0180097D01*
X0116546Y0179704D01*
X0115845Y0179195D01*
X0115233Y0178583D01*
X0114724Y0177883D01*
X0114428Y0177302D01*
X0114132Y0177883D01*
X0113624Y0178583D01*
X0113011Y0179195D01*
X0112311Y0179704D01*
X0111540Y0180097D01*
X0110716Y0180365D01*
X0109861Y0180500D01*
X0109514Y0180500D01*
X0109514Y0175086D01*
X0109343Y0175086D01*
X0109343Y0180500D01*
X0108996Y0180500D01*
X0108141Y0180365D01*
X0107317Y0180097D01*
X0106546Y0179704D01*
X0105845Y0179195D01*
X0105233Y0178583D01*
X0104724Y0177883D01*
X0104428Y0177302D01*
X0104132Y0177883D01*
X0103624Y0178583D01*
X0103011Y0179195D01*
X0102311Y0179704D01*
X0101540Y0180097D01*
X0100716Y0180365D01*
X0099861Y0180500D01*
X0099514Y0180500D01*
X0099514Y0175086D01*
X0099343Y0175086D01*
X0099343Y0174914D01*
X0093928Y0174914D01*
X0094007Y0174070D02*
X0073456Y0174070D01*
X0075055Y0172472D02*
X0094544Y0172472D01*
X0095777Y0170873D02*
X0076653Y0170873D01*
X0078252Y0169275D02*
X0143358Y0169275D01*
X0143358Y0170873D02*
X0123080Y0170873D01*
X0124313Y0172472D02*
X0143882Y0172472D01*
X0144915Y0174070D02*
X0124850Y0174070D01*
X0124928Y0175086D02*
X0124928Y0175433D01*
X0124793Y0176288D01*
X0124526Y0177111D01*
X0124132Y0177883D01*
X0123624Y0178583D01*
X0123011Y0179195D01*
X0122311Y0179704D01*
X0121540Y0180097D01*
X0120716Y0180365D01*
X0119861Y0180500D01*
X0119514Y0180500D01*
X0119514Y0175086D01*
X0124928Y0175086D01*
X0124891Y0175669D02*
X0145175Y0175669D01*
X0143990Y0177268D02*
X0124446Y0177268D01*
X0123341Y0178866D02*
X0143358Y0178866D01*
X0143358Y0180465D02*
X0120085Y0180465D01*
X0119514Y0180465D02*
X0119343Y0180465D01*
X0118772Y0180465D02*
X0110085Y0180465D01*
X0109514Y0180465D02*
X0109343Y0180465D01*
X0108772Y0180465D02*
X0100085Y0180465D01*
X0099514Y0180465D02*
X0099343Y0180465D01*
X0098772Y0180465D02*
X0067062Y0180465D01*
X0065464Y0182063D02*
X0143713Y0182063D01*
X0144506Y0183662D02*
X0063865Y0183662D01*
X0062267Y0185260D02*
X0145584Y0185260D01*
X0144160Y0186859D02*
X0060668Y0186859D01*
X0059070Y0188457D02*
X0143497Y0188457D01*
X0143358Y0190056D02*
X0064430Y0190056D01*
X0064569Y0190195D02*
X0064806Y0190605D01*
X0064928Y0191063D01*
X0064928Y0194800D01*
X0059629Y0194800D01*
X0059629Y0195200D01*
X0064928Y0195200D01*
X0064928Y0198937D01*
X0064806Y0199395D01*
X0064569Y0199805D01*
X0064234Y0200140D01*
X0063823Y0200377D01*
X0063482Y0200469D01*
X0064574Y0201562D01*
X0065498Y0203793D01*
X0065498Y0206207D01*
X0064574Y0208438D01*
X0063013Y0210000D01*
X0064574Y0211562D01*
X0065498Y0213793D01*
X0065498Y0216207D01*
X0064574Y0218438D01*
X0062867Y0220146D01*
X0060636Y0221070D01*
X0058221Y0221070D01*
X0055990Y0220146D01*
X0054283Y0218438D01*
X0053358Y0216207D01*
X0053358Y0213793D01*
X0054283Y0211562D01*
X0055844Y0210000D01*
X0054283Y0208438D01*
X0053358Y0206207D01*
X0053358Y0203793D01*
X0054283Y0201562D01*
X0055375Y0200469D01*
X0055034Y0200377D01*
X0054623Y0200140D01*
X0054288Y0199805D01*
X0054051Y0199395D01*
X0053928Y0198937D01*
X0053928Y0195200D01*
X0059228Y0195200D01*
X0059228Y0194800D01*
X0059628Y0194800D01*
X0059628Y0189500D01*
X0063365Y0189500D01*
X0063823Y0189623D01*
X0064234Y0189860D01*
X0064569Y0190195D01*
X0064928Y0191654D02*
X0143544Y0191654D01*
X0144206Y0193253D02*
X0064928Y0193253D01*
X0064928Y0196450D02*
X0219395Y0196450D01*
X0218667Y0198048D02*
X0064928Y0198048D01*
X0064660Y0199647D02*
X0096491Y0199647D01*
X0094599Y0201245D02*
X0064258Y0201245D01*
X0065105Y0202844D02*
X0093752Y0202844D01*
X0093358Y0204442D02*
X0065498Y0204442D01*
X0065498Y0206041D02*
X0093358Y0206041D01*
X0093952Y0207639D02*
X0064905Y0207639D01*
X0063775Y0209238D02*
X0095082Y0209238D01*
X0095008Y0210836D02*
X0094868Y0210836D01*
X0089628Y0210836D02*
X0089228Y0210836D01*
X0089228Y0212435D02*
X0089628Y0212435D01*
X0089628Y0214033D02*
X0089228Y0214033D01*
X0089228Y0215200D02*
X0083928Y0215200D01*
X0083928Y0218937D01*
X0084051Y0219395D01*
X0084288Y0219805D01*
X0084623Y0220140D01*
X0085034Y0220377D01*
X0085491Y0220500D01*
X0089228Y0220500D01*
X0089228Y0215200D01*
X0089228Y0215632D02*
X0089628Y0215632D01*
X0089628Y0217230D02*
X0089228Y0217230D01*
X0089228Y0218829D02*
X0089628Y0218829D01*
X0089628Y0220427D02*
X0089228Y0220427D01*
X0085220Y0220427D02*
X0062187Y0220427D01*
X0064184Y0218829D02*
X0083928Y0218829D01*
X0083928Y0217230D02*
X0065075Y0217230D01*
X0065498Y0215632D02*
X0083928Y0215632D01*
X0083928Y0214033D02*
X0065498Y0214033D01*
X0064936Y0212435D02*
X0083928Y0212435D01*
X0083989Y0210836D02*
X0063849Y0210836D01*
X0055008Y0210836D02*
X0039498Y0210836D01*
X0039498Y0209238D02*
X0055082Y0209238D01*
X0053952Y0207639D02*
X0039021Y0207639D01*
X0038053Y0206041D02*
X0053358Y0206041D01*
X0053358Y0204442D02*
X0038571Y0204442D01*
X0035278Y0199840D02*
X0034428Y0200000D01*
X0035278Y0199840D02*
X0043204Y0199840D01*
X0101849Y0141195D01*
X0149399Y0141195D01*
X0149428Y0140000D01*
X0145138Y0135706D02*
X0072196Y0135706D01*
X0073794Y0134108D02*
X0144952Y0134108D01*
X0143975Y0137305D02*
X0070597Y0137305D01*
X0068999Y0138903D02*
X0099657Y0138903D01*
X0098059Y0140502D02*
X0067400Y0140502D01*
X0065801Y0142100D02*
X0096460Y0142100D01*
X0094862Y0143699D02*
X0064203Y0143699D01*
X0062604Y0145297D02*
X0093263Y0145297D01*
X0091665Y0146896D02*
X0061006Y0146896D01*
X0059407Y0148494D02*
X0090066Y0148494D01*
X0088468Y0150093D02*
X0064467Y0150093D01*
X0064928Y0151691D02*
X0086869Y0151691D01*
X0085271Y0153290D02*
X0064928Y0153290D01*
X0059628Y0153290D02*
X0059228Y0153290D01*
X0059228Y0151691D02*
X0059628Y0151691D01*
X0059628Y0150093D02*
X0059228Y0150093D01*
X0064967Y0132509D02*
X0066426Y0132509D01*
X0068025Y0130911D02*
X0063923Y0130911D01*
X0063701Y0129312D02*
X0069623Y0129312D01*
X0071222Y0127714D02*
X0064875Y0127714D01*
X0059629Y0114926D02*
X0145770Y0114926D01*
X0153087Y0114926D02*
X0184228Y0114926D01*
X0184228Y0115200D02*
X0178928Y0115200D01*
X0178928Y0118937D01*
X0179051Y0119395D01*
X0179288Y0119805D01*
X0179623Y0120140D01*
X0180034Y0120377D01*
X0180491Y0120500D01*
X0184228Y0120500D01*
X0184228Y0115200D01*
X0184228Y0116524D02*
X0184628Y0116524D01*
X0184628Y0118123D02*
X0184228Y0118123D01*
X0184228Y0119721D02*
X0184628Y0119721D01*
X0189617Y0119721D02*
X0190565Y0119721D01*
X0192194Y0121320D02*
X0155452Y0121320D01*
X0155498Y0119721D02*
X0179240Y0119721D01*
X0178928Y0118123D02*
X0155221Y0118123D01*
X0154537Y0116524D02*
X0178928Y0116524D01*
X0178928Y0113327D02*
X0154620Y0113327D01*
X0155283Y0111729D02*
X0178928Y0111729D01*
X0179353Y0110130D02*
X0155498Y0110130D01*
X0155390Y0108532D02*
X0218467Y0108532D01*
X0218358Y0110130D02*
X0208143Y0110130D01*
X0209644Y0111729D02*
X0218574Y0111729D01*
X0219236Y0113327D02*
X0210306Y0113327D01*
X0210498Y0114926D02*
X0220770Y0114926D01*
X0220320Y0116524D02*
X0210367Y0116524D01*
X0209705Y0118123D02*
X0219636Y0118123D01*
X0219358Y0119721D02*
X0208292Y0119721D01*
X0200565Y0119721D02*
X0198534Y0119721D01*
X0198534Y0121320D02*
X0219405Y0121320D01*
X0220067Y0122918D02*
X0198534Y0122918D01*
X0198534Y0124517D02*
X0221361Y0124517D01*
X0219729Y0126115D02*
X0198534Y0126115D01*
X0198534Y0127714D02*
X0218805Y0127714D01*
X0218358Y0129312D02*
X0198534Y0129312D01*
X0199072Y0130911D02*
X0218358Y0130911D01*
X0218898Y0132509D02*
X0200671Y0132509D01*
X0202269Y0134108D02*
X0219952Y0134108D01*
X0221138Y0135706D02*
X0203868Y0135706D01*
X0205466Y0137305D02*
X0219975Y0137305D01*
X0219358Y0138903D02*
X0207065Y0138903D01*
X0208663Y0140502D02*
X0219358Y0140502D01*
X0219728Y0142100D02*
X0210262Y0142100D01*
X0211860Y0143699D02*
X0220543Y0143699D01*
X0220547Y0145297D02*
X0213459Y0145297D01*
X0215057Y0146896D02*
X0219144Y0146896D01*
X0218482Y0148494D02*
X0216656Y0148494D01*
X0218254Y0150093D02*
X0218358Y0150093D01*
X0224648Y0156487D02*
X0239428Y0156487D01*
X0239428Y0158085D02*
X0226247Y0158085D01*
X0227064Y0159684D02*
X0239428Y0159684D01*
X0239428Y0161282D02*
X0227064Y0161282D01*
X0227064Y0162881D02*
X0239428Y0162881D01*
X0239428Y0164479D02*
X0227962Y0164479D01*
X0230091Y0166078D02*
X0239428Y0166078D01*
X0239428Y0167676D02*
X0231036Y0167676D01*
X0231498Y0169275D02*
X0239428Y0169275D01*
X0239428Y0170873D02*
X0231498Y0170873D01*
X0230975Y0172472D02*
X0239428Y0172472D01*
X0239428Y0174070D02*
X0229942Y0174070D01*
X0228682Y0175669D02*
X0239428Y0175669D01*
X0239428Y0177268D02*
X0229867Y0177268D01*
X0230498Y0178866D02*
X0239428Y0178866D01*
X0239428Y0180465D02*
X0230498Y0180465D01*
X0230144Y0182063D02*
X0239428Y0182063D01*
X0239428Y0183662D02*
X0229351Y0183662D01*
X0229273Y0185260D02*
X0239428Y0185260D01*
X0239428Y0186859D02*
X0230697Y0186859D01*
X0231359Y0188457D02*
X0239428Y0188457D01*
X0239428Y0190056D02*
X0231498Y0190056D01*
X0231313Y0191654D02*
X0239428Y0191654D01*
X0239428Y0193253D02*
X0230651Y0193253D01*
X0229162Y0194851D02*
X0239428Y0194851D01*
X0239428Y0196450D02*
X0229462Y0196450D01*
X0230190Y0198048D02*
X0239428Y0198048D01*
X0239428Y0199647D02*
X0230498Y0199647D01*
X0230483Y0201245D02*
X0239428Y0201245D01*
X0239428Y0202844D02*
X0229821Y0202844D01*
X0228571Y0204442D02*
X0239428Y0204442D01*
X0239428Y0206041D02*
X0230053Y0206041D01*
X0231021Y0207639D02*
X0239428Y0207639D01*
X0239428Y0209238D02*
X0231498Y0209238D01*
X0231498Y0210836D02*
X0239428Y0210836D01*
X0239428Y0212435D02*
X0230990Y0212435D01*
X0229979Y0214033D02*
X0239428Y0214033D01*
X0239428Y0215632D02*
X0228645Y0215632D01*
X0229851Y0217230D02*
X0239428Y0217230D01*
X0239428Y0218829D02*
X0230498Y0218829D01*
X0230498Y0220427D02*
X0239428Y0220427D01*
X0239428Y0222026D02*
X0230159Y0222026D01*
X0229388Y0223624D02*
X0239428Y0223624D01*
X0239428Y0225223D02*
X0227681Y0225223D01*
X0223894Y0220445D02*
X0224428Y0220000D01*
X0223894Y0220445D02*
X0222309Y0222030D01*
X0157324Y0222030D01*
X0150984Y0215690D01*
X0149428Y0215000D01*
X0146670Y0220427D02*
X0142187Y0220427D01*
X0144184Y0218829D02*
X0144673Y0218829D01*
X0139428Y0215000D02*
X0139889Y0214105D01*
X0146229Y0207765D01*
X0162079Y0207765D01*
X0163664Y0209350D01*
X0223894Y0209350D01*
X0225428Y0210000D01*
X0223894Y0201425D02*
X0224428Y0200000D01*
X0223894Y0201425D02*
X0143059Y0201425D01*
X0130379Y0214105D01*
X0129428Y0215000D01*
X0125008Y0210836D02*
X0123849Y0210836D01*
X0123775Y0209238D02*
X0127478Y0209238D01*
X0124905Y0207639D02*
X0132362Y0207639D01*
X0133960Y0206041D02*
X0125498Y0206041D01*
X0125498Y0204442D02*
X0135559Y0204442D01*
X0137157Y0202844D02*
X0125105Y0202844D01*
X0124258Y0201245D02*
X0138756Y0201245D01*
X0140354Y0199647D02*
X0122366Y0199647D01*
X0116491Y0199647D02*
X0112366Y0199647D01*
X0114258Y0201245D02*
X0114599Y0201245D01*
X0119428Y0205000D02*
X0119284Y0206180D01*
X0119284Y0214105D01*
X0119428Y0215000D01*
X0119284Y0215690D01*
X0105019Y0229955D01*
X0030523Y0229955D01*
X0024183Y0223615D01*
X0024183Y0104740D01*
X0033693Y0095230D01*
X0034428Y0095000D01*
X0029896Y0090948D02*
X0019428Y0090948D01*
X0019428Y0092546D02*
X0028875Y0092546D01*
X0028358Y0094145D02*
X0019428Y0094145D01*
X0019428Y0095743D02*
X0028358Y0095743D01*
X0027099Y0097342D02*
X0019428Y0097342D01*
X0019428Y0098940D02*
X0025500Y0098940D01*
X0023902Y0100539D02*
X0019428Y0100539D01*
X0019428Y0102137D02*
X0022303Y0102137D01*
X0021168Y0103736D02*
X0019428Y0103736D01*
X0019428Y0105334D02*
X0021013Y0105334D01*
X0021013Y0106933D02*
X0019428Y0106933D01*
X0019428Y0108532D02*
X0021013Y0108532D01*
X0021013Y0110130D02*
X0019428Y0110130D01*
X0019428Y0111729D02*
X0021013Y0111729D01*
X0021013Y0113327D02*
X0019428Y0113327D01*
X0019428Y0114926D02*
X0021013Y0114926D01*
X0021013Y0116524D02*
X0019428Y0116524D01*
X0019428Y0118123D02*
X0021013Y0118123D01*
X0021013Y0119721D02*
X0019428Y0119721D01*
X0019428Y0121320D02*
X0021013Y0121320D01*
X0021013Y0122918D02*
X0019428Y0122918D01*
X0019428Y0124517D02*
X0021013Y0124517D01*
X0021013Y0126115D02*
X0019428Y0126115D01*
X0019428Y0127714D02*
X0021013Y0127714D01*
X0021013Y0129312D02*
X0019428Y0129312D01*
X0019428Y0130911D02*
X0021013Y0130911D01*
X0021013Y0132509D02*
X0019428Y0132509D01*
X0019428Y0134108D02*
X0021013Y0134108D01*
X0021013Y0135706D02*
X0019428Y0135706D01*
X0019428Y0137305D02*
X0021013Y0137305D01*
X0021013Y0138903D02*
X0019428Y0138903D01*
X0019428Y0140502D02*
X0021013Y0140502D01*
X0021013Y0142100D02*
X0019428Y0142100D01*
X0019428Y0143699D02*
X0021013Y0143699D01*
X0021013Y0145297D02*
X0019428Y0145297D01*
X0019428Y0146896D02*
X0021013Y0146896D01*
X0021013Y0148494D02*
X0019428Y0148494D01*
X0019428Y0150093D02*
X0021013Y0150093D01*
X0021013Y0151691D02*
X0019428Y0151691D01*
X0019428Y0153290D02*
X0021013Y0153290D01*
X0021013Y0154888D02*
X0019428Y0154888D01*
X0019428Y0156487D02*
X0021013Y0156487D01*
X0021013Y0158085D02*
X0019428Y0158085D01*
X0019428Y0159684D02*
X0021013Y0159684D01*
X0021013Y0161282D02*
X0019428Y0161282D01*
X0019428Y0162881D02*
X0021013Y0162881D01*
X0021013Y0164479D02*
X0019428Y0164479D01*
X0019428Y0166078D02*
X0021013Y0166078D01*
X0021013Y0167676D02*
X0019428Y0167676D01*
X0019428Y0169275D02*
X0021013Y0169275D01*
X0021013Y0170873D02*
X0019428Y0170873D01*
X0019428Y0172472D02*
X0021013Y0172472D01*
X0021013Y0174070D02*
X0019428Y0174070D01*
X0019428Y0175669D02*
X0021013Y0175669D01*
X0021013Y0177268D02*
X0019428Y0177268D01*
X0019428Y0178866D02*
X0021013Y0178866D01*
X0021013Y0180465D02*
X0019428Y0180465D01*
X0019428Y0182063D02*
X0021013Y0182063D01*
X0021013Y0183662D02*
X0019428Y0183662D01*
X0019428Y0185260D02*
X0021013Y0185260D01*
X0021013Y0186859D02*
X0019428Y0186859D01*
X0019428Y0188457D02*
X0021013Y0188457D01*
X0021013Y0190056D02*
X0019428Y0190056D01*
X0019428Y0191654D02*
X0021013Y0191654D01*
X0021013Y0193253D02*
X0019428Y0193253D01*
X0019428Y0194851D02*
X0021013Y0194851D01*
X0021013Y0196450D02*
X0019428Y0196450D01*
X0019428Y0198048D02*
X0021013Y0198048D01*
X0021013Y0199647D02*
X0019428Y0199647D01*
X0019428Y0201245D02*
X0021013Y0201245D01*
X0021013Y0202844D02*
X0019428Y0202844D01*
X0019428Y0204442D02*
X0021013Y0204442D01*
X0021013Y0206041D02*
X0019428Y0206041D01*
X0019428Y0207639D02*
X0021013Y0207639D01*
X0021013Y0209238D02*
X0019428Y0209238D01*
X0019428Y0210836D02*
X0021013Y0210836D01*
X0021013Y0212435D02*
X0019428Y0212435D01*
X0019428Y0214033D02*
X0021013Y0214033D01*
X0021013Y0215632D02*
X0019428Y0215632D01*
X0019428Y0217230D02*
X0021013Y0217230D01*
X0021013Y0218829D02*
X0019428Y0218829D01*
X0019428Y0220427D02*
X0021013Y0220427D01*
X0021013Y0222026D02*
X0019428Y0222026D01*
X0019428Y0223624D02*
X0021013Y0223624D01*
X0021418Y0225223D02*
X0019428Y0225223D01*
X0019428Y0226821D02*
X0022906Y0226821D01*
X0024505Y0228420D02*
X0019428Y0228420D01*
X0019428Y0230018D02*
X0026104Y0230018D01*
X0027702Y0231617D02*
X0019428Y0231617D01*
X0019428Y0233215D02*
X0239428Y0233215D01*
X0239428Y0231617D02*
X0107840Y0231617D01*
X0109439Y0230018D02*
X0239428Y0230018D01*
X0239428Y0228420D02*
X0111037Y0228420D01*
X0112636Y0226821D02*
X0239428Y0226821D01*
X0239428Y0234814D02*
X0019428Y0234814D01*
X0032108Y0226785D02*
X0027353Y0222030D01*
X0027353Y0111080D01*
X0032108Y0106325D01*
X0033428Y0105000D01*
X0049544Y0109495D02*
X0035278Y0123760D01*
X0033693Y0123760D01*
X0033428Y0125000D01*
X0035278Y0134855D02*
X0034428Y0135000D01*
X0035278Y0134855D02*
X0052714Y0117420D01*
X0052714Y0092060D01*
X0059054Y0085720D01*
X0059428Y0085000D01*
X0064690Y0078160D02*
X0093621Y0078160D01*
X0094283Y0076561D02*
X0065352Y0076561D01*
X0065498Y0074963D02*
X0095881Y0074963D01*
X0099428Y0080000D02*
X0100264Y0079380D01*
X0109774Y0069870D01*
X0109774Y0060360D01*
X0110787Y0060187D01*
X0106338Y0057379D02*
X0060177Y0057379D01*
X0058579Y0058978D02*
X0106055Y0058978D01*
X0106055Y0060576D02*
X0064789Y0060576D01*
X0064928Y0062175D02*
X0106055Y0062175D01*
X0106604Y0063773D02*
X0064928Y0063773D01*
X0064928Y0065372D02*
X0106604Y0065372D01*
X0106604Y0066970D02*
X0064928Y0066970D01*
X0064928Y0068569D02*
X0106592Y0068569D01*
X0104993Y0070167D02*
X0064187Y0070167D01*
X0064659Y0071766D02*
X0103395Y0071766D01*
X0101796Y0073364D02*
X0065321Y0073364D01*
X0059628Y0063773D02*
X0059228Y0063773D01*
X0059228Y0062175D02*
X0059628Y0062175D01*
X0059628Y0060576D02*
X0059228Y0060576D01*
X0053928Y0063773D02*
X0053783Y0063773D01*
X0059054Y0054020D02*
X0041619Y0071455D01*
X0059054Y0054020D02*
X0112944Y0054020D01*
X0117699Y0058775D01*
X0118661Y0060187D01*
X0122128Y0055781D02*
X0140324Y0055781D01*
X0140484Y0055620D02*
X0141668Y0055130D01*
X0142949Y0055130D01*
X0144132Y0055620D01*
X0145038Y0056526D01*
X0145077Y0056621D01*
X0145117Y0056526D01*
X0146022Y0055620D01*
X0147206Y0055130D01*
X0148487Y0055130D01*
X0149670Y0055620D01*
X0149681Y0055631D01*
X0149692Y0055620D01*
X0150876Y0055130D01*
X0154926Y0055130D01*
X0155970Y0055563D01*
X0157014Y0055130D01*
X0158295Y0055130D01*
X0159479Y0055620D01*
X0160385Y0056526D01*
X0160424Y0056621D01*
X0160463Y0056526D01*
X0161369Y0055620D01*
X0162552Y0055130D01*
X0163833Y0055130D01*
X0165017Y0055620D01*
X0165028Y0055631D01*
X0165039Y0055620D01*
X0166222Y0055130D01*
X0170272Y0055130D01*
X0171456Y0055620D01*
X0172362Y0056526D01*
X0172852Y0057709D01*
X0172852Y0058991D01*
X0172730Y0059284D01*
X0178989Y0059284D01*
X0178989Y0057709D01*
X0179479Y0056526D01*
X0180385Y0055620D01*
X0181569Y0055130D01*
X0182850Y0055130D01*
X0184033Y0055620D01*
X0184939Y0056526D01*
X0184962Y0056582D01*
X0185923Y0055620D01*
X0187107Y0055130D01*
X0188388Y0055130D01*
X0189571Y0055620D01*
X0190274Y0056323D01*
X0190978Y0055620D01*
X0192161Y0055130D01*
X0196211Y0055130D01*
X0196894Y0055413D01*
X0197395Y0055620D01*
X0198098Y0056323D01*
X0198801Y0055620D01*
X0199984Y0055130D01*
X0201265Y0055130D01*
X0202009Y0055438D01*
X0202753Y0055130D01*
X0204034Y0055130D01*
X0204778Y0055438D01*
X0205522Y0055130D01*
X0206803Y0055130D01*
X0207987Y0055620D01*
X0208690Y0056323D01*
X0209393Y0055620D01*
X0210577Y0055130D01*
X0216011Y0055130D01*
X0217195Y0055620D01*
X0217206Y0055631D01*
X0217217Y0055620D01*
X0218400Y0055130D01*
X0219681Y0055130D01*
X0220865Y0055620D01*
X0221770Y0056526D01*
X0221810Y0056621D01*
X0221849Y0056526D01*
X0222755Y0055620D01*
X0223938Y0055130D01*
X0225219Y0055130D01*
X0226403Y0055620D01*
X0227308Y0056526D01*
X0227799Y0057709D01*
X0227799Y0063144D01*
X0227308Y0064328D01*
X0226403Y0065233D01*
X0225018Y0066618D01*
X0223835Y0067108D01*
X0218400Y0067108D01*
X0217217Y0066618D01*
X0216513Y0065915D01*
X0215810Y0066618D01*
X0214627Y0067108D01*
X0210577Y0067108D01*
X0209393Y0066618D01*
X0208487Y0065712D01*
X0208201Y0065020D01*
X0207987Y0065233D01*
X0207987Y0065233D01*
X0207508Y0065712D01*
X0206602Y0066618D01*
X0205767Y0066964D01*
X0205419Y0067108D01*
X0204138Y0067108D01*
X0203394Y0066800D01*
X0202650Y0067108D01*
X0199984Y0067108D01*
X0198801Y0066618D01*
X0198098Y0065915D01*
X0197395Y0066618D01*
X0196211Y0067108D01*
X0192161Y0067108D01*
X0190978Y0066618D01*
X0190764Y0066404D01*
X0190477Y0067097D01*
X0189571Y0068002D01*
X0188187Y0069387D01*
X0187003Y0069877D01*
X0181569Y0069877D01*
X0180385Y0069387D01*
X0179479Y0068481D01*
X0178989Y0067298D01*
X0178989Y0065724D01*
X0172361Y0065724D01*
X0171177Y0065233D01*
X0171176Y0065232D01*
X0171159Y0065273D01*
X0171467Y0066017D01*
X0171467Y0068682D01*
X0170977Y0069866D01*
X0170071Y0070771D01*
X0168888Y0071262D01*
X0167607Y0071262D01*
X0166423Y0070771D01*
X0165517Y0069866D01*
X0165027Y0068682D01*
X0165027Y0066606D01*
X0164336Y0065915D01*
X0163632Y0066618D01*
X0162449Y0067108D01*
X0157014Y0067108D01*
X0156121Y0066738D01*
X0156121Y0068682D01*
X0155631Y0069866D01*
X0154725Y0070771D01*
X0153541Y0071262D01*
X0152260Y0071262D01*
X0151077Y0070771D01*
X0150171Y0069866D01*
X0149884Y0069173D01*
X0149670Y0069387D01*
X0148487Y0069877D01*
X0147206Y0069877D01*
X0146022Y0069387D01*
X0145117Y0068481D01*
X0145077Y0068442D01*
X0144132Y0069387D01*
X0142949Y0069877D01*
X0141668Y0069877D01*
X0140484Y0069387D01*
X0139579Y0068481D01*
X0139088Y0067298D01*
X0139088Y0066017D01*
X0139088Y0057709D01*
X0139579Y0056526D01*
X0140484Y0055620D01*
X0139225Y0057379D02*
X0123109Y0057379D01*
X0123393Y0058978D02*
X0139088Y0058978D01*
X0139088Y0060576D02*
X0123393Y0060576D01*
X0123393Y0062175D02*
X0139088Y0062175D01*
X0139088Y0063773D02*
X0122787Y0063773D01*
X0121349Y0065372D02*
X0139088Y0065372D01*
X0139088Y0066970D02*
X0112944Y0066970D01*
X0112944Y0068569D02*
X0139666Y0068569D01*
X0144951Y0068569D02*
X0145204Y0068569D01*
X0145117Y0068481D02*
X0145117Y0068481D01*
X0150473Y0070167D02*
X0112944Y0070167D01*
X0112361Y0071766D02*
X0239428Y0071766D01*
X0239428Y0073364D02*
X0110762Y0073364D01*
X0109164Y0074963D02*
X0127200Y0074963D01*
X0127317Y0074903D02*
X0128141Y0074635D01*
X0128996Y0074500D01*
X0129343Y0074500D01*
X0129343Y0079914D01*
X0129514Y0079914D01*
X0129514Y0074500D01*
X0129861Y0074500D01*
X0130716Y0074635D01*
X0131540Y0074903D01*
X0132311Y0075296D01*
X0133011Y0075805D01*
X0133624Y0076417D01*
X0134132Y0077117D01*
X0134526Y0077889D01*
X0134793Y0078712D01*
X0134928Y0079567D01*
X0134928Y0079914D01*
X0129514Y0079914D01*
X0129514Y0080086D01*
X0129343Y0080086D01*
X0129343Y0085500D01*
X0128996Y0085500D01*
X0128141Y0085365D01*
X0127317Y0085097D01*
X0126546Y0084704D01*
X0125845Y0084195D01*
X0125233Y0083583D01*
X0124724Y0082883D01*
X0124331Y0082111D01*
X0124064Y0081288D01*
X0123928Y0080433D01*
X0123928Y0080086D01*
X0129343Y0080086D01*
X0129343Y0079914D01*
X0123928Y0079914D01*
X0123928Y0079567D01*
X0124064Y0078712D01*
X0124331Y0077889D01*
X0124724Y0077117D01*
X0125233Y0076417D01*
X0125845Y0075805D01*
X0126546Y0075296D01*
X0127317Y0074903D01*
X0129343Y0074963D02*
X0129514Y0074963D01*
X0129514Y0076561D02*
X0129343Y0076561D01*
X0129343Y0078160D02*
X0129514Y0078160D01*
X0129514Y0079758D02*
X0129343Y0079758D01*
X0129514Y0080086D02*
X0134928Y0080086D01*
X0134928Y0080433D01*
X0134793Y0081288D01*
X0134526Y0082111D01*
X0134132Y0082883D01*
X0133624Y0083583D01*
X0133011Y0084195D01*
X0132311Y0084704D01*
X0131540Y0085097D01*
X0130716Y0085365D01*
X0129861Y0085500D01*
X0129514Y0085500D01*
X0129514Y0080086D01*
X0129514Y0081357D02*
X0129343Y0081357D01*
X0129343Y0082955D02*
X0129514Y0082955D01*
X0129514Y0084554D02*
X0129343Y0084554D01*
X0126339Y0084554D02*
X0103459Y0084554D01*
X0104774Y0082955D02*
X0124777Y0082955D01*
X0124086Y0081357D02*
X0105437Y0081357D01*
X0105498Y0079758D02*
X0123928Y0079758D01*
X0124243Y0078160D02*
X0105967Y0078160D01*
X0107565Y0076561D02*
X0125128Y0076561D01*
X0131657Y0074963D02*
X0221881Y0074963D01*
X0220283Y0076561D02*
X0133728Y0076561D01*
X0134614Y0078160D02*
X0219621Y0078160D01*
X0219358Y0079758D02*
X0134928Y0079758D01*
X0134771Y0081357D02*
X0219420Y0081357D01*
X0220082Y0082955D02*
X0134080Y0082955D01*
X0132518Y0084554D02*
X0221398Y0084554D01*
X0229165Y0086152D02*
X0239428Y0086152D01*
X0239428Y0084554D02*
X0229459Y0084554D01*
X0230774Y0082955D02*
X0239428Y0082955D01*
X0239428Y0081357D02*
X0231437Y0081357D01*
X0231498Y0079758D02*
X0239428Y0079758D01*
X0239428Y0078160D02*
X0231236Y0078160D01*
X0230574Y0076561D02*
X0239428Y0076561D01*
X0239428Y0074963D02*
X0228976Y0074963D01*
X0224167Y0066970D02*
X0239428Y0066970D01*
X0239428Y0065372D02*
X0226264Y0065372D01*
X0227538Y0063773D02*
X0239428Y0063773D01*
X0239428Y0062175D02*
X0227799Y0062175D01*
X0227799Y0060576D02*
X0239428Y0060576D01*
X0239428Y0058978D02*
X0227799Y0058978D01*
X0227662Y0057379D02*
X0239428Y0057379D01*
X0239428Y0055781D02*
X0226563Y0055781D01*
X0222594Y0055781D02*
X0221025Y0055781D01*
X0218067Y0066970D02*
X0214960Y0066970D01*
X0210244Y0066970D02*
X0205752Y0066970D01*
X0203805Y0066970D02*
X0202983Y0066970D01*
X0199652Y0066970D02*
X0196544Y0066970D01*
X0191828Y0066970D02*
X0190529Y0066970D01*
X0189005Y0068569D02*
X0239428Y0068569D01*
X0239428Y0070167D02*
X0170675Y0070167D01*
X0171467Y0068569D02*
X0179567Y0068569D01*
X0178989Y0066970D02*
X0171467Y0066970D01*
X0171511Y0065372D02*
X0171200Y0065372D01*
X0165027Y0066970D02*
X0162782Y0066970D01*
X0165027Y0068569D02*
X0156121Y0068569D01*
X0156121Y0066970D02*
X0156682Y0066970D01*
X0155329Y0070167D02*
X0165819Y0070167D01*
X0172852Y0058978D02*
X0178989Y0058978D01*
X0179126Y0057379D02*
X0172715Y0057379D01*
X0171616Y0055781D02*
X0180225Y0055781D01*
X0184194Y0055781D02*
X0185763Y0055781D01*
X0189732Y0055781D02*
X0190817Y0055781D01*
X0188656Y0050985D02*
X0196634Y0050985D01*
X0196360Y0050712D02*
X0199129Y0053481D01*
X0200035Y0054387D01*
X0201219Y0054877D01*
X0202500Y0054877D01*
X0203683Y0054387D01*
X0204589Y0053481D01*
X0205079Y0052298D01*
X0205079Y0046570D01*
X0205269Y0046570D01*
X0206452Y0046080D01*
X0207358Y0045174D01*
X0207848Y0043991D01*
X0207848Y0042709D01*
X0207358Y0041526D01*
X0206452Y0040620D01*
X0205269Y0040130D01*
X0198450Y0040130D01*
X0197266Y0040620D01*
X0196360Y0041526D01*
X0195870Y0042709D01*
X0195870Y0043991D01*
X0196360Y0045174D01*
X0197266Y0046080D01*
X0197361Y0046119D01*
X0197266Y0046158D01*
X0196360Y0047064D01*
X0195870Y0048248D01*
X0195870Y0049529D01*
X0196360Y0050712D01*
X0195870Y0049387D02*
X0189441Y0049387D01*
X0189263Y0047788D02*
X0196061Y0047788D01*
X0197235Y0046190D02*
X0188463Y0046190D01*
X0187664Y0044591D02*
X0196119Y0044591D01*
X0195870Y0042993D02*
X0186865Y0042993D01*
X0186066Y0041394D02*
X0196492Y0041394D01*
X0205079Y0047788D02*
X0239428Y0047788D01*
X0239428Y0046190D02*
X0206187Y0046190D01*
X0207600Y0044591D02*
X0239428Y0044591D01*
X0239428Y0042993D02*
X0207848Y0042993D01*
X0207226Y0041394D02*
X0239428Y0041394D01*
X0239428Y0049387D02*
X0205079Y0049387D01*
X0205079Y0050985D02*
X0239428Y0050985D01*
X0239428Y0052584D02*
X0204961Y0052584D01*
X0203888Y0054182D02*
X0239428Y0054182D01*
X0209233Y0055781D02*
X0208147Y0055781D01*
X0208346Y0065372D02*
X0207848Y0065372D01*
X0207508Y0065712D02*
X0207508Y0065712D01*
X0198640Y0055781D02*
X0197555Y0055781D01*
X0199831Y0054182D02*
X0168441Y0054182D01*
X0170040Y0052584D02*
X0198232Y0052584D01*
X0183716Y0050985D02*
X0183171Y0050985D01*
X0178231Y0050985D02*
X0178077Y0050985D01*
X0178840Y0042993D02*
X0180022Y0042993D01*
X0180821Y0041394D02*
X0178218Y0041394D01*
X0165199Y0041394D02*
X0164857Y0041394D01*
X0159039Y0050985D02*
X0113900Y0050985D01*
X0115990Y0052584D02*
X0159157Y0052584D01*
X0160230Y0054182D02*
X0117589Y0054182D01*
X0115972Y0065372D02*
X0113475Y0065372D01*
X0144293Y0055781D02*
X0145862Y0055781D01*
X0159639Y0055781D02*
X0161208Y0055781D01*
X0152927Y0095743D02*
X0221101Y0095743D01*
X0219959Y0097342D02*
X0154247Y0097342D01*
X0154829Y0098940D02*
X0219358Y0098940D01*
X0219358Y0100539D02*
X0154912Y0100539D01*
X0154512Y0102137D02*
X0219744Y0102137D01*
X0220580Y0103736D02*
X0153471Y0103736D01*
X0153347Y0105334D02*
X0220510Y0105334D01*
X0219129Y0106933D02*
X0154728Y0106933D01*
X0149628Y0098940D02*
X0149228Y0098940D01*
X0149228Y0097342D02*
X0149628Y0097342D01*
X0149628Y0095743D02*
X0149228Y0095743D01*
X0154790Y0122918D02*
X0192194Y0122918D01*
X0192194Y0124517D02*
X0153496Y0124517D01*
X0154128Y0126115D02*
X0192194Y0126115D01*
X0192194Y0127714D02*
X0155052Y0127714D01*
X0155498Y0129312D02*
X0192194Y0129312D01*
X0192194Y0130911D02*
X0155498Y0130911D01*
X0154959Y0132509D02*
X0192274Y0132509D01*
X0193303Y0134108D02*
X0153905Y0134108D01*
X0153719Y0135706D02*
X0194902Y0135706D01*
X0196500Y0137305D02*
X0154882Y0137305D01*
X0155498Y0138903D02*
X0198099Y0138903D01*
X0199697Y0140502D02*
X0155498Y0140502D01*
X0155129Y0142100D02*
X0201296Y0142100D01*
X0202894Y0143699D02*
X0154314Y0143699D01*
X0153310Y0145297D02*
X0179229Y0145297D01*
X0178928Y0146896D02*
X0154713Y0146896D01*
X0155375Y0148494D02*
X0178928Y0148494D01*
X0178928Y0150200D02*
X0184228Y0150200D01*
X0184228Y0155500D01*
X0180491Y0155500D01*
X0180034Y0155377D01*
X0179623Y0155140D01*
X0179288Y0154805D01*
X0179051Y0154395D01*
X0178928Y0153937D01*
X0178928Y0150200D01*
X0178928Y0151691D02*
X0155298Y0151691D01*
X0155498Y0150093D02*
X0184228Y0150093D01*
X0184228Y0151691D02*
X0184628Y0151691D01*
X0184628Y0153290D02*
X0184228Y0153290D01*
X0184228Y0154888D02*
X0184628Y0154888D01*
X0189486Y0154888D02*
X0190733Y0154888D01*
X0194428Y0150000D02*
X0195364Y0150705D01*
X0223894Y0179235D01*
X0224428Y0180000D01*
X0221266Y0185260D02*
X0210498Y0185260D01*
X0210444Y0183662D02*
X0219506Y0183662D01*
X0218713Y0182063D02*
X0209782Y0182063D01*
X0208477Y0180465D02*
X0218358Y0180465D01*
X0218358Y0178866D02*
X0155498Y0178866D01*
X0155498Y0180465D02*
X0179132Y0180465D01*
X0178928Y0182063D02*
X0155144Y0182063D01*
X0154351Y0183662D02*
X0178928Y0183662D01*
X0178928Y0185200D02*
X0184228Y0185200D01*
X0184228Y0190500D01*
X0180491Y0190500D01*
X0180034Y0190377D01*
X0179623Y0190140D01*
X0179288Y0189805D01*
X0179051Y0189395D01*
X0178928Y0188937D01*
X0178928Y0185200D01*
X0178928Y0185260D02*
X0153273Y0185260D01*
X0154697Y0186859D02*
X0178928Y0186859D01*
X0178928Y0188457D02*
X0155359Y0188457D01*
X0155498Y0190056D02*
X0179538Y0190056D01*
X0184228Y0190056D02*
X0184628Y0190056D01*
X0184628Y0188457D02*
X0184228Y0188457D01*
X0184228Y0186859D02*
X0184628Y0186859D01*
X0184628Y0185260D02*
X0184228Y0185260D01*
X0184228Y0183662D02*
X0184628Y0183662D01*
X0184628Y0182063D02*
X0184228Y0182063D01*
X0184228Y0180465D02*
X0184628Y0180465D01*
X0189725Y0180465D02*
X0190380Y0180465D01*
X0194428Y0185000D02*
X0195364Y0185575D01*
X0201704Y0191915D01*
X0222309Y0191915D01*
X0223894Y0190330D01*
X0225428Y0190000D01*
X0220160Y0186859D02*
X0210229Y0186859D01*
X0209556Y0188457D02*
X0219497Y0188457D01*
X0217443Y0177268D02*
X0154867Y0177268D01*
X0153682Y0175669D02*
X0215845Y0175669D01*
X0214246Y0174070D02*
X0153942Y0174070D01*
X0154975Y0172472D02*
X0212647Y0172472D01*
X0211049Y0170873D02*
X0155498Y0170873D01*
X0155498Y0169275D02*
X0209450Y0169275D01*
X0207852Y0167676D02*
X0155036Y0167676D01*
X0154091Y0166078D02*
X0206253Y0166078D01*
X0204655Y0164479D02*
X0153533Y0164479D01*
X0154805Y0162881D02*
X0203056Y0162881D01*
X0201458Y0161282D02*
X0155467Y0161282D01*
X0155498Y0159684D02*
X0199859Y0159684D01*
X0198261Y0158085D02*
X0155206Y0158085D01*
X0154500Y0156487D02*
X0196662Y0156487D01*
X0198310Y0145297D02*
X0200547Y0145297D01*
X0190547Y0145297D02*
X0189628Y0145297D01*
X0184628Y0145297D02*
X0184228Y0145297D01*
X0184228Y0146896D02*
X0184628Y0146896D01*
X0184628Y0148494D02*
X0184228Y0148494D01*
X0178928Y0153290D02*
X0154636Y0153290D01*
X0153124Y0154888D02*
X0179371Y0154888D01*
X0195364Y0131685D02*
X0223894Y0160215D01*
X0223894Y0169725D01*
X0225428Y0170000D01*
X0228124Y0154888D02*
X0239428Y0154888D01*
X0239428Y0153290D02*
X0229636Y0153290D01*
X0230298Y0151691D02*
X0239428Y0151691D01*
X0239428Y0150093D02*
X0230498Y0150093D01*
X0230375Y0148494D02*
X0239428Y0148494D01*
X0239428Y0146896D02*
X0229713Y0146896D01*
X0228501Y0145297D02*
X0239428Y0145297D01*
X0239428Y0143699D02*
X0230314Y0143699D01*
X0231129Y0142100D02*
X0239428Y0142100D01*
X0239428Y0140502D02*
X0231498Y0140502D01*
X0231498Y0138903D02*
X0239428Y0138903D01*
X0239428Y0137305D02*
X0230882Y0137305D01*
X0229719Y0135706D02*
X0239428Y0135706D01*
X0239428Y0134108D02*
X0228905Y0134108D01*
X0229959Y0132509D02*
X0239428Y0132509D01*
X0239428Y0130911D02*
X0230498Y0130911D01*
X0230498Y0129312D02*
X0239428Y0129312D01*
X0239428Y0127714D02*
X0230052Y0127714D01*
X0229128Y0126115D02*
X0239428Y0126115D01*
X0239428Y0124517D02*
X0229496Y0124517D01*
X0230790Y0122918D02*
X0239428Y0122918D01*
X0239428Y0121320D02*
X0231452Y0121320D01*
X0231498Y0119721D02*
X0239428Y0119721D01*
X0239428Y0118123D02*
X0231221Y0118123D01*
X0230537Y0116524D02*
X0239428Y0116524D01*
X0239428Y0114926D02*
X0228938Y0114926D01*
X0229620Y0113327D02*
X0239428Y0113327D01*
X0239428Y0111729D02*
X0230283Y0111729D01*
X0230498Y0110130D02*
X0239428Y0110130D01*
X0239428Y0108532D02*
X0230390Y0108532D01*
X0229728Y0106933D02*
X0239428Y0106933D01*
X0239428Y0105334D02*
X0228412Y0105334D01*
X0230277Y0103736D02*
X0239428Y0103736D01*
X0239428Y0102137D02*
X0231113Y0102137D01*
X0231498Y0100539D02*
X0239428Y0100539D01*
X0239428Y0098940D02*
X0231498Y0098940D01*
X0230898Y0097342D02*
X0239428Y0097342D01*
X0239428Y0095743D02*
X0229756Y0095743D01*
X0228868Y0094145D02*
X0239428Y0094145D01*
X0239428Y0092546D02*
X0229944Y0092546D01*
X0230498Y0090948D02*
X0239428Y0090948D01*
X0239428Y0089349D02*
X0230498Y0089349D01*
X0230067Y0087751D02*
X0239428Y0087751D01*
X0200714Y0110130D02*
X0198143Y0110130D01*
X0194428Y0115000D02*
X0195364Y0115835D01*
X0195364Y0131685D01*
X0184628Y0113327D02*
X0184228Y0113327D01*
X0184228Y0111729D02*
X0184628Y0111729D01*
X0184628Y0110130D02*
X0184228Y0110130D01*
X0189504Y0110130D02*
X0190714Y0110130D01*
X0145547Y0145297D02*
X0102230Y0145297D01*
X0100631Y0146896D02*
X0144144Y0146896D01*
X0143482Y0148494D02*
X0099033Y0148494D01*
X0097434Y0150093D02*
X0143358Y0150093D01*
X0143559Y0151691D02*
X0095835Y0151691D01*
X0094237Y0153290D02*
X0144221Y0153290D01*
X0145733Y0154888D02*
X0092638Y0154888D01*
X0091040Y0156487D02*
X0144357Y0156487D01*
X0143651Y0158085D02*
X0089441Y0158085D01*
X0087843Y0159684D02*
X0143358Y0159684D01*
X0143390Y0161282D02*
X0086244Y0161282D01*
X0084646Y0162881D02*
X0144052Y0162881D01*
X0145324Y0164479D02*
X0083047Y0164479D01*
X0081449Y0166078D02*
X0144766Y0166078D01*
X0143821Y0167676D02*
X0079850Y0167676D01*
X0099343Y0170873D02*
X0099514Y0170873D01*
X0099514Y0172472D02*
X0099343Y0172472D01*
X0099343Y0174070D02*
X0099514Y0174070D01*
X0099514Y0174914D02*
X0099514Y0175086D01*
X0109343Y0175086D01*
X0109343Y0174914D01*
X0104928Y0174914D01*
X0099514Y0174914D01*
X0099514Y0175669D02*
X0099343Y0175669D01*
X0099343Y0177268D02*
X0099514Y0177268D01*
X0099514Y0178866D02*
X0099343Y0178866D01*
X0103341Y0178866D02*
X0105516Y0178866D01*
X0109343Y0178866D02*
X0109514Y0178866D01*
X0109514Y0177268D02*
X0109343Y0177268D01*
X0109343Y0175669D02*
X0109514Y0175669D01*
X0109514Y0175086D02*
X0119343Y0175086D01*
X0119343Y0174914D01*
X0113928Y0174914D01*
X0109514Y0174914D01*
X0109514Y0175086D01*
X0109514Y0174070D02*
X0109343Y0174070D01*
X0109343Y0172472D02*
X0109514Y0172472D01*
X0109514Y0170873D02*
X0109343Y0170873D01*
X0113080Y0170873D02*
X0115777Y0170873D01*
X0114544Y0172472D02*
X0114313Y0172472D01*
X0119343Y0172472D02*
X0119514Y0172472D01*
X0119514Y0174070D02*
X0119343Y0174070D01*
X0119343Y0175669D02*
X0119514Y0175669D01*
X0119514Y0177268D02*
X0119343Y0177268D01*
X0119343Y0178866D02*
X0119514Y0178866D01*
X0115516Y0178866D02*
X0113341Y0178866D01*
X0119343Y0170873D02*
X0119514Y0170873D01*
X0105777Y0170873D02*
X0103080Y0170873D01*
X0104313Y0172472D02*
X0104544Y0172472D01*
X0106491Y0199647D02*
X0102366Y0199647D01*
X0104258Y0201245D02*
X0104599Y0201245D01*
X0109428Y0205000D02*
X0109774Y0206180D01*
X0109774Y0214105D01*
X0109428Y0215000D01*
X0108189Y0215690D01*
X0097094Y0226785D01*
X0032108Y0226785D01*
X0040159Y0222026D02*
X0097370Y0222026D01*
X0096670Y0220427D02*
X0093637Y0220427D01*
X0099428Y0215000D02*
X0100264Y0214105D01*
X0100264Y0206180D01*
X0099428Y0205000D01*
X0117431Y0222026D02*
X0152836Y0222026D01*
X0154435Y0223624D02*
X0115833Y0223624D01*
X0114234Y0225223D02*
X0221176Y0225223D01*
X0200508Y0194851D02*
X0153162Y0194851D01*
X0154651Y0193253D02*
X0198558Y0193253D01*
X0196960Y0191654D02*
X0155313Y0191654D01*
X0145695Y0194851D02*
X0059629Y0194851D01*
X0059228Y0194851D02*
X0052676Y0194851D01*
X0053928Y0196450D02*
X0051077Y0196450D01*
X0049479Y0198048D02*
X0053928Y0198048D01*
X0054197Y0199647D02*
X0047880Y0199647D01*
X0046282Y0201245D02*
X0054599Y0201245D01*
X0053752Y0202844D02*
X0044236Y0202844D01*
X0042111Y0196450D02*
X0039462Y0196450D01*
X0037860Y0194851D02*
X0043710Y0194851D01*
X0045308Y0193253D02*
X0038651Y0193253D01*
X0039313Y0191654D02*
X0046907Y0191654D01*
X0048505Y0190056D02*
X0039498Y0190056D01*
X0039359Y0188457D02*
X0050104Y0188457D01*
X0051702Y0186859D02*
X0038697Y0186859D01*
X0037591Y0185260D02*
X0053301Y0185260D01*
X0054899Y0183662D02*
X0039351Y0183662D01*
X0059228Y0190056D02*
X0059628Y0190056D01*
X0059628Y0191654D02*
X0059228Y0191654D01*
X0059228Y0193253D02*
X0059628Y0193253D01*
X0053921Y0212435D02*
X0038990Y0212435D01*
X0037979Y0214033D02*
X0053358Y0214033D01*
X0053358Y0215632D02*
X0038645Y0215632D01*
X0039851Y0217230D02*
X0053782Y0217230D01*
X0054673Y0218829D02*
X0040498Y0218829D01*
X0040498Y0220427D02*
X0056670Y0220427D01*
X0122187Y0220427D02*
X0126670Y0220427D01*
X0124673Y0218829D02*
X0124184Y0218829D01*
X0132187Y0220427D02*
X0136670Y0220427D01*
X0134673Y0218829D02*
X0134184Y0218829D01*
X0189318Y0190056D02*
X0190900Y0190056D01*
X0198477Y0180465D02*
X0200380Y0180465D01*
X0059628Y0113327D02*
X0059228Y0113327D01*
X0059228Y0111729D02*
X0059628Y0111729D01*
X0059628Y0110130D02*
X0059228Y0110130D01*
D16*
X0084428Y0140000D03*
M02*
