G75*
%MOIN*%
%OFA0B0*%
%FSLAX25Y25*%
%IPPOS*%
%LPD*%
%AMOC8*
5,1,8,0,0,1.08239X$1,22.5*
%
%ADD10C,0.00000*%
%ADD11C,0.00500*%
%ADD12C,0.00600*%
%ADD13C,0.00512*%
%ADD14C,0.00800*%
%ADD15C,0.00100*%
%ADD16C,0.00300*%
%ADD17R,0.02500X0.02500*%
D10*
X0019428Y0035000D02*
X0019428Y0234961D01*
X0238129Y0234961D01*
X0238129Y0035000D01*
X0019428Y0035000D01*
D11*
X0047428Y0060000D02*
X0047428Y0090000D01*
X0069428Y0090000D01*
X0069428Y0085000D01*
X0064428Y0085000D01*
X0064428Y0065000D01*
X0069428Y0065000D01*
X0069428Y0060000D01*
X0047428Y0060000D01*
X0069428Y0065000D02*
X0069428Y0085000D01*
X0069428Y0110000D02*
X0047428Y0110000D01*
X0047428Y0140000D01*
X0069428Y0140000D01*
X0069428Y0135000D01*
X0064428Y0135000D01*
X0064428Y0115000D01*
X0069428Y0115000D01*
X0069428Y0110000D01*
X0073175Y0110250D02*
X0076678Y0112585D01*
X0073175Y0112585D01*
X0073175Y0113933D02*
X0076678Y0113933D01*
X0076678Y0116268D01*
X0076095Y0117616D02*
X0073759Y0117616D01*
X0073175Y0118200D01*
X0073175Y0119368D01*
X0073759Y0119952D01*
X0076095Y0119952D01*
X0076678Y0119368D01*
X0076678Y0118200D01*
X0076095Y0117616D01*
X0074927Y0115101D02*
X0074927Y0113933D01*
X0073175Y0113933D02*
X0073175Y0116268D01*
X0069428Y0115000D02*
X0069428Y0135000D01*
X0073175Y0134100D02*
X0073759Y0134684D01*
X0076095Y0134684D01*
X0076678Y0134100D01*
X0076678Y0132933D01*
X0076095Y0132349D01*
X0073759Y0132349D01*
X0073175Y0132933D01*
X0073175Y0134100D01*
X0073175Y0136032D02*
X0073175Y0138367D01*
X0074927Y0137200D02*
X0074927Y0136032D01*
X0076678Y0136032D02*
X0073175Y0136032D01*
X0073759Y0131001D02*
X0073175Y0130417D01*
X0073175Y0129250D01*
X0073759Y0128666D01*
X0076095Y0128666D01*
X0076678Y0129250D01*
X0076678Y0130417D01*
X0076095Y0131001D01*
X0073759Y0131001D01*
X0073759Y0127318D02*
X0074927Y0127318D01*
X0075511Y0126734D01*
X0075511Y0124983D01*
X0075511Y0126150D02*
X0076678Y0127318D01*
X0076678Y0124983D02*
X0073175Y0124983D01*
X0073175Y0126734D01*
X0073759Y0127318D01*
X0074927Y0123635D02*
X0074927Y0121299D01*
X0076678Y0110250D02*
X0073175Y0110250D01*
X0069428Y0150000D02*
X0047428Y0150000D01*
X0047428Y0180000D01*
X0069428Y0180000D01*
X0069428Y0175000D01*
X0064428Y0175000D01*
X0064428Y0155000D01*
X0069428Y0155000D01*
X0069428Y0150000D01*
X0073175Y0150250D02*
X0076678Y0152585D01*
X0073175Y0152585D01*
X0073175Y0153933D02*
X0076678Y0153933D01*
X0076678Y0156268D01*
X0076095Y0157616D02*
X0076678Y0158200D01*
X0076678Y0159368D01*
X0076095Y0159952D01*
X0073759Y0159952D01*
X0073175Y0159368D01*
X0073175Y0158200D01*
X0073759Y0157616D01*
X0076095Y0157616D01*
X0074927Y0155101D02*
X0074927Y0153933D01*
X0073175Y0153933D02*
X0073175Y0156268D01*
X0074927Y0161299D02*
X0074927Y0163635D01*
X0074927Y0164983D02*
X0074927Y0166150D01*
X0076678Y0164983D02*
X0073175Y0164983D01*
X0073175Y0167318D01*
X0073175Y0168666D02*
X0076678Y0168666D01*
X0076678Y0171001D01*
X0076095Y0172349D02*
X0073759Y0172349D01*
X0073175Y0172933D01*
X0073175Y0174100D01*
X0073759Y0174684D01*
X0076095Y0174684D01*
X0076678Y0174100D01*
X0076678Y0172933D01*
X0076095Y0172349D01*
X0076095Y0176032D02*
X0073759Y0176032D01*
X0073175Y0176616D01*
X0073175Y0177784D01*
X0073759Y0178367D01*
X0076095Y0178367D01*
X0076678Y0177784D01*
X0076678Y0176616D01*
X0076095Y0176032D01*
X0076678Y0179715D02*
X0073175Y0179715D01*
X0073175Y0181467D01*
X0073759Y0182050D01*
X0074927Y0182050D01*
X0075511Y0181467D01*
X0075511Y0179715D01*
X0075511Y0180883D02*
X0076678Y0182050D01*
X0076678Y0190250D02*
X0073175Y0190250D01*
X0076678Y0192585D01*
X0073175Y0192585D01*
X0073175Y0193933D02*
X0076678Y0193933D01*
X0076678Y0196268D01*
X0076095Y0197616D02*
X0076678Y0198200D01*
X0076678Y0199368D01*
X0076095Y0199952D01*
X0073759Y0199952D01*
X0073175Y0199368D01*
X0073175Y0198200D01*
X0073759Y0197616D01*
X0076095Y0197616D01*
X0074927Y0195101D02*
X0074927Y0193933D01*
X0073175Y0193933D02*
X0073175Y0196268D01*
X0069428Y0195000D02*
X0064428Y0195000D01*
X0064428Y0215000D01*
X0069428Y0215000D01*
X0069428Y0195000D01*
X0069428Y0190000D01*
X0047428Y0190000D01*
X0047428Y0220000D01*
X0069428Y0220000D01*
X0069428Y0215000D01*
X0073175Y0214684D02*
X0073175Y0212349D01*
X0073175Y0213517D02*
X0076678Y0213517D01*
X0076095Y0216032D02*
X0073759Y0216032D01*
X0073175Y0216616D01*
X0073175Y0217784D01*
X0073759Y0218367D01*
X0076095Y0218367D01*
X0076678Y0217784D01*
X0076678Y0216616D01*
X0076095Y0216032D01*
X0076678Y0219715D02*
X0073175Y0219715D01*
X0073175Y0221467D01*
X0073759Y0222050D01*
X0074927Y0222050D01*
X0075511Y0221467D01*
X0075511Y0219715D01*
X0075511Y0220883D02*
X0076678Y0222050D01*
X0076095Y0211001D02*
X0073759Y0211001D01*
X0073175Y0210417D01*
X0073175Y0209250D01*
X0073759Y0208666D01*
X0076095Y0208666D01*
X0076678Y0209250D01*
X0076678Y0210417D01*
X0076095Y0211001D01*
X0076678Y0207318D02*
X0073175Y0207318D01*
X0074343Y0206150D01*
X0073175Y0204983D01*
X0076678Y0204983D01*
X0074927Y0203635D02*
X0074927Y0201299D01*
X0096878Y0219950D02*
X0099881Y0219950D01*
X0101482Y0219950D02*
X0104485Y0224454D01*
X0106086Y0224454D02*
X0109089Y0224454D01*
X0107588Y0224454D02*
X0107588Y0219950D01*
X0110690Y0219950D02*
X0110690Y0224454D01*
X0113693Y0224454D01*
X0115294Y0224454D02*
X0117546Y0224454D01*
X0118297Y0223703D01*
X0118297Y0222202D01*
X0117546Y0221451D01*
X0115294Y0221451D01*
X0115294Y0219950D02*
X0115294Y0224454D01*
X0116795Y0221451D02*
X0118297Y0219950D01*
X0119898Y0219950D02*
X0119898Y0224454D01*
X0122901Y0219950D01*
X0122901Y0224454D01*
X0124502Y0222953D02*
X0124502Y0219950D01*
X0124502Y0222202D02*
X0127505Y0222202D01*
X0127505Y0222953D02*
X0127505Y0219950D01*
X0129106Y0219950D02*
X0129106Y0224454D01*
X0127505Y0222953D02*
X0126003Y0224454D01*
X0124502Y0222953D01*
X0129106Y0219950D02*
X0132109Y0219950D01*
X0133710Y0222202D02*
X0136712Y0222202D01*
X0138314Y0222202D02*
X0140566Y0222202D01*
X0141316Y0221451D01*
X0141316Y0220701D01*
X0140566Y0219950D01*
X0138314Y0219950D01*
X0138314Y0224454D01*
X0140566Y0224454D01*
X0141316Y0223703D01*
X0141316Y0222953D01*
X0140566Y0222202D01*
X0142918Y0223703D02*
X0142918Y0220701D01*
X0143668Y0219950D01*
X0145170Y0219950D01*
X0145920Y0220701D01*
X0145920Y0223703D01*
X0145170Y0224454D01*
X0143668Y0224454D01*
X0142918Y0223703D01*
X0147522Y0224454D02*
X0150524Y0219950D01*
X0147522Y0219950D02*
X0150524Y0224454D01*
X0179428Y0197000D02*
X0209428Y0197000D01*
X0209428Y0175000D01*
X0204428Y0175000D01*
X0204428Y0180000D01*
X0184428Y0180000D01*
X0184428Y0175000D01*
X0179428Y0175000D01*
X0179428Y0197000D01*
X0184428Y0175000D02*
X0204428Y0175000D01*
X0209428Y0162000D02*
X0179428Y0162000D01*
X0179428Y0140000D01*
X0184428Y0140000D01*
X0184428Y0145000D01*
X0204428Y0145000D01*
X0204428Y0140000D01*
X0184428Y0140000D01*
X0179428Y0127000D02*
X0209428Y0127000D01*
X0209428Y0105000D01*
X0204428Y0105000D01*
X0204428Y0110000D01*
X0184428Y0110000D01*
X0184428Y0105000D01*
X0179428Y0105000D01*
X0179428Y0127000D01*
X0184428Y0105000D02*
X0204428Y0105000D01*
X0204428Y0140000D02*
X0209428Y0140000D01*
X0209428Y0162000D01*
X0144478Y0155222D02*
X0144478Y0153720D01*
X0143728Y0152970D01*
X0142227Y0153720D02*
X0142227Y0155222D01*
X0142977Y0155972D01*
X0143728Y0155972D01*
X0144478Y0155222D01*
X0142227Y0153720D02*
X0141476Y0152970D01*
X0140725Y0152970D01*
X0139975Y0153720D01*
X0139975Y0155222D01*
X0140725Y0155972D01*
X0140725Y0151368D02*
X0139975Y0151368D01*
X0140725Y0151368D02*
X0142227Y0149867D01*
X0144478Y0149867D01*
X0142227Y0149867D02*
X0140725Y0148366D01*
X0139975Y0148366D01*
X0141476Y0146764D02*
X0144478Y0146764D01*
X0142227Y0146764D02*
X0142227Y0143762D01*
X0141476Y0143762D02*
X0139975Y0145263D01*
X0141476Y0146764D01*
X0141476Y0143762D02*
X0144478Y0143762D01*
X0144478Y0142160D02*
X0144478Y0139158D01*
X0139975Y0139158D01*
X0139975Y0137556D02*
X0139975Y0134554D01*
X0144478Y0134554D01*
X0144478Y0137556D01*
X0142227Y0136055D02*
X0142227Y0134554D01*
X0142227Y0132953D02*
X0142977Y0132202D01*
X0142977Y0129950D01*
X0142977Y0131451D02*
X0144478Y0132953D01*
X0142227Y0132953D02*
X0140725Y0132953D01*
X0139975Y0132202D01*
X0139975Y0129950D01*
X0144478Y0129950D01*
X0126141Y0069380D02*
X0103110Y0069380D01*
X0103110Y0051663D01*
X0126141Y0051663D01*
X0126141Y0069380D01*
X0076678Y0150250D02*
X0073175Y0150250D01*
X0069428Y0155000D02*
X0069428Y0175000D01*
X0096878Y0219950D02*
X0096878Y0224454D01*
X0099881Y0224454D01*
X0101482Y0224454D02*
X0104485Y0219950D01*
X0110690Y0219950D02*
X0113693Y0219950D01*
X0112192Y0222202D02*
X0110690Y0222202D01*
X0098380Y0222202D02*
X0096878Y0222202D01*
D12*
X0098360Y0195051D02*
X0099494Y0193349D01*
X0100628Y0195051D01*
X0100628Y0193349D02*
X0097226Y0193349D01*
X0097793Y0191935D02*
X0100061Y0189666D01*
X0100628Y0190233D01*
X0100628Y0191368D01*
X0100061Y0191935D01*
X0097793Y0191935D01*
X0097226Y0191368D01*
X0097226Y0190233D01*
X0097793Y0189666D01*
X0100061Y0189666D01*
X0100061Y0188252D02*
X0100628Y0187685D01*
X0100628Y0186550D01*
X0100061Y0185983D01*
X0097793Y0188252D01*
X0100061Y0188252D01*
X0097793Y0188252D02*
X0097226Y0187685D01*
X0097226Y0186550D01*
X0097793Y0185983D01*
X0100061Y0185983D01*
X0100628Y0184569D02*
X0100628Y0182300D01*
X0100628Y0183434D02*
X0097226Y0183434D01*
X0098360Y0182300D01*
X0107226Y0183434D02*
X0108360Y0182300D01*
X0107226Y0183434D02*
X0110628Y0183434D01*
X0110628Y0182300D02*
X0110628Y0184569D01*
X0110061Y0185983D02*
X0107793Y0185983D01*
X0107226Y0186550D01*
X0107226Y0187685D01*
X0107793Y0188252D01*
X0110061Y0185983D01*
X0110628Y0186550D01*
X0110628Y0187685D01*
X0110061Y0188252D01*
X0107793Y0188252D01*
X0107793Y0189666D02*
X0107226Y0190233D01*
X0107226Y0191368D01*
X0107793Y0191935D01*
X0110061Y0189666D01*
X0110628Y0190233D01*
X0110628Y0191368D01*
X0110061Y0191935D01*
X0107793Y0191935D01*
X0107226Y0193349D02*
X0110628Y0193349D01*
X0109494Y0193349D02*
X0108360Y0195051D01*
X0109494Y0193349D02*
X0110628Y0195051D01*
X0110061Y0189666D02*
X0107793Y0189666D01*
X0117226Y0190233D02*
X0117226Y0191368D01*
X0117793Y0191935D01*
X0120061Y0189666D01*
X0120628Y0190233D01*
X0120628Y0191368D01*
X0120061Y0191935D01*
X0117793Y0191935D01*
X0117226Y0193349D02*
X0120628Y0193349D01*
X0119494Y0193349D02*
X0120628Y0195051D01*
X0119494Y0193349D02*
X0118360Y0195051D01*
X0117226Y0190233D02*
X0117793Y0189666D01*
X0120061Y0189666D01*
X0120061Y0188252D02*
X0120628Y0187685D01*
X0120628Y0186550D01*
X0120061Y0185983D01*
X0117793Y0188252D01*
X0120061Y0188252D01*
X0117793Y0188252D02*
X0117226Y0187685D01*
X0117226Y0186550D01*
X0117793Y0185983D01*
X0120061Y0185983D01*
X0120628Y0184569D02*
X0120628Y0182300D01*
X0120628Y0183434D02*
X0117226Y0183434D01*
X0118360Y0182300D01*
X0179728Y0172204D02*
X0181196Y0172204D01*
X0180462Y0172204D02*
X0180462Y0167800D01*
X0179728Y0167800D02*
X0181196Y0167800D01*
X0182798Y0167800D02*
X0182798Y0172204D01*
X0185000Y0172204D01*
X0185734Y0171470D01*
X0185734Y0170002D01*
X0185000Y0169268D01*
X0182798Y0169268D01*
X0184266Y0169268D02*
X0185734Y0167800D01*
X0187402Y0170002D02*
X0190338Y0170002D01*
X0192006Y0169268D02*
X0194207Y0169268D01*
X0194941Y0170002D01*
X0194941Y0171470D01*
X0194207Y0172204D01*
X0192006Y0172204D01*
X0192006Y0167800D01*
X0193474Y0169268D02*
X0194941Y0167800D01*
X0196610Y0167800D02*
X0198077Y0167800D01*
X0197343Y0167800D02*
X0197343Y0172204D01*
X0196610Y0172204D02*
X0198077Y0172204D01*
X0199679Y0171470D02*
X0199679Y0168534D01*
X0200413Y0167800D01*
X0201881Y0167800D01*
X0202615Y0168534D01*
X0202615Y0170002D01*
X0201147Y0170002D01*
X0202615Y0171470D02*
X0201881Y0172204D01*
X0200413Y0172204D01*
X0199679Y0171470D01*
X0204283Y0172204D02*
X0204283Y0167800D01*
X0204283Y0170002D02*
X0207219Y0170002D01*
X0207219Y0172204D02*
X0207219Y0167800D01*
X0210355Y0167800D02*
X0210355Y0172204D01*
X0211822Y0172204D02*
X0208887Y0172204D01*
X0208753Y0137204D02*
X0205817Y0137204D01*
X0207285Y0137204D02*
X0207285Y0132800D01*
X0202681Y0135002D02*
X0201213Y0135002D01*
X0201213Y0137204D02*
X0204149Y0137204D01*
X0201213Y0137204D02*
X0201213Y0132800D01*
X0199545Y0132800D02*
X0196610Y0132800D01*
X0196610Y0137204D01*
X0199545Y0137204D01*
X0198077Y0135002D02*
X0196610Y0135002D01*
X0194941Y0132800D02*
X0192006Y0132800D01*
X0192006Y0137204D01*
X0190338Y0135002D02*
X0187402Y0135002D01*
X0185734Y0135002D02*
X0185000Y0134268D01*
X0182798Y0134268D01*
X0184266Y0134268D02*
X0185734Y0132800D01*
X0185734Y0135002D02*
X0185734Y0136470D01*
X0185000Y0137204D01*
X0182798Y0137204D01*
X0182798Y0132800D01*
X0181196Y0132800D02*
X0179728Y0132800D01*
X0180462Y0132800D02*
X0180462Y0137204D01*
X0179728Y0137204D02*
X0181196Y0137204D01*
X0181196Y0102204D02*
X0179728Y0102204D01*
X0180462Y0102204D02*
X0180462Y0097800D01*
X0179728Y0097800D02*
X0181196Y0097800D01*
X0182798Y0097800D02*
X0182798Y0102204D01*
X0185000Y0102204D01*
X0185734Y0101470D01*
X0185734Y0100002D01*
X0185000Y0099268D01*
X0182798Y0099268D01*
X0184266Y0099268D02*
X0185734Y0097800D01*
X0187402Y0100002D02*
X0190338Y0100002D01*
X0192006Y0100002D02*
X0193474Y0100002D01*
X0194941Y0102204D02*
X0192006Y0102204D01*
X0192006Y0097800D01*
X0196610Y0097800D02*
X0196610Y0102204D01*
X0198811Y0102204D01*
X0199545Y0101470D01*
X0199545Y0100002D01*
X0198811Y0099268D01*
X0196610Y0099268D01*
X0198077Y0099268D02*
X0199545Y0097800D01*
X0201213Y0098534D02*
X0201947Y0097800D01*
X0203415Y0097800D01*
X0204149Y0098534D01*
X0204149Y0101470D01*
X0203415Y0102204D01*
X0201947Y0102204D01*
X0201213Y0101470D01*
X0201213Y0098534D01*
X0205817Y0097800D02*
X0205817Y0102204D01*
X0208753Y0097800D01*
X0208753Y0102204D01*
X0210421Y0102204D02*
X0213357Y0102204D01*
X0211889Y0102204D02*
X0211889Y0097800D01*
X0138060Y0045736D02*
X0138060Y0043534D01*
X0137326Y0042800D01*
X0136592Y0043534D01*
X0135858Y0042800D01*
X0135124Y0043534D01*
X0135124Y0045736D01*
X0133456Y0045002D02*
X0133456Y0042800D01*
X0131254Y0042800D01*
X0130520Y0043534D01*
X0131254Y0044268D01*
X0133456Y0044268D01*
X0133456Y0045002D02*
X0132722Y0045736D01*
X0131254Y0045736D01*
X0128852Y0045002D02*
X0128852Y0042800D01*
X0128852Y0045002D02*
X0128118Y0045736D01*
X0126650Y0045736D01*
X0125916Y0045002D01*
X0124248Y0044268D02*
X0124248Y0043534D01*
X0123514Y0042800D01*
X0122047Y0042800D01*
X0121313Y0043534D01*
X0122047Y0045002D02*
X0123514Y0045002D01*
X0124248Y0044268D01*
X0124248Y0046470D02*
X0123514Y0047204D01*
X0122047Y0047204D01*
X0121313Y0046470D01*
X0121313Y0045736D01*
X0122047Y0045002D01*
X0119644Y0045002D02*
X0116709Y0045002D01*
X0115041Y0045002D02*
X0115041Y0042800D01*
X0112839Y0042800D01*
X0112105Y0043534D01*
X0112839Y0044268D01*
X0115041Y0044268D01*
X0115041Y0045002D02*
X0114307Y0045736D01*
X0112839Y0045736D01*
X0110437Y0045002D02*
X0110437Y0042800D01*
X0110437Y0045002D02*
X0109703Y0045736D01*
X0107501Y0045736D01*
X0107501Y0042800D01*
X0105833Y0042800D02*
X0105833Y0045002D01*
X0105099Y0045736D01*
X0103631Y0045736D01*
X0103631Y0044268D02*
X0105833Y0044268D01*
X0105833Y0042800D02*
X0103631Y0042800D01*
X0102897Y0043534D01*
X0103631Y0044268D01*
X0101229Y0045736D02*
X0099027Y0045736D01*
X0098293Y0045002D01*
X0098293Y0043534D01*
X0099027Y0042800D01*
X0101229Y0042800D01*
X0096692Y0042800D02*
X0095224Y0042800D01*
X0095958Y0042800D02*
X0095958Y0045736D01*
X0095224Y0045736D01*
X0095958Y0047204D02*
X0095958Y0047938D01*
X0096692Y0048832D02*
X0097426Y0048832D01*
X0098160Y0049566D01*
X0098160Y0053236D01*
X0098160Y0050300D02*
X0095958Y0050300D01*
X0095224Y0051034D01*
X0095224Y0053236D01*
X0093556Y0052502D02*
X0092822Y0053236D01*
X0090620Y0053236D01*
X0090620Y0054704D02*
X0090620Y0050300D01*
X0092822Y0050300D01*
X0093556Y0051034D01*
X0093556Y0052502D01*
X0092888Y0047204D02*
X0092888Y0042800D01*
X0092154Y0042800D02*
X0093622Y0042800D01*
X0090553Y0042800D02*
X0089085Y0042800D01*
X0089819Y0042800D02*
X0089819Y0047204D01*
X0089085Y0047204D01*
X0086750Y0047204D02*
X0086750Y0047938D01*
X0086750Y0045736D02*
X0086750Y0042800D01*
X0086016Y0042800D02*
X0087484Y0042800D01*
X0086750Y0045736D02*
X0086016Y0045736D01*
X0084348Y0044268D02*
X0084348Y0047204D01*
X0084348Y0044268D02*
X0082880Y0042800D01*
X0081412Y0044268D01*
X0081412Y0047204D01*
X0082146Y0050300D02*
X0081412Y0051034D01*
X0081412Y0052502D01*
X0082146Y0053236D01*
X0084348Y0053236D01*
X0084348Y0054704D02*
X0084348Y0050300D01*
X0082146Y0050300D01*
X0079744Y0051768D02*
X0076808Y0051768D01*
X0076808Y0052502D02*
X0077542Y0053236D01*
X0079010Y0053236D01*
X0079744Y0052502D01*
X0079744Y0051768D01*
X0079010Y0050300D02*
X0077542Y0050300D01*
X0076808Y0051034D01*
X0076808Y0052502D01*
X0075140Y0052502D02*
X0075140Y0050300D01*
X0075140Y0052502D02*
X0074406Y0053236D01*
X0072204Y0053236D01*
X0072204Y0050300D01*
X0070536Y0050300D02*
X0068334Y0050300D01*
X0067600Y0051034D01*
X0067600Y0052502D01*
X0068334Y0053236D01*
X0070536Y0053236D01*
X0070536Y0049566D01*
X0069802Y0048832D01*
X0069068Y0048832D01*
X0068334Y0045736D02*
X0069802Y0045736D01*
X0070536Y0045002D01*
X0070536Y0042800D01*
X0068334Y0042800D01*
X0067600Y0043534D01*
X0068334Y0044268D01*
X0070536Y0044268D01*
X0072204Y0042800D02*
X0072204Y0045736D01*
X0074406Y0045736D01*
X0075140Y0045002D01*
X0075140Y0042800D01*
X0065932Y0042800D02*
X0065932Y0045002D01*
X0065198Y0045736D01*
X0063730Y0045736D01*
X0062996Y0045002D01*
X0061395Y0045736D02*
X0059927Y0045736D01*
X0060661Y0046470D02*
X0060661Y0043534D01*
X0061395Y0042800D01*
X0062996Y0042800D02*
X0062996Y0047204D01*
X0062129Y0050300D02*
X0059927Y0050300D01*
X0060661Y0051768D02*
X0059927Y0052502D01*
X0060661Y0053236D01*
X0062863Y0053236D01*
X0062129Y0051768D02*
X0060661Y0051768D01*
X0062129Y0051768D02*
X0062863Y0051034D01*
X0062129Y0050300D01*
X0064531Y0050300D02*
X0065999Y0050300D01*
X0065265Y0050300D02*
X0065265Y0053236D01*
X0064531Y0053236D01*
X0065265Y0054704D02*
X0065265Y0055438D01*
X0058259Y0052502D02*
X0058259Y0051768D01*
X0055323Y0051768D01*
X0055323Y0052502D02*
X0056057Y0053236D01*
X0057525Y0053236D01*
X0058259Y0052502D01*
X0057525Y0050300D02*
X0056057Y0050300D01*
X0055323Y0051034D01*
X0055323Y0052502D01*
X0053655Y0051034D02*
X0053655Y0053970D01*
X0052921Y0054704D01*
X0050719Y0054704D01*
X0050719Y0050300D01*
X0052921Y0050300D01*
X0053655Y0051034D01*
X0053655Y0047204D02*
X0053655Y0042800D01*
X0050719Y0047204D01*
X0050719Y0042800D01*
X0055323Y0043534D02*
X0056057Y0044268D01*
X0058259Y0044268D01*
X0058259Y0045002D02*
X0058259Y0042800D01*
X0056057Y0042800D01*
X0055323Y0043534D01*
X0056057Y0045736D02*
X0057525Y0045736D01*
X0058259Y0045002D01*
X0072225Y0065300D02*
X0073693Y0066768D01*
X0072225Y0068236D01*
X0076628Y0068236D01*
X0075895Y0069904D02*
X0074427Y0069904D01*
X0073693Y0070638D01*
X0073693Y0072106D01*
X0074427Y0072840D01*
X0075895Y0072840D01*
X0076628Y0072106D01*
X0076628Y0070638D01*
X0075895Y0069904D01*
X0076628Y0065300D02*
X0072225Y0065300D01*
X0073693Y0074508D02*
X0073693Y0075976D01*
X0072959Y0075242D02*
X0075895Y0075242D01*
X0076628Y0075976D01*
X0075895Y0077577D02*
X0074427Y0077577D01*
X0073693Y0078311D01*
X0073693Y0079779D01*
X0074427Y0080513D01*
X0075895Y0080513D01*
X0076628Y0079779D01*
X0076628Y0078311D01*
X0075895Y0077577D01*
X0076628Y0082181D02*
X0073693Y0082181D01*
X0075161Y0082181D02*
X0073693Y0083649D01*
X0073693Y0084383D01*
X0092154Y0047204D02*
X0092888Y0047204D01*
X0112293Y0077800D02*
X0114561Y0077800D01*
X0113427Y0077800D02*
X0113427Y0081203D01*
X0112293Y0080069D01*
X0115976Y0080636D02*
X0115976Y0078367D01*
X0118245Y0080636D01*
X0118245Y0078367D01*
X0117677Y0077800D01*
X0116543Y0077800D01*
X0115976Y0078367D01*
X0115976Y0080636D02*
X0116543Y0081203D01*
X0117677Y0081203D01*
X0118245Y0080636D01*
X0119659Y0081203D02*
X0119659Y0077800D01*
X0119659Y0078934D02*
X0121361Y0080069D01*
X0119659Y0078934D02*
X0121361Y0077800D01*
X0125916Y0047204D02*
X0125916Y0042800D01*
X0007367Y0127073D02*
X0006633Y0126339D01*
X0007367Y0127073D02*
X0007367Y0128541D01*
X0006633Y0129275D01*
X0005165Y0129275D01*
X0004431Y0128541D01*
X0004431Y0127807D01*
X0005165Y0126339D01*
X0002963Y0126339D01*
X0002963Y0129275D01*
X0003697Y0130943D02*
X0002963Y0131677D01*
X0002963Y0133145D01*
X0003697Y0133879D01*
X0006633Y0130943D01*
X0007367Y0131677D01*
X0007367Y0133145D01*
X0006633Y0133879D01*
X0003697Y0133879D01*
X0003697Y0130943D02*
X0006633Y0130943D01*
X0006633Y0135547D02*
X0006633Y0136281D01*
X0007367Y0136281D01*
X0007367Y0135547D01*
X0006633Y0135547D01*
X0006633Y0137849D02*
X0005899Y0137849D01*
X0005165Y0138583D01*
X0005165Y0140051D01*
X0005899Y0140785D01*
X0006633Y0140785D01*
X0007367Y0140051D01*
X0007367Y0138583D01*
X0006633Y0137849D01*
X0005165Y0138583D02*
X0004431Y0137849D01*
X0003697Y0137849D01*
X0002963Y0138583D01*
X0002963Y0140051D01*
X0003697Y0140785D01*
X0004431Y0140785D01*
X0005165Y0140051D01*
X0006633Y0142453D02*
X0003697Y0142453D01*
X0002963Y0143187D01*
X0002963Y0144655D01*
X0003697Y0145389D01*
X0006633Y0142453D01*
X0007367Y0143187D01*
X0007367Y0144655D01*
X0006633Y0145389D01*
X0003697Y0145389D01*
X0120767Y0257796D02*
X0121501Y0257062D01*
X0122969Y0257062D01*
X0123703Y0257796D01*
X0123703Y0259264D01*
X0122969Y0259998D01*
X0122235Y0259998D01*
X0120767Y0259264D01*
X0120767Y0261466D01*
X0123703Y0261466D01*
X0125371Y0261466D02*
X0125371Y0259264D01*
X0126839Y0259998D01*
X0127573Y0259998D01*
X0128307Y0259264D01*
X0128307Y0257796D01*
X0127573Y0257062D01*
X0126105Y0257062D01*
X0125371Y0257796D01*
X0125371Y0261466D02*
X0128307Y0261466D01*
X0129975Y0257796D02*
X0130709Y0257796D01*
X0130709Y0257062D01*
X0129975Y0257062D01*
X0129975Y0257796D01*
X0132277Y0257796D02*
X0132277Y0258530D01*
X0133011Y0259264D01*
X0134479Y0259264D01*
X0135213Y0258530D01*
X0135213Y0257796D01*
X0134479Y0257062D01*
X0133011Y0257062D01*
X0132277Y0257796D01*
X0133011Y0259264D02*
X0132277Y0259998D01*
X0132277Y0260732D01*
X0133011Y0261466D01*
X0134479Y0261466D01*
X0135213Y0260732D01*
X0135213Y0259998D01*
X0134479Y0259264D01*
X0136881Y0259998D02*
X0136881Y0260732D01*
X0137615Y0261466D01*
X0139083Y0261466D01*
X0139817Y0260732D01*
X0139817Y0259998D01*
X0139083Y0259264D01*
X0137615Y0259264D01*
X0136881Y0259998D01*
X0137615Y0259264D02*
X0136881Y0258530D01*
X0136881Y0257796D01*
X0137615Y0257062D01*
X0139083Y0257062D01*
X0139817Y0257796D01*
X0139817Y0258530D01*
X0139083Y0259264D01*
D13*
X0019428Y0035000D02*
X0001751Y0035000D01*
X0009428Y0035256D02*
X0010452Y0045236D01*
X0010685Y0045236D02*
X0009428Y0035256D01*
X0008405Y0045236D01*
X0008172Y0045236D02*
X0010685Y0045236D01*
X0009940Y0045236D02*
X0009428Y0035256D01*
X0008917Y0045236D01*
X0008172Y0045236D02*
X0009428Y0035256D01*
X0009428Y0234744D01*
X0010452Y0224764D01*
X0010685Y0224764D02*
X0009428Y0234744D01*
X0008405Y0224764D01*
X0008172Y0224764D02*
X0010685Y0224764D01*
X0009940Y0224764D02*
X0009428Y0234744D01*
X0008917Y0224764D01*
X0008172Y0224764D02*
X0009428Y0234744D01*
X0001751Y0235000D02*
X0019428Y0235000D01*
X0019428Y0262677D01*
X0019684Y0255000D02*
X0029665Y0253976D01*
X0029665Y0253743D02*
X0029665Y0256257D01*
X0019684Y0255000D01*
X0029665Y0256024D01*
X0029665Y0255512D02*
X0019684Y0255000D01*
X0029665Y0254488D01*
X0029665Y0253743D02*
X0019684Y0255000D01*
X0239173Y0255000D01*
X0229192Y0253976D01*
X0229192Y0253743D02*
X0229192Y0256257D01*
X0239173Y0255000D01*
X0229192Y0256024D01*
X0229192Y0255512D02*
X0239173Y0255000D01*
X0229192Y0254488D01*
X0229192Y0253743D02*
X0239173Y0255000D01*
X0239428Y0262677D02*
X0239428Y0235000D01*
D14*
X0122428Y0200000D02*
X0122428Y0180000D01*
X0119428Y0180000D01*
X0119428Y0179000D01*
X0119428Y0180000D02*
X0116428Y0180000D01*
X0116428Y0200000D01*
X0119428Y0200000D01*
X0119428Y0201000D01*
X0119428Y0200000D02*
X0122428Y0200000D01*
X0112428Y0200000D02*
X0112428Y0180000D01*
X0109428Y0180000D01*
X0109428Y0179000D01*
X0109428Y0180000D02*
X0106428Y0180000D01*
X0106428Y0200000D01*
X0109428Y0200000D01*
X0109428Y0201000D01*
X0109428Y0200000D02*
X0112428Y0200000D01*
X0102428Y0200000D02*
X0102428Y0180000D01*
X0099428Y0180000D01*
X0099428Y0179000D01*
X0099428Y0180000D02*
X0096428Y0180000D01*
X0096428Y0200000D01*
X0099428Y0200000D01*
X0099428Y0201000D01*
X0099428Y0200000D02*
X0102428Y0200000D01*
X0104428Y0083000D02*
X0124428Y0083000D01*
X0124428Y0080000D01*
X0125428Y0080000D01*
X0124428Y0080000D02*
X0124428Y0077000D01*
X0104428Y0077000D01*
X0104428Y0080000D01*
X0103428Y0080000D01*
X0104428Y0080000D02*
X0104428Y0083000D01*
D15*
X0121532Y0074951D02*
X0121532Y0073450D01*
X0121532Y0073950D02*
X0122283Y0073950D01*
X0122533Y0074201D01*
X0122533Y0074701D01*
X0122283Y0074951D01*
X0121532Y0074951D01*
X0122032Y0073950D02*
X0122533Y0073450D01*
X0123005Y0073450D02*
X0124006Y0073450D01*
X0123506Y0073450D02*
X0123506Y0074951D01*
X0123005Y0074451D01*
X0114378Y0180050D02*
X0112877Y0180050D01*
X0112877Y0180801D01*
X0113127Y0181051D01*
X0113628Y0181051D01*
X0113878Y0180801D01*
X0113878Y0180050D01*
X0113878Y0180550D02*
X0114378Y0181051D01*
X0113628Y0181523D02*
X0113628Y0182524D01*
X0114378Y0182274D02*
X0112877Y0182274D01*
X0113628Y0181523D01*
X0104378Y0181523D02*
X0103378Y0182524D01*
X0103127Y0182524D01*
X0102877Y0182274D01*
X0102877Y0181773D01*
X0103127Y0181523D01*
X0103127Y0181051D02*
X0103628Y0181051D01*
X0103878Y0180801D01*
X0103878Y0180050D01*
X0103878Y0180550D02*
X0104378Y0181051D01*
X0104378Y0181523D02*
X0104378Y0182524D01*
X0103127Y0181051D02*
X0102877Y0180801D01*
X0102877Y0180050D01*
X0104378Y0180050D01*
X0094378Y0180050D02*
X0092877Y0180050D01*
X0092877Y0180801D01*
X0093127Y0181051D01*
X0093628Y0181051D01*
X0093878Y0180801D01*
X0093878Y0180050D01*
X0093878Y0180550D02*
X0094378Y0181051D01*
X0094128Y0181523D02*
X0094378Y0181773D01*
X0094378Y0182274D01*
X0094128Y0182524D01*
X0093878Y0182524D01*
X0093628Y0182274D01*
X0093628Y0182024D01*
X0093628Y0182274D02*
X0093378Y0182524D01*
X0093127Y0182524D01*
X0092877Y0182274D01*
X0092877Y0181773D01*
X0093127Y0181523D01*
D16*
X0103063Y0073613D02*
X0104514Y0073613D01*
X0104998Y0073130D01*
X0104998Y0072162D01*
X0104514Y0071679D01*
X0103063Y0071679D01*
X0104030Y0071679D02*
X0104998Y0070711D01*
X0106009Y0070711D02*
X0107944Y0070711D01*
X0108956Y0071195D02*
X0109439Y0070711D01*
X0110407Y0070711D01*
X0110891Y0071195D01*
X0110891Y0071679D01*
X0110407Y0072162D01*
X0109439Y0072162D01*
X0108956Y0072646D01*
X0108956Y0073130D01*
X0109439Y0073613D01*
X0110407Y0073613D01*
X0110891Y0073130D01*
X0111902Y0073613D02*
X0111902Y0070711D01*
X0113837Y0070711D01*
X0112870Y0072162D02*
X0111902Y0072162D01*
X0111902Y0073613D02*
X0113837Y0073613D01*
X0114849Y0073613D02*
X0116784Y0073613D01*
X0115816Y0073613D02*
X0115816Y0070711D01*
X0117795Y0072162D02*
X0119730Y0072162D01*
X0120742Y0072162D02*
X0122193Y0072162D01*
X0122677Y0071679D01*
X0122677Y0071195D01*
X0122193Y0070711D01*
X0120742Y0070711D01*
X0120742Y0073613D01*
X0122193Y0073613D01*
X0122677Y0073130D01*
X0122677Y0072646D01*
X0122193Y0072162D01*
X0123688Y0071195D02*
X0124172Y0070711D01*
X0125140Y0070711D01*
X0125623Y0071195D01*
X0125623Y0073613D01*
X0126635Y0073613D02*
X0128570Y0073613D01*
X0127602Y0073613D02*
X0127602Y0070711D01*
X0129581Y0073613D02*
X0131516Y0073613D01*
X0130549Y0073613D02*
X0130549Y0070711D01*
X0132528Y0071195D02*
X0133012Y0070711D01*
X0133979Y0070711D01*
X0134463Y0071195D01*
X0134463Y0073130D01*
X0133979Y0073613D01*
X0133012Y0073613D01*
X0132528Y0073130D01*
X0132528Y0071195D01*
X0135474Y0070711D02*
X0135474Y0073613D01*
X0137409Y0070711D01*
X0137409Y0073613D01*
X0123688Y0073613D02*
X0123688Y0071195D01*
X0118991Y0056615D02*
X0118023Y0055648D01*
X0118991Y0056615D02*
X0118991Y0053713D01*
X0119958Y0053713D02*
X0118023Y0053713D01*
X0106009Y0070711D02*
X0106009Y0073613D01*
X0107944Y0073613D01*
X0106977Y0072162D02*
X0106009Y0072162D01*
X0103063Y0070711D02*
X0103063Y0073613D01*
D17*
X0114428Y0053138D03*
M02*
