<svg xmlns="http://www.w3.org/2000/svg" height="3.073521374091959in" width="3.073521374091959in" viewBox="-1.5367606870459796 -1.5367606870459796 3.073521374091959 3.073521374091959" style="stroke-width:0"><path d="M1.460785739228176,-0.0024996604336881027 C1.4558904167118443,-0.0009474497062373819 1.4527707147626543,0.003131888528027706 1.4525550168204833,0.00826287430846601 L1.448123596802869,0.11367673625203162 C1.447907898860698,0.11880772203247 1.4506742219893312,0.12313449878073257 1.4554219984234702,0.1250920890373369 L1.5222353647487896,0.15264039438484875 C1.526293698793076,0.15431371563182555 1.528430691653288,0.1581482091741334 1.527718998963697,0.1624799031529574 L1.4993952070215328,0.3348717245216281 C1.498683514331942,0.3392034185004521 1.4954319739076438,0.34215258178514 1.4910515861073907,0.34243943005512234 L1.4189361684134456,0.34716188472074905 C1.4138116267311978,0.3474974636655904 1.4098063281114368,0.3507116702003138 1.4083689726889546,0.35564193896284374 L1.3788391332871324,0.45693215743497556 C1.3774017778646501,0.4618624261975055 1.3790522512190189,0.4667254991342233 1.3831935838860523,0.469762422646971 L1.4414727342200742,0.5124997094535236 C1.4450126884669687,0.5150956299339101 1.4461699298292057,0.5193301159287064 1.4444422754136927,0.5233656195442612 L1.3756854581403855,0.6839697208095642 C1.3739578037248725,0.688005224425119 1.3700949661853026,0.6900905458280413 1.3657732172092134,0.6893207633923688 L1.2946231851136432,0.6766476430173233 C1.2895672440011001,0.675747087551061 1.2849091221078803,0.6779093643856099 1.2823336430776673,0.682352386830551 L1.2294215512210729,0.7736323425086125 C1.2268460721908598,0.7780753649535536 1.2272847762588341,0.7831921099561954 1.2305789859572858,0.7871318717692934 L1.276936947918689,0.842574404269407 C1.2797527930945725,0.8459420585206701 1.2798630282972623,0.8503304440336675 1.2772198171506888,0.853835228484276 L1.1720258708453006,0.993317883052827 C1.1693826596987271,0.9968226675034354 1.165133019120842,0.9979229557244891 1.1611210733104886,0.9961412795402778 L1.0950714080588437,0.9668090998158397 C1.0903779004358685,0.9647247469487871 1.0853376683820402,0.965709430413094 1.0817737432238468,0.9694069942256757 L1.0085544573635565,1.045371827874797 C1.0049905322053632,1.0490693916873786 1.0041919711011371,1.0541424421350025 1.006447610337298,1.058756077612325 L1.0381902276812214,1.1236817373424988 C1.0401183170996524,1.1276254095404803 1.0391751396735034,1.1319126575567955 1.0357699856200264,1.1346830375095613 L0.9002524000773896,1.2449380204966571 C0.8968472460239126,1.247708400449423 0.8924577760712841,1.2477597107365854 0.8889887931343347,1.245069685347532 L0.8318780611902763,1.20078312594115 C0.82781975665971,1.1976361106856257 0.8226903344117433,1.1973859745559239 0.8183450855014229,1.2001231907674565 L0.7290738443903618,1.2563581023768862 C0.7247285954800414,1.2590953185884188 0.7227391786723412,1.2638298472287965 0.7238251578927205,1.2688492286462845 L0.739107665078855,1.3394847722581715 C0.7400359451911539,1.34377527050939 0.7380941691798637,1.3477122217578275 0.73412496739584,1.3495871927998173 L0.5761595321013112,1.4242068853548044 C0.5721903303172875,1.4260818563967943 0.5679161310284883,1.4250812067826808 0.5651917156439984,1.4216391666865529 L0.520338985159051,1.3649720014558326 C0.5171517376288735,1.3609452168995526 0.512231228563129,1.3594747981784925 0.5073571859730123,1.361092589732138 L0.40722210965679645,1.3943294106447228 C0.4023480670666798,1.3959472021983683 0.39928341222913294,1.4000680554362328 0.39913661826881625,1.4052014745906105 L0.3970708515291567,1.4774418210392424 C0.3969453740693578,1.4818297971806633 0.3941178484366338,1.4851876503648997 0.38981527450228937,1.4860582459943956 L0.2185823663741922,1.5207060228175244 C0.21427979243984777,1.5215766184470203 0.21036926474146053,1.51958216304999 0.20854775002872966,1.5155881471058676 L0.17855969866563653,1.449833665717254 C0.1764287393771283,1.4451611339418629 0.1720031055951844,1.4425558880207578 0.16688353096418507,1.4429602347518513 L0.06170410610212025,1.4512673617470802 C0.05658453147112094,1.4516717084781736 0.05262274520331856,1.4549393973020321 0.05125170919370512,1.4598885185312669 L0.031957723382404095,1.5295353214640244 C0.03078578064437883,1.533765762271953 0.027236830902357415,1.5363493711702199 0.022850934775536447,1.5361649955337218 L-0.1516980119720205,1.5288272537755767 C-0.15608390809884148,1.5286428781390786 -0.15940349855117628,1.5257705274572564 -0.1602162527779808,1.521456653354155 L-0.17359682847612826,1.4504362672581386 C-0.17454765591484098,1.4453895388264604 -0.17822121266410204,1.4418008731285614 -0.18328878826732695,1.4409682758748323 L-0.28739991581391133,1.4238629289269205 C-0.29246749141713624,1.4230303316731914 -0.2970961644978166,1.4252549498861669 -0.2996117629273612,1.429732148253739 L-0.3350126714857357,1.4927377886399986 C-0.33716297044989185,1.4965648362717046 -0.3412270922421118,1.4982240509258709 -0.34544141822060226,1.496995419265194 L-0.5131622532622574,1.4480986018051525 C-0.5173765792407479,1.4468699701444756 -0.5199123099161609,1.443286654758919 -0.5196690693356185,1.4389036291794162 L-0.5156645389456577,1.3667447850672982 C-0.515379975899954,1.3616171574916704 -0.5180879618511006,1.3572536322230706 -0.5228090293523795,1.3552324785105376 L-0.619801299279027,1.3137087582086913 C-0.6245223667803059,1.3116876044961583 -0.6295489250189572,1.312739865373871 -0.633062888431536,1.3164849423846112 L-0.6825133476086388,1.369187761421308 C-0.6855170352391478,1.3723890017791887 -0.689860137095484,1.3730273946645544 -0.6936579716182257,1.3708259105859226 L-0.8448033696617882,1.2832117227220623 C-0.8486012041845299,1.2810102386434306 -0.850205707633172,1.2769242078195266 -0.8489206085036805,1.2727267562786537 L-0.827763700776,1.2036230638835042 C-0.8262602850157517,1.1987125362404545 -0.8278453218684315,1.1938277436289955 -0.8319455099849723,1.1907354955648364 L-0.9161820841161022,1.1272066096004172 C-0.9202822722326429,1.124114361536258 -0.9254145903352305,1.1239331115013078 -0.9297226999500419,1.126728416892153 L-0.9903488288036048,1.1660655183038264 C-0.9940313416933416,1.1684549069343173 -0.998401018320437,1.1680353769768483 -1.001561645049535,1.164988982732843 L-1.127347584951881,1.0437492425991963 C-1.130508211680979,1.040702848355191 -1.131088239994548,1.0363515673523076 -1.128835967606368,1.0325836304765041 L-1.0917562451158702,0.9705511452186273 C-1.089121349700369,0.9661430995257281 -1.089491320874079,0.9610209259624893 -1.0927323415761256,0.9570372937643286 L-1.159317696410726,0.8751953100714834 C-1.1625587171127725,0.8712116778733227 -1.1674985234063913,0.8698074505189237 -1.1723504075519635,0.8714905313010796 L-1.2406288358400295,0.8951757857382293 C-1.2447761597252325,0.8966144600592003 -1.2489184614006483,0.8951613888150955 -1.2512581961990181,0.8914471297659857 L-1.3443744563463118,0.7436278503705961 C-1.3467141911446816,0.7399135913214863 -1.34623603518591,0.7355499407752477 -1.3431474834235655,0.7324304973598423 L-1.2922998848620912,0.6810743218035156 C-1.2886866403354307,0.6774249376538438 -1.2878200444503454,0.6723630652479775 -1.2900135413953258,0.6677195631392584 L-1.3350779781383266,0.5723208403267089 C-1.337271475083307,0.5676773382179898 -1.341731685981637,0.5651317421338211 -1.346845370787311,0.5656047837699785 L-1.4188080044397664,0.572261690337114 C-1.4231791119311366,0.5726660398263989 -1.4268533031381516,0.5702638745146665 -1.428236169123902,0.5660976098956041 L-1.4832711709402164,0.40028951045571254 C-1.4846540369259669,0.39612324583665004 -1.4831454853811523,0.39200082525557944 -1.4794001496466418,0.38971116601316 L-1.4177397526190827,0.35201593440961565 C-1.413358147619543,0.3493373007449787 -1.4113053480785556,0.3446299071215561 -1.4123238431970646,0.3395963985663939 L-1.4332483805875254,0.23618516364375725 C-1.4342668757060344,0.2311516550885951 -1.437988279963872,0.2276126310662032 -1.4430665766562294,0.226848142095905 L-1.514531208978724,0.2160898255802156 C-1.518872067197192,0.2154363509152475 -1.5218646172979964,0.21222469665229005 -1.5222102473265489,0.20784855461917914 L-1.5359655565504122,0.03368779918631294 C-1.5363111865789647,0.02931165715320205 -1.5338599109805298,0.02567004663708218 -1.5296754565730017,0.024343238240245372 L-1.4607857392281762,0.0024996604336882246 C-1.4558904167118445,0.0009474497062375415 -1.4527707147626543,-0.0031318885280275845 -1.4525550168204833,-0.008262874308465952 L-1.4481235968028692,-0.1136767362520312 C-1.4479078988606982,-0.11880772203246956 -1.4506742219893314,-0.12313449878073211 -1.4554219984234704,-0.12509208903733646 L-1.5222353647487896,-0.15264039438484853 C-1.526293698793076,-0.15431371563182533 -1.528430691653288,-0.1581482091741332 -1.527718998963697,-0.16247990315295718 L-1.4993952070215328,-0.334871724521628 C-1.498683514331942,-0.33920341850045205 -1.4954319739076438,-0.34215258178513996 -1.4910515861073907,-0.34243943005512223 L-1.418936168413446,-0.3471618847207486 C-1.413811626731198,-0.34749746366559 -1.409806328111437,-0.3507116702003134 -1.4083689726889548,-0.35564193896284335 L-1.3788391332871328,-0.4569321574349749 C-1.3774017778646506,-0.46186242619750484 -1.379052251219019,-0.46672549913422257 -1.3831935838860525,-0.4697624226469703 L-1.4414727342200742,-0.5124997094535233 C-1.4450126884669687,-0.5150956299339098 -1.4461699298292057,-0.519330115928706 -1.4444422754136927,-0.5233656195442609 L-1.3756854581403855,-0.6839697208095639 C-1.3739578037248725,-0.6880052244251187 -1.3700949661853026,-0.690090545828041 -1.3657732172092134,-0.6893207633923685 L-1.294623185113643,-0.6766476430173233 C-1.2895672440011,-0.675747087551061 -1.2849091221078803,-0.6779093643856098 -1.2823336430776673,-0.6823523868305509 L-1.229421551221073,-0.7736323425086125 C-1.22684607219086,-0.7780753649535536 -1.2272847762588344,-0.7831921099561953 -1.2305789859572858,-0.7871318717692933 L-1.276936947918689,-0.842574404269407 C-1.2797527930945725,-0.8459420585206701 -1.2798630282972623,-0.8503304440336675 -1.2772198171506888,-0.853835228484276 L-1.1720258708453004,-0.9933178830528272 C-1.169382659698727,-0.9968226675034356 -1.1651330191208418,-0.9979229557244893 -1.1611210733104884,-0.9961412795402779 L-1.095071408058844,-0.9668090998158395 C-1.0903779004358687,-0.9647247469487868 -1.0853376683820404,-0.9657094304130937 -1.081773743223847,-0.9694069942256753 L-1.008554457363557,-1.0453718278747965 C-1.0049905322053636,-1.0490693916873781 -1.0041919711011376,-1.054142442135002 -1.0064476103372983,-1.0587560776123246 L-1.0381902276812218,-1.1236817373424985 C-1.0401183170996526,-1.12762540954048 -1.0391751396735038,-1.1319126575567953 -1.0357699856200269,-1.1346830375095611 L-0.9002524000773902,-1.2449380204966567 C-0.8968472460239132,-1.2477084004494225 -0.8924577760712847,-1.2477597107365848 -0.8889887931343353,-1.2450696853475316 L-0.8318780611902763,-1.2007831259411499 C-0.82781975665971,-1.1976361106856257 -0.8226903344117434,-1.1973859745559239 -0.818345085501423,-1.2001231907674565 L-0.7290738443903615,-1.2563581023768866 C-0.7247285954800411,-1.2590953185884193 -0.7227391786723408,-1.263829847228797 -0.7238251578927202,-1.268849228646285 L-0.7391076650788547,-1.3394847722581718 C-0.7400359451911537,-1.3437752705093902 -0.7380941691798635,-1.3477122217578277 -0.7341249673958398,-1.3495871927998175 L-0.5761595321013111,-1.4242068853548044 C-0.5721903303172874,-1.4260818563967943 -0.567916131028488,-1.4250812067826808 -0.5651917156439982,-1.4216391666865529 L-0.5203389851590511,-1.3649720014558326 C-0.5171517376288736,-1.3609452168995526 -0.5122312285631291,-1.3594747981784925 -0.5073571859730124,-1.361092589732138 L-0.4072221096567964,-1.3943294106447228 C-0.40234806706667975,-1.3959472021983683 -0.3992834122291329,-1.4000680554362328 -0.3991366182688162,-1.4052014745906105 L-0.3970708515291569,-1.4774418210392424 C-0.396945374069358,-1.4818297971806633 -0.39411784843663394,-1.4851876503648997 -0.38981527450228953,-1.4860582459943956 L-0.21858236637419243,-1.5207060228175244 C-0.214279792439848,-1.5215766184470203 -0.21036926474146075,-1.51958216304999 -0.20854775002872988,-1.5155881471058676 L-0.17855969866563703,-1.449833665717254 C-0.1764287393771288,-1.4451611339418629 -0.17200310559518486,-1.4425558880207578 -0.16688353096418554,-1.4429602347518513 L-0.061704106102120466,-1.4512673617470802 C-0.056584531471121136,-1.4516717084781736 -0.052622745203318756,-1.4549393973020321 -0.05125170919370533,-1.4598885185312669 L-0.03195772338240461,-1.5295353214640244 C-0.030785780644379354,-1.533765762271953 -0.02723683090235793,-1.5363493711702199 -0.02285093477553695,-1.5361649955337218 L0.15169801197201999,-1.5288272537755767 C0.15608390809884098,-1.5286428781390786 0.15940349855117575,-1.5257705274572564 0.16021625277798027,-1.521456653354155 L0.17359682847612748,-1.4504362672581388 C0.17454765591484017,-1.4453895388264606 0.17822121266410124,-1.4418008731285616 0.18328878826732617,-1.4409682758748326 L0.2873999158139108,-1.4238629289269207 C0.2924674914171357,-1.4230303316731916 0.29709616449781606,-1.425254949886167 0.29961176292736064,-1.4297321482537393 L0.3350126714857349,-1.4927377886399988 C0.337162970449891,-1.4965648362717048 0.34122709224211095,-1.498224050925871 0.3454414182206014,-1.4969954192651942 L0.5131622532622567,-1.4480986018051527 C0.5173765792407471,-1.4468699701444758 0.5199123099161601,-1.4432866547589192 0.5196690693356179,-1.4389036291794166 L0.5156645389456578,-1.366744785067298 C0.5153799758999541,-1.3616171574916704 0.5180879618511007,-1.3572536322230706 0.5228090293523796,-1.3552324785105376 L0.6198012992790275,-1.313708758208691 C0.6245223667803065,-1.311687604496158 0.6295489250189577,-1.3127398653738709 0.6330628884315365,-1.3164849423846112 L0.6825133476086387,-1.369187761421308 C0.6855170352391476,-1.3723890017791887 0.689860137095484,-1.3730273946645544 0.6936579716182257,-1.3708259105859226 L0.844803369661788,-1.2832117227220623 C0.8486012041845298,-1.2810102386434306 0.8502057076331719,-1.2769242078195266 0.8489206085036803,-1.2727267562786537 L0.8277637007759999,-1.2036230638835044 C0.8262602850157515,-1.1987125362404547 0.8278453218684314,-1.1938277436289957 0.8319455099849722,-1.1907354955648366 L0.9161820841161027,-1.127206609600417 C0.9202822722326435,-1.1241143615362579 0.925414590335231,-1.1239331115013076 0.9297226999500423,-1.1267284168921528 L0.9903488288036045,-1.1660655183038264 C0.9940313416933414,-1.1684549069343173 0.9984010183204368,-1.1680353769768483 1.0015616450495348,-1.164988982732843 L1.1273475849518808,-1.0437492425991965 C1.1305082116809788,-1.0407028483551912 1.1310882399945479,-1.0363515673523078 1.1288359676063677,-1.0325836304765044 L1.0917562451158702,-0.9705511452186273 C1.089121349700369,-0.9661430995257281 1.089491320874079,-0.9610209259624893 1.0927323415761256,-0.9570372937643286 L1.1593176964107261,-0.8751953100714831 C1.1625587171127727,-0.8712116778733223 1.1674985234063915,-0.8698074505189234 1.1723504075519637,-0.8714905313010793 L1.2406288358400295,-0.8951757857382293 C1.2447761597252325,-0.8966144600592004 1.2489184614006483,-0.8951613888150955 1.2512581961990181,-0.8914471297659857 L1.3443744563463118,-0.7436278503705963 C1.3467141911446816,-0.7399135913214865 1.34623603518591,-0.7355499407752478 1.3431474834235655,-0.7324304973598424 L1.292299884862091,-0.6810743218035162 C1.2886866403354305,-0.6774249376538445 1.2878200444503451,-0.6723630652479782 1.2900135413953255,-0.6677195631392591 L1.3350779781383266,-0.5723208403267092 C1.337271475083307,-0.56767733821799 1.341731685981637,-0.5651317421338212 1.346845370787311,-0.5656047837699787 L1.4188080044397657,-0.5722616903371149 C1.4231791119311359,-0.5726660398263997 1.4268533031381512,-0.5702638745146674 1.4282361691239016,-0.566097609895605 L1.4832711709402162,-0.4002895104557134 C1.4846540369259666,-0.39612324583665093 1.483145485381152,-0.39200082525558033 1.4794001496466416,-0.3897111660131609 L1.4177397526190825,-0.3520159344096165 C1.4133581476195427,-0.34933730074497954 1.4113053480785553,-0.34462990712155694 1.4123238431970644,-0.33959639856639473 L1.4332483805875251,-0.2361851636437575 C1.4342668757060342,-0.23115165508859528 1.4379882799638715,-0.22761263106620336 1.4430665766562292,-0.22684814209590523 L1.5145312089787237,-0.2160898255802164 C1.5188720671971918,-0.21543635091524832 1.5218646172979964,-0.21222469665229085 1.5222102473265489,-0.20784855461917992 L1.5359655565504122,-0.03368779918631375 C1.5363111865789647,-0.029311657153202896 1.53385991098053,-0.025670046637083034 1.529675456573002,-0.024343238240246194  Z" style="stroke:black;fill:#00AA00;opacity:1.0"></path><circle cx="0" cy="0" r="0.195"></circle></svg>