<svg xmlns="http://www.w3.org/2000/svg" height="9.51929656931372in" width="9.51929656931372in" viewBox="-4.75964828465686 -4.75964828465686 9.51929656931372 9.51929656931372" style="stroke-width:0"><path d="M4.683597645169377,-0.0027268999251056918 C4.678749324805846,-0.0010335806008531193 4.675749061332301,0.0031343877016446805 4.675682037780311,0.008269467888437765 L4.67430506817667,0.11376744762236587 C4.674238044624681,0.11890252780915908 4.677128503138971,0.12314738237186032 4.681930976692787,0.12496666477055951 L4.750992843189214,0.15112881573928957 C4.754810315758972,0.15257495814400093 4.757041241670829,0.15599364126054838 4.756827752817934,0.16007026329174653 L4.747527343897808,0.33766385372412716 C4.747313855044912,0.34174047575532535 4.744738045268703,0.3449074346550183 4.740790402439969,0.34594692528619364 L4.669373626803276,0.36475234219036007 C4.6644073958904215,0.3660600467447311 4.661089366203842,0.3699797686328618 4.660619655515149,0.37509376047390397 L4.650969654558216,0.48015848935453637 C4.650499943869524,0.48527248119557853 4.65304844461437,0.48973103304958154 4.657693374493089,0.4919215049400896 L4.72448968759604,0.5234215383231464 C4.7281819291465155,0.5251627381992388 4.730137751072415,0.5287459190863458 4.729605072256213,0.5327932241099795 L4.706399500880548,0.7091096510981493 C4.705866822064346,0.713156956121783 4.703050475918566,0.7161120566382989 4.699033444860274,0.7168386143801718 L4.62636136730364,0.7299827648237602 C4.621307844306479,0.7308967921748162 4.617692505163239,0.7345441012596996 4.616823003260434,0.7396054752947158 L4.598959466415059,0.843589194330936 C4.598089964512254,0.8486505683659522 4.600280795133103,0.8532953290564583 4.604739543799426,0.8558434854511645 L4.668858482026591,0.8924871930679175 C4.67240272866083,0.894512715339147 4.674071388308223,0.8982383024951159 4.67322280367075,0.902231337529849 L4.636255139903711,1.0761835516702642 C4.635406555266238,1.0801765867049973 4.632367036461408,1.0829016096609814 4.62830538350583,1.0833107550434682 L4.554826051553308,1.0907126009681198 C4.549716393121584,1.0912273158332966 4.545826034289725,1.094579725241571 4.544562101941176,1.0995572764165578 L4.518595163852243,1.201818891402412 C4.517331231503695,1.2067964425773987 4.519150884801243,1.2115987756102111 4.5233959625869575,1.214488906277594 L4.5844422113624566,1.2560503674853167 C4.587816611621378,1.2583477241333267 4.589187821148652,1.262192748074458 4.588028562496381,1.2661068947314822 L4.537526724278089,1.4366224227789863 C4.536367465625817,1.4405365694360106 4.5331235138061095,1.4430147141587768 4.529042280394354,1.4431039246645398 L4.45520871856179,1.4447178312287663 C4.45007442743887,1.44483006021976 4.4459330342742645,1.447866901232634 4.444282464043202,1.4527299412893937 L4.410372219518911,1.5526389753630567 C4.408721649287849,1.5575020154198165 4.410158906494421,1.56243231281485 4.414164141083347,1.5656465991382793 L4.471761329983541,1.6118695737080377 C4.474945079567445,1.6144246007651446 4.476010385011892,1.6183653556402406 4.474547599559906,1.6221764819038298 L4.410822947516542,1.7882040389258427 C4.409360162064556,1.7920151651894318 4.405931777271663,1.794231153092698 4.401856125564862,1.7939998787093037 L4.3281235423131035,1.7898158956424577 C4.322996273111085,1.7895249468302188 4.318629378679747,1.7922274963129963 4.316602346880515,1.7969460429924542 L4.274957863854657,1.8938865237357363 C4.272930832055425,1.8986050704151942 4.273976832002406,1.9036329352495185 4.277717529791428,1.9071515600849516 L4.331510552993738,1.9577510680078243 C4.334484023027737,1.9605480128825885 4.335236856427041,1.9645602026274103 4.3334795627340785,1.9682448116368212 L4.256924980536085,2.128760782534537 C4.255167686843122,2.132445391543948 4.251576006209346,2.1343855603253994 4.247531063955564,2.133835226936328 L4.17435404517893,2.1238791498853327 C4.169265409217433,2.123186817066039 4.16469993687567,2.1255384129024697 4.162308940833368,2.1300833747952708 L4.113186971391996,2.223457631908409 C4.110795975349694,2.22800259380121 4.11144426909958,2.2330970276161866 4.114897367442919,2.2368982974714515 L4.164554573071307,2.2915623759550505 C4.167299431123862,2.2945839945522404 4.167735151009775,2.2986428826828225 4.165694183375811,2.3021782575982552 L4.076781655479423,2.4561930080341132 C4.074740687845459,2.459728382949546 4.071007855276262,2.4613807708234736 4.067018560889572,2.460514771417073 L3.9948482672426495,2.4448479829076786 C3.9898296376545193,2.443758534543385 3.9850937350574935,2.4457446783631522 3.9823535160578087,2.4500880342678744 L3.9260569134772387,2.539320384405675 C3.923316694477554,2.543663740310397 3.923563285083798,2.5487933342274856 3.9267074944818963,2.552853813009874 L3.9719227293509674,2.6112454398326967 C3.9744220524594267,2.6144731028688706 3.9745379724739593,2.618553664990171 3.9722259141431486,2.6219180090496406 L3.8715036158492615,2.7684819868721013 C3.869191557518451,2.771846330931571 3.8653405871679145,2.7732007503772573 3.8614315359747864,2.7720244241278422 L3.790712921316966,2.750743515120946 C3.7857952396224777,2.749263668023097 3.780918105184546,2.7508721145890918 3.7778455575888272,2.75498708627227 L3.71472140914449,2.8395273823233653 C3.7116488615487704,2.8436423540065436 3.711492228698285,2.848775482373482 3.7143081640546476,2.853070135881054 L3.754802661205843,2.9148293072465514 C3.7570410402121337,2.918243115105784 3.7568364456698493,2.9223201931954006 3.7542675512506385,2.9254927640990225 L3.6423564690217978,3.0637023536473427 C3.639787574602587,3.0668749245509646 3.6358422089835005,3.0679230251221368 3.632037501584431,3.066443624472203 L3.563206569691403,3.039679798848452 C3.5584201550334984,3.0378186767665043 3.5534318579102835,3.0390395094707854 3.550045924996183,3.0429007267636257 L3.4804834120541472,3.12222774969036 C3.477097479140047,3.1260889669832004 3.4765385885264406,3.131193982356668 3.479008888663202,3.135696332622433 L3.514532986055797,3.2004422827021286 C3.5164966206090083,3.204021188123762 3.515972772903295,3.2080696456395055 3.513162880484023,3.211030883432672 L3.3907529833563803,3.3400339766279346 C3.3879430909371084,3.342995214421101 3.3839276545404804,3.3437305342292087 3.380250748221778,3.3419571801757137 L3.3137318646772718,3.309875445819953 C3.309106226893961,3.307644523190428 3.3040375215960043,3.308470215193405 3.300359078765875,3.3120538724073123 L3.2247870773503102,3.3856785447344304 C3.221108634520181,3.3892622019483376 3.2201509318899375,3.3943076302109674 3.2222603665852962,3.398989918748353 L3.2525950463459052,3.4663234672297927 C3.2542718299860423,3.470045405071795 3.253431958812202,3.4740402819268326 3.2503983923140174,3.4767719295938373 L3.1182443780087863,3.595773179468612 C3.1152108115106016,3.5985048271356166 3.1111500608370855,3.598922832689524 3.107623624948901,3.5968664585499073 L3.043826900789741,3.5596646100227 C3.039390558476139,3.5570776412254665 3.0342726952571173,3.55750310186137 3.0303244213342135,3.5607871045579333 L2.949208857964088,3.628255505697851 C2.945260584041184,3.631539508394414 2.9439099739494865,3.6364942428031917 2.9456455378370876,3.641327601746346 L2.970603776577682,3.7108336149124646 C2.9719833713760155,3.7146756381903705 2.9708326548191217,3.718592304640459 2.967594117188249,3.72107752066507 L2.8265107591492895,3.829343244941946 C2.8232722215184167,3.8318284609665567 2.8191911924462514,3.831926575123024 2.815836968638494,3.8295998591276703 L2.7551557318836863,3.787507258196057 C2.7509360365653897,3.784580192754004 2.745800568753911,3.7846027989165334 2.7416068061599015,3.787566900127087 L2.655447785257054,3.848463064951256 C2.6512540226630446,3.85142716616181 2.6495188320702323,3.8562606591314883 2.650869824821575,3.8612152892152722 L2.6702977467008617,3.9324652393818047 C2.671371646996699,3.9364036607445034 2.669917179606976,3.940217969238555 2.6664936375048325,3.9424414314375618 L2.5173507615494324,4.039304135924367 C2.513927219447289,4.041527598123374 2.5098510728777836,4.041305215975999 2.506689741055621,4.038722503102732 L2.449498111708317,3.9919986646486656 C2.4455210792101543,3.988749548893591 2.440399668672993,3.9883691612082384 2.4359862733488375,3.990995086263155 L2.345314993927916,4.044943569665404 C2.3409015986037605,4.047569494720321 2.3387925255368476,4.052251946159443 2.3397506178323693,4.0572973004418085 L2.3535284432515233,4.1298519079729665 C2.354290028092432,4.133862445743099 2.352540777144997,4.137550879800861 2.348953337847086,4.139498879790431 L2.19267045940055,4.2243613737038865 C2.189083020102639,4.226309373693456 2.185036886834852,4.225767866302128 2.182087937660217,4.222945079834649 L2.1287385211334886,4.171878071859453 C2.1250286711833084,4.168326937670428 2.1199528931194673,4.167545901353765 2.115347075114942,4.169817460551872 L2.020722555764837,4.216485652192336 C2.0161167377603118,4.218757211390444 2.013646785356093,4.223259752428815 2.014206070238194,4.2283647246228595 L2.022248854321914,4.301776666236359 C2.0226934282840974,4.305834594114933 2.0206601784927263,4.309374413313911 2.016930959755264,4.311034941026333 L1.8544716147325455,4.383374018871818 C1.8507423959950833,4.385034546584239 1.8467512217860853,4.384177252522095 1.8440328365112648,4.381131795877649 L1.7948545496984811,4.326036463466993 C1.7914347547548768,4.322205204767164 1.7864359030239871,4.321028335167803 1.7816660587386801,4.322931523591276 L1.68367169108703,4.362031698549742 C1.6789018468017227,4.363934886973214 1.6760862431381134,4.368229757948085 1.676243272429514,4.373362874202658 L1.6785014287394269,4.447179540866502 C1.6786262508765721,4.451259840378748 1.6763215379023535,4.4546292205564715 1.6724735315989474,4.455992038286216 L1.5048393358853256,4.51536170559363 C1.5009913295819195,4.516724523323375 1.4970797213479092,4.515556728093386 1.4946086597220776,4.512307377524903 L1.449904703114879,4.453523401724156 C1.446796047350875,4.44943563949743 1.4419049415361451,4.447870192407801 1.4370004786462092,4.449393276267133 L1.3362404305560203,4.480684368962856 C1.3313359676660843,4.4822074528221885 1.3281920718759535,4.486268174425809 1.3279458774388548,4.491397787372266 L1.324405483690397,4.565164074789941 C1.324209784432521,4.569241589532529 1.3216478175973354,4.572419757339769 1.3177047479664379,4.57347646286235 L1.1459292221225141,4.619510685890325 C1.1419861524916166,4.620567391412906 1.1381782265980989,4.619096294860998 1.1359697235378903,4.61566308369525 L1.0960157118943348,4.553552887262878 C1.093237361206449,4.5492338239227035 1.0884841566016838,4.547289450844676 1.083475312751735,4.548423039821399 L0.9805708034255994,4.571712130262565 C0.9755619595756505,4.572845719239288 0.9721091548219958,4.576647255772645 0.9714612545269707,4.581741739641402 L0.9621441384249018,4.655002854121197 C0.9616291243230061,4.659052444859829 0.9588256990043328,4.662019805835205 0.954811876381422,4.662763884209685 L0.7799540736451825,4.69517884666532 C0.7759402510222717,4.695922925039801 0.7722594845986438,4.694157596965404 0.7703271562598265,4.690561692090888 L0.7353694193477535,4.625508205041635 C0.7329385031918721,4.620984469049738 0.7283525048840611,4.618673157689909 0.7232701612620438,4.619410262831024 L0.6188556312191792,4.634553766030654 C0.6137732875971619,4.635290871171769 0.6100328615694637,4.6388097848979974 0.6089872499372796,4.643837730501915 L0.5939508546006241,4.71614199291127 C0.5931197008879064,4.720138692572415 0.5900921011350687,4.722876951948766 0.5860322720713463,4.723303815684536 L0.40917024894278003,4.741899668545225 C0.40511041987905766,4.742326532280995 0.4015795060743002,4.740277856518719 0.3999352659036474,4.736541427884746 L0.3701893297957469,4.668945726598748 C0.3681208355783328,4.664245208291812 0.3637303177720428,4.661581208653305 0.3586058087164375,4.661917285460504 L0.2533250082559126,4.668821836685648 C0.24820049920030732,4.669157913492847 0.24419551286884433,4.672372509138665 0.24275863644291484,4.677302917521135 L0.22209566624903232,4.7482045480386885 C0.22095349726451816,4.7521237156398985 0.21772038923677128,4.754615991137607 0.21363958392844534,4.754723008477789 L0.03586375359273054,4.759385102126896 C0.03178294828440464,4.759492119467079 0.028423656356272062,4.757172726784253 0.027077641641201085,4.7533188107158395 L0.0027268999251058622,4.683597645169377 C0.0010335806008533674,4.678749324805846 -0.0031343877016444914,4.675749061332301 -0.008269467888437689,4.675682037780311 L-0.11376744762236506,4.67430506817667 C-0.11890252780915828,4.674238044624681 -0.12314738237185957,4.677128503138971 -0.12496666477055873,4.681930976692787 L-0.15112881573928827,4.750992843189214 C-0.15257495814399963,4.754810315758972 -0.1559936412605471,4.757041241670829 -0.16007026329174526,4.756827752817934 L-0.3376638537241264,4.747527343897808 C-0.3417404757553245,4.747313855044912 -0.3449074346550174,4.744738045268703 -0.3459469252861928,4.740790402439969 L-0.36475234219035974,4.669373626803276 C-0.36606004674473075,4.6644073958904215 -0.3699797686328614,4.661089366203842 -0.3750937604739036,4.660619655515149 L-0.48015848935453553,4.650969654558216 C-0.4852724811955777,4.650499943869524 -0.48973103304958077,4.65304844461437 -0.49192150494008885,4.657693374493089 L-0.5234215383231452,4.72448968759604 C-0.5251627381992375,4.7281819291465155 -0.5287459190863446,4.730137751072415 -0.5327932241099783,4.729605072256213 L-0.7091096510981486,4.706399500880548 C-0.7131569561217823,4.705866822064346 -0.7161120566382981,4.703050475918566 -0.716838614380171,4.699033444860274 L-0.7299827648237598,4.62636136730364 C-0.7308967921748157,4.621307844306479 -0.7345441012596992,4.617692505163239 -0.7396054752947153,4.616823003260434 L-0.8435891943309352,4.598959466415059 C-0.8486505683659514,4.598089964512254 -0.8532953290564576,4.600280795133103 -0.8558434854511637,4.604739543799426 L-0.8924871930679161,4.668858482026591 C-0.8945127153391457,4.67240272866083 -0.8982383024951146,4.674071388308223 -0.9022313375298476,4.67322280367075 L-1.0761835516702636,4.636255139903711 C-1.0801765867049966,4.635406555266238 -1.0829016096609805,4.632367036461408 -1.0833107550434673,4.62830538350583 L-1.0907126009681196,4.5548260515533086 C-1.0912273158332964,4.549716393121585 -1.0945797252415708,4.545826034289726 -1.0995572764165573,4.544562101941177 L-1.2018188914024113,4.518595163852243 C-1.206796442577398,4.517331231503695 -1.2115987756102105,4.519150884801244 -1.2144889062775934,4.523395962586958 L-1.2560503674853154,4.584442211362457 C-1.2583477241333254,4.5878166116213785 -1.2621927480744568,4.589187821148653 -1.266106894731481,4.5880285624963815 L-1.4366224227789854,4.537526724278089 C-1.4405365694360097,4.536367465625817 -1.443014714158776,4.533123513806109 -1.443103924664539,4.529042280394354 L-1.4447178312287656,4.45520871856179 C-1.4448300602197592,4.45007442743887 -1.4478669012326335,4.4459330342742645 -1.4527299412893933,4.444282464043202 L-1.5526389753630558,4.410372219518911 C-1.5575020154198156,4.408721649287849 -1.5624323128148494,4.410158906494421 -1.5656465991382786,4.414164141083347 L-1.6118695737080364,4.471761329983541 C-1.6144246007651433,4.474945079567445 -1.6183653556402395,4.476010385011893 -1.6221764819038287,4.474547599559907 L-1.788204038925842,4.410822947516542 C-1.7920151651894312,4.409360162064556 -1.7942311530926973,4.405931777271664 -1.793999878709303,4.401856125564863 L-1.7898158956424575,4.3281235423131035 C-1.7895249468302186,4.322996273111085 -1.7922274963129963,4.318629378679747 -1.796946042992454,4.316602346880515 L-1.8938865237357356,4.274957863854657 C-1.8986050704151936,4.272930832055425 -1.9036329352495178,4.273976832002406 -1.907151560084951,4.277717529791428 L-1.9577510680078232,4.3315105529937385 C-1.9605480128825874,4.334484023027738 -1.9645602026274092,4.335236856427042 -1.96824481163682,4.333479562734079 L-2.1287607825345356,4.256924980536086 C-2.1324453915439463,4.255167686843123 -2.134385560325398,4.251576006209347 -2.1338352269363265,4.247531063955565 L-2.123879149885332,4.17435404517893 C-2.1231868170660384,4.169265409217433 -2.1255384129024693,4.16469993687567 -2.1300833747952703,4.162308940833368 L-2.223457631908408,4.113186971391996 C-2.228002593801209,4.110795975349694 -2.2330970276161857,4.11144426909958 -2.2368982974714506,4.114897367442919 L-2.2915623759550496,4.164554573071308 C-2.2945839945522395,4.167299431123863 -2.2986428826828216,4.167735151009776 -2.3021782575982543,4.165694183375812 L-2.4561930080341114,4.076781655479423 C-2.459728382949544,4.074740687845459 -2.461380770823472,4.071007855276262 -2.4605147714170714,4.067018560889572 L-2.444847982907678,3.9948482672426495 C-2.4437585345433845,3.9898296376545193 -2.4457446783631522,3.9850937350574935 -2.4500880342678744,3.9823535160578087 L-2.539320384405674,3.926056913477239 C-2.543663740310396,3.9233166944775544 -2.5487933342274847,3.9235632850837985 -2.552853813009873,3.9267074944818967 L-2.611245439832696,3.971922729350968 C-2.6144731028688697,3.974422052459427 -2.61855366499017,3.97453797247396 -2.6219180090496397,3.972225914143149 L-2.7684819868721,3.871503615849262 C-2.7718463309315697,3.8691915575184512 -2.773200750377256,3.8653405871679154 -2.772024424127841,3.8614315359747873 L-2.750743515120945,3.790712921316966 C-2.749263668023096,3.7857952396224777 -2.750872114589091,3.780918105184546 -2.754987086272269,3.7778455575888272 L-2.839527382323364,3.7147214091444902 C-2.8436423540065423,3.711648861548771 -2.8487754823734805,3.7114922286982854 -2.853070135881053,3.714308164054648 L-2.9148293072465505,3.754802661205844 C-2.918243115105783,3.7570410402121346 -2.9223201931953997,3.75683644566985 -2.9254927640990216,3.7542675512506394 L-3.063702353647342,3.6423564690217987 C-3.0668749245509637,3.639787574602588 -3.067923025122136,3.6358422089835014 -3.066443624472202,3.6320375015844317 L-3.0396797988484514,3.5632065696914035 C-3.0378186767665043,3.558420155033499 -3.039039509470785,3.553431857910284 -3.042900726763625,3.5500459249961835 L-3.122227749690359,3.4804834120541477 C-3.1260889669831995,3.4770974791400473 -3.1311939823566672,3.476538588526441 -3.135696332622432,3.4790088886632025 L-3.200442282702128,3.514532986055798 C-3.2040211881237615,3.516496620609009 -3.208069645639505,3.5159727729032957 -3.2110308834326715,3.513162880484024 L-3.340033976627933,3.390752983356381 C-3.3429952144210997,3.3879430909371093 -3.3437305342292074,3.3839276545404813 -3.3419571801757124,3.380250748221779 L-3.309875445819953,3.3137318646772718 C-3.3076445231904286,3.309106226893961 -3.308470215193405,3.304037521596004 -3.3120538724073123,3.300359078765875 L-3.38567854473443,3.2247870773503107 C-3.389262201948337,3.2211086345201814 -3.394307630210967,3.220150931889938 -3.3989899187483528,3.2222603665852967 L-3.466323467229792,3.2525950463459066 C-3.470045405071794,3.2542718299860436 -3.4740402819268317,3.2534319588122034 -3.4767719295938364,3.2503983923140187 L-3.59577317946861,3.118244378008787 C-3.598504827135615,3.1152108115106025 -3.5989228326895226,3.1111500608370863 -3.596866458549906,3.1076236249489018 L-3.5596646100226996,3.043826900789741 C-3.557077641225466,3.039390558476139 -3.5575031018613696,3.0342726952571177 -3.560787104557933,3.030324421334214 L-3.6282555056978505,2.9492088579640883 C-3.6315395083944138,2.9452605840411845 -3.636494242803191,2.943909973949487 -3.6413276017463456,2.945645537837088 L-3.7108336149124637,2.9706037765776827 C-3.7146756381903696,2.9719833713760164 -3.7185923046404583,2.9708326548191226 -3.721077520665069,2.96759411718825 L-3.8293432449419447,2.826510759149291 C-3.8318284609665554,2.8232722215184185 -3.8319265751230223,2.8191911924462527 -3.829599859127669,2.815836968638495 L-3.7875072581960563,2.7551557318836863 C-3.784580192754003,2.7509360365653897 -3.784602798916533,2.7458005687539115 -3.7875669001270866,2.741606806159902 L-3.8484630649512557,2.6554477852570546 C-3.8514271661618094,2.651254022663045 -3.856260659131488,2.6495188320702328 -3.861215289215272,2.6508698248215756 L-3.9324652393818043,2.6702977467008626 C-3.936403660744503,2.6713716469967 -3.9402179692385544,2.6699171796069767 -3.9424414314375613,2.6664936375048334 L-4.0393041359243655,2.517350761549434 C-4.0415275981233725,2.513927219447291 -4.0413052159759975,2.5098510728777854 -4.03872250310273,2.506689741055623 L-3.9919986646486656,2.449498111708317 C-3.988749548893591,2.4455210792101543 -3.9883691612082384,2.4403996686729927 -3.990995086263155,2.4359862733488375 L-4.044943569665404,2.3453149939279165 C-4.047569494720321,2.340901598603761 -4.052251946159443,2.338792525536848 -4.0572973004418085,2.3397506178323697 L-4.129851907972967,2.3535284432515233 C-4.1338624457431,2.354290028092432 -4.137550879800862,2.352540777144997 -4.139498879790431,2.348953337847086 L-4.224361373703886,2.1926704594005515 C-4.226309373693455,2.1890830201026406 -4.225767866302127,2.1850368868348533 -4.222945079834648,2.1820879376602185 L-4.171878071859453,2.1287385211334886 C-4.168326937670428,2.1250286711833084 -4.167545901353765,2.1199528931194673 -4.169817460551872,2.115347075114942 L-4.216485652192336,2.020722555764837 C-4.218757211390444,2.0161167377603118 -4.223259752428815,2.013646785356093 -4.2283647246228595,2.014206070238194 L-4.301776666236359,2.0222488543219144 C-4.305834594114933,2.022693428284098 -4.309374413313911,2.0206601784927267 -4.311034941026333,2.0169309597552645 L-4.383374018871818,1.8544716147325468 C-4.385034546584239,1.8507423959950846 -4.384177252522095,1.8467512217860866 -4.381131795877649,1.8440328365112661 L-4.326036463466993,1.7948545496984813 C-4.322205204767164,1.791434754754877 -4.321028335167803,1.7864359030239876 -4.322931523591276,1.7816660587386806 L-4.362031698549742,1.6836716910870302 C-4.363934886973214,1.678901846801723 -4.368229757948085,1.6760862431381136 -4.373362874202658,1.6762432724295142 L-4.447179540866502,1.6785014287394273 C-4.451259840378748,1.6786262508765726 -4.4546292205564715,1.676321537902354 -4.455992038286216,1.6724735315989478 L-4.515361705593629,1.5048393358853267 C-4.516724523323374,1.5009913295819206 -4.515556728093385,1.4970797213479106 -4.512307377524902,1.494608659722079 L-4.453523401724156,1.4499047031148795 C-4.44943563949743,1.4467960473508754 -4.447870192407801,1.4419049415361451 -4.449393276267133,1.4370004786462094 L-4.480684368962856,1.3362404305560205 C-4.4822074528221885,1.3313359676660845 -4.486268174425809,1.3281920718759537 -4.491397787372266,1.327945877438855 L-4.565164074789941,1.3244054836903973 C-4.569241589532529,1.3242097844325214 -4.572419757339769,1.321647817597336 -4.57347646286235,1.3177047479664383 L-4.619510685890324,1.1459292221225152 C-4.620567391412905,1.1419861524916177 -4.619096294860997,1.1381782265981002 -4.6156630836952495,1.1359697235378916 L-4.553552887262878,1.096015711894335 C-4.5492338239227035,1.0932373612064492 -4.547289450844676,1.088484156601684 -4.548423039821399,1.0834753127517351 L-4.571712130262565,0.9805708034255997 C-4.572845719239288,0.9755619595756507 -4.576647255772645,0.972109154821996 -4.581741739641402,0.971461254526971 L-4.655002854121197,0.962144138424902 C-4.659052444859829,0.9616291243230063 -4.662019805835205,0.958825699004333 -4.662763884209685,0.9548118763814222 L-4.69517884666532,0.7799540736451839 C-4.695922925039801,0.775940251022273 -4.694157596965404,0.7722594845986451 -4.690561692090888,0.7703271562598278 L-4.625508205041634,0.7353694193477537 C-4.620984469049737,0.7329385031918724 -4.6186731576899085,0.7283525048840614 -4.619410262831023,0.7232701612620441 L-4.634553766030654,0.6188556312191794 C-4.635290871171769,0.6137732875971621 -4.638809784897997,0.610032861569464 -4.6438377305019145,0.6089872499372799 L-4.71614199291127,0.5939508546006245 C-4.720138692572415,0.5931197008879068 -4.722876951948766,0.590092101135069 -4.723303815684536,0.5860322720713467 L-4.741899668545225,0.4091702489427813 C-4.742326532280995,0.405110419879059 -4.740277856518719,0.4015795060743016 -4.736541427884746,0.39993526590364875 L-4.668945726598748,0.3701893297957473 C-4.664245208291812,0.36812083557833314 -4.661581208653305,0.3637303177720432 -4.661917285460504,0.35860580871643793 L-4.668821836685648,0.2533250082559129 C-4.669157913492847,0.24820049920030765 -4.672372509138665,0.24419551286884464 -4.677302917521135,0.24275863644291515 L-4.7482045480386885,0.2220956662490326 C-4.7521237156398985,0.22095349726451843 -4.754615991137607,0.21772038923677156 -4.754723008477789,0.21363958392844562 L-4.759385102126896,0.03586375359273181 C-4.759492119467079,0.03178294828440595 -4.757172726784253,0.028423656356273398 -4.7533188107158395,0.02707764164120239 L-4.683597645169377,0.0027268999251062035 C-4.678749324805846,0.001033580600853672 -4.675749061332301,-0.003134387701644161 -4.675682037780311,-0.008269467888437305 L-4.67430506817667,-0.11376744762236478 C-4.674238044624681,-0.118902527809158 -4.677128503138971,-0.12314738237185927 -4.681930976692787,-0.12496666477055843 L-4.750992843189214,-0.151128815739288 C-4.754810315758972,-0.15257495814399935 -4.757041241670829,-0.15599364126054682 -4.756827752817934,-0.16007026329174498 L-4.747527343897808,-0.3376638537241251 C-4.747313855044912,-0.34174047575532324 -4.744738045268703,-0.3449074346550161 -4.740790402439969,-0.34594692528619153 L-4.669373626803276,-0.3647523421903594 C-4.6644073958904215,-0.36606004674473047 -4.661089366203842,-0.3699797686328612 -4.660619655515149,-0.37509376047390325 L-4.650969654558216,-0.48015848935453526 C-4.650499943869524,-0.4852724811955774 -4.65304844461437,-0.4897310330495805 -4.657693374493089,-0.49192150494008857 L-4.72448968759604,-0.5234215383231449 C-4.7281819291465155,-0.5251627381992372 -4.730137751072415,-0.5287459190863443 -4.729605072256213,-0.532793224109978 L-4.706399500880548,-0.7091096510981473 C-4.705866822064346,-0.7131569561217809 -4.703050475918566,-0.7161120566382967 -4.699033444860274,-0.7168386143801697 L-4.62636136730364,-0.7299827648237595 C-4.621307844306479,-0.7308967921748155 -4.617692505163239,-0.7345441012596988 -4.616823003260434,-0.7396054752947149 L-4.598959466415059,-0.8435891943309347 C-4.598089964512254,-0.848650568365951 -4.600280795133103,-0.853295329056457 -4.604739543799426,-0.8558434854511632 L-4.668858482026591,-0.8924871930679159 C-4.67240272866083,-0.8945127153391454 -4.674071388308223,-0.8982383024951145 -4.67322280367075,-0.9022313375298475 L-4.636255139903711,-1.0761835516702623 C-4.635406555266238,-1.080176586704995 -4.632367036461408,-1.0829016096609791 -4.62830538350583,-1.083310755043466 L-4.5548260515533086,-1.0907126009681192 C-4.549716393121585,-1.091227315833296 -4.545826034289726,-1.0945797252415705 -4.544562101941177,-1.099557276416557 L-4.518595163852244,-1.2018188914024108 C-4.517331231503696,-1.2067964425773976 -4.519150884801244,-1.21159877561021 -4.523395962586958,-1.214488906277593 L-4.584442211362457,-1.2560503674853152 C-4.5878166116213785,-1.2583477241333252 -4.589187821148653,-1.2621927480744564 -4.5880285624963815,-1.2661068947314806 L-4.53752672427809,-1.436622422778984 C-4.536367465625818,-1.4405365694360084 -4.5331235138061095,-1.4430147141587748 -4.529042280394355,-1.4431039246645379 L-4.45520871856179,-1.4447178312287654 C-4.45007442743887,-1.444830060219759 -4.4459330342742645,-1.4478669012326335 -4.444282464043202,-1.452729941289393 L-4.410372219518911,-1.5526389753630554 C-4.408721649287849,-1.5575020154198151 -4.410158906494421,-1.562432312814849 -4.414164141083347,-1.5656465991382782 L-4.471761329983541,-1.6118695737080362 C-4.474945079567445,-1.6144246007651433 -4.476010385011893,-1.6183653556402393 -4.474547599559907,-1.6221764819038285 L-4.410822947516542,-1.788204038925841 C-4.409360162064556,-1.79201516518943 -4.405931777271664,-1.794231153092696 -4.401856125564863,-1.7939998787093019 L-4.3281235423131035,-1.789815895642457 C-4.322996273111085,-1.7895249468302181 -4.318629378679746,-1.7922274963129956 -4.316602346880515,-1.7969460429924535 L-4.274957863854658,-1.8938865237357354 C-4.272930832055426,-1.8986050704151933 -4.273976832002407,-1.9036329352495176 -4.2777175297914285,-1.9071515600849507 L-4.3315105529937385,-1.9577510680078227 C-4.334484023027738,-1.960548012882587 -4.335236856427042,-1.9645602026274087 -4.333479562734079,-1.9682448116368196 L-4.256924980536086,-2.128760782534535 C-4.255167686843123,-2.132445391543946 -4.251576006209347,-2.1343855603253976 -4.247531063955565,-2.133835226936326 L-4.17435404517893,-2.1238791498853318 C-4.169265409217433,-2.123186817066038 -4.16469993687567,-2.125538412902469 -4.162308940833368,-2.13008337479527 L-4.113186971391996,-2.2234576319084076 C-4.110795975349694,-2.2280025938012087 -4.11144426909958,-2.2330970276161852 -4.114897367442919,-2.23689829747145 L-4.164554573071308,-2.291562375955049 C-4.167299431123863,-2.294583994552239 -4.167735151009776,-2.298642882682821 -4.165694183375812,-2.302178257598254 L-4.076781655479424,-2.456193008034111 C-4.07474068784546,-2.4597283829495438 -4.071007855276263,-2.4613807708234714 -4.067018560889573,-2.460514771417071 L-3.9948482672426495,-2.4448479829076777 C-3.9898296376545193,-2.443758534543384 -3.9850937350574935,-2.445744678363152 -3.9823535160578087,-2.450088034267874 L-3.926056913477239,-2.539320384405674 C-3.9233166944775544,-2.543663740310396 -3.923563285083798,-2.5487933342274847 -3.9267074944818967,-2.552853813009873 L-3.9719227293509682,-2.611245439832695 C-3.9744220524594276,-2.614473102868869 -3.9745379724739602,-2.618553664990169 -3.9722259141431495,-2.621918009049639 L-3.871503615849263,-2.7684819868720996 C-3.869191557518452,-2.7718463309315693 -3.8653405871679163,-2.7732007503772556 -3.861431535974788,-2.7720244241278404 L-3.790712921316966,-2.750743515120945 C-3.7857952396224777,-2.749263668023096 -3.780918105184546,-2.750872114589091 -3.7778455575888272,-2.7549870862722687 L-3.7147214091444902,-2.839527382323364 C-3.711648861548771,-2.8436423540065423 -3.7114922286982854,-2.8487754823734805 -3.714308164054648,-2.853070135881053 L-3.754802661205844,-2.9148293072465505 C-3.7570410402121346,-2.918243115105783 -3.75683644566985,-2.9223201931953997 -3.7542675512506394,-2.9254927640990216 L-3.6423564690217987,-3.0637023536473413 C-3.639787574602588,-3.066874924550963 -3.6358422089835014,-3.0679230251221354 -3.6320375015844317,-3.0664436244722015 L-3.5632065696914035,-3.0396797988484514 C-3.558420155033499,-3.0378186767665043 -3.553431857910284,-3.039039509470785 -3.5500459249961835,-3.042900726763625 L-3.4804834120541477,-3.122227749690359 C-3.4770974791400473,-3.1260889669831995 -3.476538588526441,-3.1311939823566672 -3.4790088886632025,-3.135696332622432 L-3.514532986055799,-3.2004422827021277 C-3.51649662060901,-3.204021188123761 -3.5159727729032966,-3.2080696456395046 -3.5131628804840247,-3.211030883432671 L-3.3907529833563816,-3.3400339766279328 C-3.3879430909371098,-3.3429952144210993 -3.3839276545404817,-3.343730534229207 -3.3802507482217794,-3.341957180175712 L-3.313731864677272,-3.309875445819953 C-3.3091062268939613,-3.3076445231904286 -3.3040375215960043,-3.308470215193405 -3.3003590787658754,-3.3120538724073123 L-3.2247870773503107,-3.38567854473443 C-3.2211086345201814,-3.389262201948337 -3.220150931889938,-3.394307630210967 -3.2222603665852967,-3.3989899187483528 L-3.2525950463459066,-3.466323467229792 C-3.2542718299860436,-3.470045405071794 -3.2534319588122034,-3.4740402819268317 -3.2503983923140187,-3.4767719295938364 L-3.1182443780087876,-3.59577317946861 C-3.115210811510603,-3.598504827135615 -3.111150060837087,-3.598922832689522 -3.107623624948902,-3.5968664585499055 L-3.0438269007897434,-3.5596646100226987 C-3.0393905584761414,-3.557077641225465 -3.0342726952571195,-3.5575031018613683 -3.0303244213342158,-3.5607871045579316 L-2.9492088579640905,-3.6282555056978487 C-2.9452605840411867,-3.631539508394412 -2.943909973949489,-3.6364942428031894 -2.9456455378370903,-3.641327601746344 L-2.970603776577683,-3.7108336149124637 C-2.971983371376017,-3.7146756381903696 -2.9708326548191226,-3.7185923046404583 -2.9675941171882503,-3.721077520665069 L-2.8265107591492917,-3.8293432449419442 C-2.8232722215184194,-3.831828460966555 -2.8191911924462536,-3.831926575123022 -2.815836968638496,-3.8295998591276685 L-2.7551557318836863,-3.7875072581960563 C-2.7509360365653897,-3.784580192754003 -2.745800568753911,-3.7846027989165334 -2.741606806159902,-3.7875669001270866 L-2.6554477852570546,-3.8484630649512557 C-2.651254022663045,-3.851427166161809 -2.6495188320702323,-3.8562606591314874 -2.650869824821575,-3.8612152892152714 L-2.6702977467008613,-3.932465239381805 C-2.6713716469966986,-3.936403660744504 -2.6699171796069754,-3.9402179692385553 -2.666493637504832,-3.942441431437562 L-2.517350761549433,-4.039304135924367 C-2.5139272194472895,-4.041527598123374 -2.509851072877784,-4.041305215975999 -2.5066897410556215,-4.038722503102732 L-2.449498111708315,-3.9919986646486665 C-2.4455210792101525,-3.988749548893592 -2.440399668672991,-3.9883691612082393 -2.4359862733488358,-3.990995086263156 L-2.345314993927915,-4.0449435696654055 C-2.34090159860376,-4.047569494720323 -2.3387925255368462,-4.052251946159444 -2.339750617832368,-4.057297300441809 L-2.3535284432515207,-4.129851907972969 C-2.354290028092429,-4.133862445743102 -2.3525407771449944,-4.137550879800863 -2.3489533378470835,-4.139498879790433 L-2.1926704594005484,-4.224361373703887 C-2.1890830201026374,-4.226309373693458 -2.1850368868348498,-4.22576786630213 -2.182087937660215,-4.222945079834651 L-2.1287385211334886,-4.171878071859454 C-2.1250286711833084,-4.168326937670428 -2.1199528931194673,-4.167545901353765 -2.115347075114942,-4.169817460551872 L-2.0207225557648374,-4.216485652192336 C-2.016116737760312,-4.218757211390444 -2.0136467853560935,-4.223259752428815 -2.014206070238194,-4.2283647246228595 L-2.0222488543219126,-4.30177666623636 C-2.0226934282840956,-4.305834594114934 -2.020660178492725,-4.309374413313912 -2.0169309597552627,-4.3110349410263336 L-1.8544716147325455,-4.383374018871818 C-1.850742395995083,-4.385034546584239 -1.8467512217860849,-4.384177252522095 -1.8440328365112646,-4.381131795877649 L-1.7948545496984836,-4.326036463466992 C-1.7914347547548792,-4.322205204767163 -1.7864359030239896,-4.321028335167802 -1.7816660587386823,-4.322931523591275 L-1.683671691087032,-4.362031698549741 C-1.678901846801725,-4.3639348869732135 -1.6760862431381154,-4.368229757948084 -1.676243272429516,-4.373362874202657 L-1.6785014287394278,-4.447179540866502 C-1.6786262508765728,-4.451259840378748 -1.6763215379023542,-4.4546292205564715 -1.672473531598948,-4.455992038286216 L-1.5048393358853271,-4.515361705593629 C-1.500991329581921,-4.516724523323374 -1.497079721347911,-4.515556728093385 -1.4946086597220793,-4.512307377524902 L-1.4499047031148797,-4.453523401724156 C-1.4467960473508756,-4.44943563949743 -1.4419049415361453,-4.447870192407801 -1.4370004786462096,-4.449393276267133 L-1.3362404305560205,-4.480684368962856 C-1.3313359676660845,-4.4822074528221885 -1.3281920718759537,-4.486268174425809 -1.327945877438855,-4.491397787372266 L-1.3244054836903956,-4.565164074789942 C-1.3242097844325196,-4.56924158953253 -1.321647817597334,-4.572419757339769 -1.3177047479664366,-4.57347646286235 L-1.1459292221225135,-4.619510685890325 C-1.141986152491616,-4.620567391412906 -1.1381782265980984,-4.619096294860998 -1.1359697235378898,-4.61566308369525 L-1.0960157118943332,-4.553552887262879 C-1.0932373612064474,-4.549233823922704 -1.0884841566016823,-4.547289450844677 -1.0834753127517336,-4.5484230398214 L-0.9805708034255978,-4.571712130262565 C-0.975561959575649,-4.572845719239288 -0.9721091548219942,-4.576647255772645 -0.9714612545269691,-4.581741739641402 L-0.9621441384248983,-4.655002854121198 C-0.9616291243230025,-4.65905244485983 -0.9588256990043295,-4.662019805835206 -0.9548118763814186,-4.662763884209686 L-0.7799540736451802,-4.695178846665321 C-0.7759402510222693,-4.695922925039802 -0.7722594845986411,-4.694157596965405 -0.770327156259824,-4.690561692090889 L-0.7353694193477539,-4.625508205041635 C-0.7329385031918727,-4.620984469049737 -0.7283525048840616,-4.6186731576899085 -0.723270161262044,-4.619410262831023 L-0.6188556312191794,-4.634553766030654 C-0.6137732875971622,-4.635290871171769 -0.6100328615694641,-4.638809784897997 -0.6089872499372799,-4.6438377305019145 L-0.5939508546006227,-4.71614199291127 C-0.5931197008879049,-4.720138692572415 -0.5900921011350674,-4.722876951948766 -0.586032272071345,-4.723303815684536 L-0.40917024894277976,-4.741899668545225 C-0.40511041987905727,-4.742326532280995 -0.4015795060742998,-4.740277856518719 -0.3999352659036471,-4.736541427884746 L-0.3701893297957495,-4.668945726598749 C-0.36812083557833547,-4.664245208291812 -0.3637303177720453,-4.661581208653305 -0.3586058087164399,-4.661917285460504 L-0.25332500825591503,-4.668821836685648 C-0.24820049920030987,-4.669157913492847 -0.24419551286884694,-4.672372509138666 -0.24275863644291737,-4.677302917521135 L-0.22209566624903296,-4.748204548038689 C-0.2209534972645187,-4.752123715639899 -0.21772038923677192,-4.754615991137607 -0.21363958392844606,-4.754723008477789 L-0.035863753592732105,-4.759385102126896 C-0.03178294828440624,-4.759492119467079 -0.028423656356273683,-4.757172726784253 -0.027077641641202674,-4.7533188107158395 L-0.0027268999251064898,-4.683597645169377 C-0.001033580600853958,-4.678749324805846 0.0031343877016438712,-4.675749061332301 0.008269467888437016,-4.675682037780311 L0.11376744762236468,-4.67430506817667 C0.1189025278091578,-4.674238044624681 0.12314738237185903,-4.67712850313897 0.12496666477055826,-4.681930976692786 L0.1511288157392897,-4.750992843189214 C0.15257495814400113,-4.754810315758972 0.15599364126054857,-4.757041241670829 0.16007026329174665,-4.756827752817934 L0.3376638537241269,-4.747527343897808 C0.341740475755325,-4.747313855044912 0.3449074346550179,-4.744738045268703 0.3459469252861933,-4.740790402439969 L0.3647523421903612,-4.669373626803276 C0.36606004674473225,-4.6644073958904215 0.36997976863286297,-4.661089366203842 0.375093760473905,-4.660619655515149 L0.4801584893545372,-4.650969654558216 C0.48527248119557925,-4.650499943869524 0.4897310330495823,-4.65304844461437 0.49192150494009046,-4.657693374493089 L0.5234215383231489,-4.72448968759604 C0.5251627381992413,-4.7281819291465155 0.5287459190863483,-4.730137751072415 0.5327932241099819,-4.729605072256213 L0.709109651098151,-4.706399500880547 C0.7131569561217848,-4.705866822064345 0.7161120566383007,-4.703050475918564 0.7168386143801735,-4.699033444860272 L0.7299827648237593,-4.62636136730364 C0.7308967921748152,-4.621307844306479 0.7345441012596987,-4.617692505163239 0.739605475294715,-4.616823003260434 L0.8435891943309347,-4.598959466415059 C0.8486505683659509,-4.598089964512254 0.8532953290564569,-4.600280795133103 0.8558434854511631,-4.604739543799425 L0.8924871930679177,-4.668858482026591 C0.8945127153391472,-4.67240272866083 0.8982383024951163,-4.674071388308223 0.9022313375298492,-4.67322280367075 L1.0761835516702638,-4.636255139903712 C1.0801765867049968,-4.635406555266239 1.0829016096609807,-4.632367036461408 1.0833107550434675,-4.62830538350583 L1.0907126009681172,-4.554826051553309 C1.0912273158332937,-4.549716393121586 1.094579725241568,-4.545826034289726 1.099557276416555,-4.544562101941177 L1.201818891402409,-4.518595163852245 C1.2067964425773956,-4.5173312315036975 1.211598775610208,-4.5191508848012445 1.214488906277591,-4.523395962586959 L1.2560503674853147,-4.584442211362457 C1.2583477241333247,-4.5878166116213785 1.262192748074456,-4.589187821148653 1.2661068947314802,-4.5880285624963815 L1.4366224227789839,-4.537526724278089 C1.4405365694360082,-4.536367465625817 1.4430147141587746,-4.5331235138061095 1.4431039246645376,-4.529042280394355 L1.4447178312287652,-4.45520871856179 C1.4448300602197588,-4.45007442743887 1.4478669012326333,-4.4459330342742645 1.4527299412893928,-4.444282464043202 L1.5526389753630554,-4.410372219518911 C1.5575020154198151,-4.408721649287849 1.5624323128148487,-4.410158906494421 1.565646599138278,-4.414164141083347 L1.6118695737080377,-4.471761329983541 C1.6144246007651448,-4.474945079567445 1.6183653556402406,-4.476010385011892 1.6221764819038298,-4.474547599559906 L1.7882040389258425,-4.410822947516542 C1.7920151651894316,-4.409360162064556 1.7942311530926975,-4.405931777271664 1.7939998787093034,-4.401856125564863 L1.7898158956424586,-4.328123542313103 C1.7895249468302197,-4.322996273111084 1.7922274963129972,-4.318629378679745 1.796946042992455,-4.316602346880514 L1.8938865237357374,-4.274957863854657 C1.898605070415195,-4.272930832055426 1.9036329352495194,-4.273976832002406 1.9071515600849525,-4.277717529791428 L1.9577510680078265,-4.331510552993737 C1.9605480128825907,-4.334484023027736 1.9645602026274123,-4.3352368564270405 1.9682448116368232,-4.333479562734078 L2.1287607825345387,-4.256924980536084 C2.13244539154395,-4.255167686843121 2.134385560325401,-4.251576006209344 2.1338352269363297,-4.247531063955562 L2.1238791498853318,-4.174354045178931 C2.123186817066038,-4.1692654092174335 2.125538412902469,-4.164699936875671 2.13008337479527,-4.162308940833369 L2.2234576319084076,-4.113186971391996 C2.2280025938012087,-4.110795975349694 2.2330970276161852,-4.11144426909958 2.23689829747145,-4.114897367442919 L2.2915623759550505,-4.164554573071307 C2.2945839945522404,-4.167299431123862 2.2986428826828225,-4.167735151009775 2.3021782575982552,-4.165694183375811 L2.456193008034113,-4.076781655479423 C2.459728382949546,-4.074740687845459 2.4613807708234727,-4.071007855276262 2.4605147714170723,-4.067018560889572 L2.4448479829076764,-3.9948482672426504 C2.4437585345433828,-3.98982963765452 2.44574467836315,-3.9850937350574944 2.450088034267872,-3.9823535160578096 L2.539320384405672,-3.9260569134772405 C2.5436637403103943,-3.9233166944775557 2.548793334227483,-3.9235632850837994 2.5528538130098712,-3.9267074944818976 L2.611245439832695,-3.9719227293509687 C2.614473102868869,-3.974422052459428 2.618553664990169,-3.9745379724739607 2.621918009049639,-3.97222591414315 L2.7684819868720996,-3.871503615849263 C2.7718463309315693,-3.869191557518452 2.7732007503772556,-3.8653405871679163 2.7720244241278404,-3.861431535974788 L2.7507435151209445,-3.790712921316967 C2.7492636680230955,-3.7857952396224785 2.7508721145890904,-3.780918105184547 2.7549870862722683,-3.777845557588828 L2.8395273823233635,-3.7147214091444902 C2.8436423540065414,-3.7116488615487713 2.84877548237348,-3.7114922286982854 2.8530701358810524,-3.714308164054648 L2.9148293072465514,-3.754802661205843 C2.918243115105784,-3.7570410402121337 2.9223201931954006,-3.7568364456698493 2.9254927640990225,-3.7542675512506385 L3.0637023536473427,-3.6423564690217978 C3.0668749245509646,-3.6397875746025874 3.0679230251221368,-3.6358422089835005 3.066443624472203,-3.632037501584431 L3.0396797988484527,-3.5632065696914026 C3.0378186767665056,-3.558420155033498 3.0390395094707863,-3.553431857910283 3.0429007267636266,-3.5500459249961827 L3.1222277496903605,-3.4804834120541464 C3.126088966983201,-3.477097479140046 3.1311939823566686,-3.4765385885264393 3.1356963326224334,-3.4790088886632007 L3.200442282702131,-3.5145329860557957 C3.204021188123764,-3.516496620609007 3.2080696456395077,-3.515972772903293 3.211030883432674,-3.513162880484021 L3.3400339766279354,-3.3907529833563785 C3.342995214421102,-3.387943090937106 3.3437305342292096,-3.383927654540478 3.341957180175714,-3.380250748221776 L3.309875445819953,-3.3137318646772727 C3.307644523190428,-3.3091062268939617 3.3084702151934047,-3.3040375215960043 3.312053872407312,-3.300359078765875 L3.3856785447344295,-3.224787077350311 C3.3892622019483367,-3.2211086345201823 3.394307630210966,-3.220150931889938 3.398989918748352,-3.2222603665852967 L3.4663234672297927,-3.252595046345905 C3.470045405071795,-3.2542718299860414 3.4740402819268326,-3.2534319588122016 3.4767719295938373,-3.250398392314017 L3.595773179468611,-3.1182443780087863 C3.5985048271356157,-3.1152108115106016 3.5989228326895235,-3.111150060837085 3.596866458549907,-3.1076236249489004 L3.5596646100226983,-3.0438269007897434 C3.5570776412254643,-3.039390558476141 3.5575031018613683,-3.034272695257119 3.5607871045579316,-3.0303244213342153 L3.6282555056978487,-2.9492088579640905 C3.631539508394412,-2.9452605840411867 3.6364942428031894,-2.943909973949489 3.641327601746344,-2.9456455378370903 L3.7108336149124637,-2.970603776577683 C3.7146756381903696,-2.971983371376017 3.7185923046404583,-2.9708326548191226 3.721077520665069,-2.9675941171882503 L3.8293432449419442,-2.8265107591492917 C3.831828460966555,-2.8232722215184194 3.831926575123022,-2.8191911924462536 3.8295998591276685,-2.815836968638496 L3.7875072581960563,-2.755155731883687 C3.784580192754003,-2.75093603656539 3.7846027989165334,-2.7458005687539115 3.7875669001270866,-2.7416068061599024 L3.848463064951255,-2.655447785257055 C3.851427166161808,-2.6512540226630454 3.8562606591314865,-2.649518832070233 3.8612152892152705,-2.6508698248215756 L3.9324652393818047,-2.6702977467008613 C3.9364036607445034,-2.671371646996698 3.940217969238555,-2.6699171796069754 3.9424414314375618,-2.666493637504832 L4.039304135924367,-2.5173507615494333 C4.041527598123374,-2.51392721944729 4.041305215975999,-2.5098510728777845 4.038722503102732,-2.506689741055622 L3.991998664648666,-2.449498111708316 C3.9887495488935913,-2.4455210792101534 3.988369161208239,-2.4403996686729923 3.9909950862631556,-2.4359862733488367 L4.0449435696654055,-2.345314993927915 C4.047569494720323,-2.34090159860376 4.052251946159444,-2.3387925255368462 4.057297300441809,-2.339750617832368 L4.129851907972969,-2.3535284432515207 C4.133862445743102,-2.354290028092429 4.137550879800863,-2.3525407771449944 4.139498879790433,-2.3489533378470835 L4.2243613737038865,-2.1926704594005484 C4.226309373693457,-2.1890830201026374 4.225767866302129,-2.1850368868348498 4.22294507983465,-2.182087937660215 L4.171878071859454,-2.128738521133489 C4.168326937670428,-2.125028671183309 4.167545901353765,-2.1199528931194678 4.169817460551872,-2.1153470751149426 L4.216485652192336,-2.0207225557648374 C4.218757211390444,-2.016116737760312 4.223259752428815,-2.0136467853560935 4.2283647246228595,-2.014206070238194 L4.301776666236359,-2.022248854321913 C4.305834594114933,-2.022693428284096 4.309374413313911,-2.0206601784927254 4.311034941026333,-2.016930959755263 L4.383374018871818,-1.8544716147325457 C4.385034546584239,-1.8507423959950833 4.384177252522095,-1.8467512217860853 4.381131795877649,-1.8440328365112648 L4.326036463466992,-1.7948545496984838 C4.322205204767163,-1.7914347547548795 4.321028335167802,-1.7864359030239898 4.322931523591275,-1.7816660587386826 L4.362031698549741,-1.6836716910870324 C4.3639348869732135,-1.6789018468017254 4.368229757948084,-1.6760862431381158 4.373362874202657,-1.6762432724295164 L4.447179540866502,-1.6785014287394282 C4.451259840378748,-1.6786262508765732 4.4546292205564715,-1.6763215379023546 4.455992038286216,-1.6724735315989485 L4.515361705593629,-1.5048393358853274 C4.516724523323374,-1.5009913295819213 4.515556728093385,-1.4970797213479112 4.512307377524902,-1.4946086597220796 L4.453523401724156,-1.44990470311488 C4.44943563949743,-1.4467960473508759 4.447870192407801,-1.4419049415361456 4.449393276267133,-1.4370004786462098 L4.480684368962856,-1.3362404305560207 C4.4822074528221885,-1.3313359676660848 4.486268174425809,-1.328192071875954 4.491397787372266,-1.3279458774388553 L4.565164074789942,-1.3244054836903962 C4.56924158953253,-1.3242097844325202 4.572419757339769,-1.3216478175973347 4.57347646286235,-1.3177047479664372 L4.619510685890325,-1.1459292221225137 C4.620567391412906,-1.1419861524916162 4.619096294860998,-1.1381782265980986 4.61566308369525,-1.13596972353789 L4.553552887262879,-1.0960157118943334 C4.549233823922704,-1.0932373612064477 4.547289450844677,-1.0884841566016825 4.5484230398214,-1.0834753127517338 L4.571712130262565,-0.980570803425598 C4.572845719239288,-0.9755619595756492 4.576647255772645,-0.9721091548219944 4.581741739641402,-0.9714612545269693 L4.655002854121198,-0.9621441384248985 C4.65905244485983,-0.9616291243230027 4.662019805835206,-0.9588256990043297 4.662763884209686,-0.9548118763814188 L4.695178846665321,-0.7799540736451804 C4.695922925039802,-0.7759402510222695 4.694157596965405,-0.7722594845986414 4.690561692090889,-0.7703271562598242 L4.625508205041635,-0.7353694193477542 C4.620984469049737,-0.732938503191873 4.6186731576899085,-0.7283525048840619 4.619410262831023,-0.7232701612620444 L4.634553766030654,-0.6188556312191796 C4.635290871171769,-0.6137732875971624 4.638809784897997,-0.6100328615694645 4.6438377305019145,-0.6089872499372803 L4.71614199291127,-0.593950854600623 C4.720138692572415,-0.5931197008879052 4.722876951948766,-0.5900921011350676 4.723303815684536,-0.5860322720713452 L4.741899668545225,-0.4091702489427801 C4.742326532280995,-0.4051104198790576 4.740277856518719,-0.4015795060743001 4.736541427884746,-0.39993526590364736 L4.668945726598749,-0.3701893297957497 C4.664245208291812,-0.36812083557833564 4.661581208653305,-0.36373031777204556 4.661917285460504,-0.35860580871644016 L4.668821836685648,-0.25332500825591536 C4.669157913492847,-0.2482004992003102 4.672372509138666,-0.24419551286884725 4.677302917521135,-0.24275863644291767 L4.748204548038689,-0.22209566624903326 C4.752123715639899,-0.22095349726451902 4.754615991137607,-0.21772038923677223 4.754723008477789,-0.21363958392844637 L4.759385102126896,-0.03586375359273231 C4.759492119467079,-0.0317829482844065 4.757172726784253,-0.02842365635627396 4.7533188107158395,-0.02707764164120292  Z" style="stroke:black;fill:#00AA00;opacity:1.0"></path><circle cx="0" cy="0" r="0.125"></circle></svg>