<svg xmlns="http://www.w3.org/2000/svg" height="4.983380691194704in" width="4.983380691194704in" viewBox="-2.491690345597352 -2.491690345597352 4.983380691194704 4.983380691194704" style="stroke-width:0"><path d="M2.415672642843273,-0.002630699498454954 C2.4108038698013594,-0.0009971176218253402 2.4077525884821815,0.0031336478027120997 2.4076224348634847,0.008267515810058756 L2.404948485610869,0.11374059184666648 C2.404818331992172,0.11887445985401315 2.4076563821056953,0.1231545313761315 2.4124361248289667,0.12503272204287744 L2.480524581458765,0.15178794950158367 C2.4844476562979696,0.15332951417870844 2.486644063229718,0.15692711538477971 2.486222643119286,0.16112108044642254 L2.4685750698448583,0.3367493997971225 C2.4681536497344263,0.3409433648587653 2.4652853874642333,0.3440320554222794 2.4611340373850403,0.3447622816664961 L2.389083660727032,0.35743600827054267 C2.3840257951124166,0.3583256914196524 2.3803929354446134,0.3619555497247887 2.3794990722122367,0.36701267827794243 L2.361135042490421,0.4709091757434772 C2.360241179258044,0.47596630429663095 2.3624096191376154,0.4806215603765909 2.3668560462905286,0.48319115689261305 L2.430196351383661,0.5197956084429901 C2.4338458504253184,0.5219046590807647 2.4354815306698145,0.5257894355203454 2.4344397394167774,0.529873748049138 L2.390813232234216,0.7009102098678905 C2.3897714409811788,0.7049945223966831 2.3864748693896094,0.7076212225298193 2.382261051886592,0.7077245661267259 L2.3091264974720582,0.7095181862600001 C2.3039925236447005,0.709644096630196 2.299859237710131,0.7126919627795546 2.298221632291621,0.7175593839832913 L2.2645777441789448,0.817558426808167 C2.262940138760435,0.8224258480119038 2.2643905290423834,0.8273522979214581 2.268404314789842,0.8305558997467191 L2.325581550597232,0.8761918924281666 C2.328875950063368,0.8788213163204442 2.32991436522683,0.8829064885072742 2.328275474726272,0.8867899117104466 L2.2596445777154015,1.0494138440694665 C2.2580056872148435,1.0532972672726388 2.254354446263834,1.055403300834914 2.2501722910568858,1.0548774532593257 L2.177587263980233,1.0457509004119183 C2.1724918664317996,1.0451102253735909 2.167950485008192,1.0475080150738427 2.1656057188025377,1.0520769987816423 L2.1174335211645867,1.145944773592595 C2.1150887549589323,1.1505137573003945 2.1157886963210566,1.1556013522892774 2.1192801793220437,1.1593673962527933 L2.1690171008782917,1.2130154974000162 C2.1718828093286637,1.2161065575620358 2.1723007629322697,1.2203008695000046 2.1701013832897886,1.2238966541203617 L2.0779991972806884,1.374475307098707 C2.0757998176382073,1.3780710917190642 2.0718754700171096,1.379609413400813 2.06781839954275,1.3784661212186313 L1.9974043293657238,1.3586232674999787 C1.9924613308575556,1.3572303186748007 1.9876133009015071,1.3589244692662696 1.9846137521111327,1.3630929519321182 L1.9229893322409777,1.4487326077517007 C1.9199897834506032,1.4529010904175492 1.9199236403594917,1.4580361820207066 1.9228148266532674,1.4622805409235329 L1.9640003933185959,1.5227423406077198 C1.9663733955618632,1.526225987863285 1.9661615512127564,1.5304357455545907 1.9634508129351995,1.533663567705569 L1.8499347485690325,1.668833263019437 C1.8472240102914759,1.6720610851704152 1.8431142194413548,1.6729973314072673 1.8392728619498742,1.671262133876609 L1.7726026826444816,1.6411462358494573 C1.767922501595192,1.6390321294124044 1.7628761200847922,1.639984796370377 1.7592887936730695,1.6436596609797298 L1.6855887392793218,1.7191581494122028 C1.682001412867599,1.7228330140215555 1.6811706628506096,1.7279008927780561 1.6833969681129124,1.7325287546558956 L1.7151111623851178,1.7984536361822194 C1.7169384494724342,1.8022520516081943 1.7161015394233108,1.8063832160224285 1.712939995924439,1.8091709714909905 L1.5805458144994948,1.925912241508267 C1.577384271000623,1.928699996976829 1.573180842857846,1.9290132535749538 1.5696410079279517,1.926724912141326 L1.5082040211307206,1.887008709202578 C1.5038912050511846,1.884220670797998 1.4987591998104812,1.884410573116868 1.4946642307215696,1.8875097292668832 L1.4105348792337118,1.9511805388381622 C1.4064399101448002,1.9542796949881773 1.404863110784539,1.9591671528610186 1.4063748030346677,1.964075138926832 L1.427909182219838,2.0339904493795813 C1.4291499355771737,2.0380187826520424 1.4277066550155788,2.0419790704027343 1.4241649299528631,2.04426448533834 L1.2758500987073764,2.1399695229959814 C1.2723083736446608,2.142254937931587 1.2681052058479816,2.1419382072562225 1.2649459675426065,2.139147839685882 L1.2101145740170212,2.09071852618014 C1.2062654640917412,2.087318835978897 1.2011624756374286,2.086741731554665 1.1966513387140416,2.089195949218152 L1.1039720008247442,2.1396167792552605 C1.0994608639013572,2.142070996918748 1.09717323828995,2.1466688561753315 1.0979365488210329,2.151747330130611 L1.1088100704726613,2.2240912770058445 C1.1094365737202967,2.2282595418161053 1.1074191631490273,2.231960486619083 1.1035763728078445,2.233692508628605 L0.9426539999889586,2.306223421533154 C0.9388112096477756,2.3079554435426757 0.9347021940202463,2.3070158008337285 0.9319941245026482,2.303785739327253 L0.8849931669739212,2.247725146091204 C0.8816937459581655,2.2437897475545743 0.8767337666198779,2.242458527946441 0.8719072332064548,2.244212983956271 L0.7727482121761685,2.280257516434093 C0.7679216787627454,2.282011972443923 0.7649743286761636,2.2862175245061906 0.764972206392269,2.2913530416347014 L0.764941974004612,2.3645095807039995 C0.7649402320952603,2.3687246649040494 0.7623937571328082,2.372083593768042 0.7583357430993601,2.3732235323418673 L0.5884005685996323,2.420960099752761 C0.5843425545661842,2.4221000383265867 0.5804194797269798,2.420558473649462 0.5782230727952317,2.416960872443391 L0.54010247498781,2.3545213004925856 C0.5374264464949415,2.3501381039208273 0.5327202740149775,2.3480825063750648 0.5276861608923676,2.3490980090831286 L0.4242625053955594,2.3699610687079073 C0.41922839227294956,2.370976571415971 0.4156871566417779,2.3746958712003177 0.41491964895122113,2.379773712535595 L0.4039863378658614,2.452108647603692 C0.40335638971089915,2.4562763931777183 0.40033773440000203,2.459218273182367 0.3961551460021298,2.459740663976449 L0.2210032408104611,2.4816165298600312 C0.2168206524125889,2.4821389206541133 0.2131711533709313,2.480029870016339 0.21153547312643511,2.476145093576758 L0.1831467862029443,2.4087213397702913 C0.18115392828748964,2.4039882585318035 0.1768066907823355,2.4012542017008105 0.17167745171907656,2.4015080664546784 L0.06629947531709887,2.4067236069495643 C0.061170236253839966,2.4069774717034322 0.05711422043036311,2.4101274361986325 0.0555984721866829,2.415034171156127 L0.03400631450651467,2.484931659303483 C0.03276223210676574,2.4889589657023543 0.02933882821889129,2.4914180801096655 0.02512509756988411,2.491311253776889 L-0.15133093418155416,2.4868377474381007 C-0.15554466483056137,2.486730921105324 -0.15883906429669725,2.484101497213047 -0.1598774794601596,2.480016325026217 L-0.17790009914474078,2.409114524609726 C-0.1791652693300489,2.404137287918195 -0.18305646175812168,2.400785846113683 -0.18816624803716894,2.4002724019942523 L-0.29314457548336004,2.389723916803011 C-0.29825436176240727,2.38921047268358 -0.3027345530870572,2.3917207368879714 -0.30496468257279563,2.3963467571168677 L-0.33673335372516383,2.462245403960393 C-0.3385637796246733,2.4660423078140825 -0.3423154589036746,2.467963724071761 -0.3464662040240982,2.467230066935875 L-0.5202846261707941,2.4365071191140784 C-0.5244353712912178,2.4357734619781923 -0.5273010797415897,2.4326824018161735 -0.5277190333451959,2.428488089878204 L-0.5349729902485968,2.355692071911295 C-0.5354822108924494,2.3505818630097735 -0.5388304354345996,2.346687901903565 -0.543806624747629,2.3454186184040227 L-0.6460402608743498,2.3193417432549794 C-0.6510164501873792,2.318072459755437 -0.6558207369423028,2.31988694851478 -0.6587154302625661,2.324128916367433 L-0.6999509552697392,2.3845566550308797 C-0.702326835979102,2.3880383397814904 -0.7063229843336005,2.389379136625384 -0.7103180231383502,2.3880350373744723 L-0.8776160193558428,2.3317489479558633 C-0.8816110581605924,2.330404848704952 -0.8839840604038598,2.3269212014493865 -0.8837722160547528,2.322711443758081 L-0.8800954687665551,2.2496473509903354 C-0.8798373647212303,2.244518323501317 -0.8825678275739609,2.2401688277499483 -0.8872992600746245,2.238172058566246 L-0.9845044743868022,2.197149307759491 C-0.9892359068874659,2.1951525385757886 -0.9942569692454032,2.1962307192095523 -0.9977515637347534,2.1999938761337745 L-1.0475328091077245,2.2536008507892333 C-1.0504010713779182,2.2566895413527472 -1.054552421457111,2.257419767596964 -1.0583025113808915,2.255495251187235 L-1.2153429208852988,2.1749033583994626 C-1.2190930108090794,2.1729788419897336 -1.2209202978963958,2.1691804265637584 -1.2200833878472723,2.1650492621495245 L-1.205558068826252,2.093349225678595 C-1.2045384057096182,2.088315953600722 -1.2065901128447531,2.0836080837519524 -1.210971096149443,2.080928433408093 L-1.3009764847861254,2.0258761874085938 C-1.3053574680908153,2.0231965370647345 -1.3104831438157458,2.0235143247991996 -1.3144995760079343,2.0267146080877336 L-1.3717145109861035,2.072303327504261 C-1.3750110825776725,2.074930027637397 -1.3792249000806898,2.0750333712343036 -1.3826462703114408,2.0725714281821825 L-1.5259210698558998,1.9694740217360311 C-1.5293424400866509,1.96701207868391 -1.5305831934439866,1.962983745411449 -1.529139912882392,1.959023457660757 L-1.5040904937531105,1.8902891378206614 C-1.502332049154251,1.8854640561349219 -1.5036591688247352,1.8805029782216522 -1.5075918390057816,1.8772003056783284 L-1.5883868303142523,1.8093483406906163 C-1.5923195004952988,1.8060456681472925 -1.5974352904614515,1.8055959641296 -1.6018838398982593,1.8081618847420888 L-1.6652543773790487,1.84471397226101 C-1.668905618330058,1.846820005823285 -1.6730877735370062,1.8462941582476968 -1.6761039963174171,1.84334978429273 L-1.8024126636345832,1.7200498898848708 C-1.805428886414994,1.717105515929904 -1.8060553896626295,1.7129372511196432 -1.8040379790913603,1.7092363063166653 L-1.7690240224842482,1.6450031142325856 C-1.7665660771497589,1.6404940072906313 -1.7671389636951533,1.6353905435955098 -1.7705354713992536,1.6315386250998372 L-1.8403152387833857,1.5524026418997405 C-1.843711746487486,1.5485507234040679 -1.8487033724006054,1.5473435732788594 -1.853484665838621,1.5492178127888763 L-1.9215952127313702,1.5759167551755255 C-1.9255195603524684,1.5774550768572744 -1.9295766308268278,1.5763117846750925 -1.9321203287241422,1.5729507522660022 L-2.0386413369049405,1.432202685790565 C-2.041185034802255,1.4288416533814747 -2.041183292892903,1.424626569181425 -2.038636817930451,1.4212676403174327 L-1.9944404777772886,1.3629704393583726 C-1.99133793814431,1.358878033158212 -1.9911437942258567,1.3537461866269673 -1.9939282670834613,1.3494310676730357 L-2.051134045847488,1.260778833356969 C-2.053918518705092,1.256463714403037 -2.058674475890693,1.2545260839093546 -2.0636817071353604,1.2556667749033332 L-2.1350107863717764,1.2719161619034667 C-2.1391205772218975,1.2728524081403187 -2.1429619347133784,1.2711172106096604 -2.1449762857199044,1.267414599656527 L-2.229330131462242,1.1123624403393941 C-2.231344482468768,1.1086598293862606 -2.230714534313806,1.1044920838122343 -2.227695879002909,1.101550203807586 L-2.175304428510464,1.0504912571097476 C-2.171626600187604,1.0469069692433943 -2.1706697626596285,1.0418613768474139 -2.1727800001483013,1.0371794500621343 L-2.2161339077243376,0.9409913090513111 C-2.2182441452130104,0.9363093822660316 -2.2226581934465495,0.9336845548672658 -2.2277795092260635,0.9340662161933357 L-2.3007337470437594,0.9395030633526743 C-2.304937175186536,0.9398163199507988 -2.3084770101164307,0.9375279785171711 -2.3099170169592975,0.9335664992303069 L-2.370219374739826,0.7676738560946423 C-2.3716593815826927,0.7637123768077783 -2.370415299182944,0.7596850704089068 -2.3669918952950697,0.757225956001596 L-2.3075756728930785,0.7145458360618375 C-2.303404712487642,0.7115497335973688 -2.301706555519392,0.7067031055331883 -2.3030954184206984,0.7017589574242931 L-2.3316290001536717,0.6001835938427765 C-2.333017863054978,0.5952394457338813 -2.3369913997929124,0.5919860557367238 -2.3421123983754786,0.5916001617115372 L-2.4150621176548572,0.5861030188486606 C-2.4192652854515364,0.5857862881732964 -2.4224245237569115,0.5829959206029559 -2.4232580190627893,0.5788640658834823 L-2.4581618338553377,0.4058367064475964 C-2.4589953291612154,0.40170485172812276 -2.457164903261706,0.39790794787443334 -2.4534132239827047,0.3959865316167553 L-2.388299489897275,0.36263864178775673 C-2.383728569772414,0.36029765270331837 -2.381327027384442,0.3557582546330796 -2.3819634907961937,0.35066232929936264 L-2.395039353620514,0.24596876892132827 C-2.3956758170322656,0.24087284358761124 -2.399120080029942,0.2370635663485334 -2.404126366769421,0.23591873720694215 L-2.4754419913275627,0.21961040140965196 C-2.479551006955092,0.21867075870070496 -2.48225907647269,0.21544069719422979 -2.4824674413337546,0.21123076584889522 L-2.4911930195926755,0.03493383540348105 C-2.49140138445374,0.03072390405814648 -2.4890255037443776,0.027242219307535825 -2.485029355389879,0.025901422463642215 L-2.415672642843273,0.002630699498455218 C-2.4108038698013594,0.0009971176218256253 -2.4077525884821815,-0.0031336478027118326 -2.4076224348634847,-0.008267515810058518 L-2.404948485610869,-0.11374059184666598 C-2.404818331992172,-0.11887445985401268 -2.4076563821056953,-0.123154531376131 -2.4124361248289667,-0.12503272204287694 L-2.480524581458765,-0.15178794950158286 C-2.4844476562979696,-0.15332951417870763 -2.486644063229718,-0.1569271153847789 -2.486222643119286,-0.16112108044642173 L-2.4685750698448583,-0.3367493997971218 C-2.4681536497344263,-0.3409433648587646 -2.4652853874642333,-0.34403205542227866 -2.4611340373850403,-0.3447622816664954 L-2.3890836607270316,-0.35743600827054267 C-2.384025795112416,-0.3583256914196525 -2.3803929354446134,-0.3619555497247887 -2.3794990722122367,-0.3670126782779424 L-2.361135042490421,-0.470909175743477 C-2.360241179258044,-0.4759663042966308 -2.3624096191376154,-0.48062156037659076 -2.3668560462905286,-0.48319115689261294 L-2.430196351383661,-0.5197956084429896 C-2.4338458504253184,-0.5219046590807641 -2.4354815306698145,-0.5257894355203448 -2.4344397394167774,-0.5298737480491374 L-2.3908132322342164,-0.7009102098678903 C-2.389771440981179,-0.7049945223966829 -2.3864748693896103,-0.707621222529819 -2.382261051886593,-0.7077245661267255 L-2.309126497472058,-0.7095181862600004 C-2.3039925236447,-0.7096440966301965 -2.2998592377101303,-0.712691962779555 -2.2982216322916207,-0.7175593839832918 L-2.2645777441789448,-0.8175584268081673 C-2.262940138760435,-0.822425848011904 -2.2643905290423834,-0.8273522979214584 -2.268404314789842,-0.8305558997467193 L-2.325581550597232,-0.8761918924281666 C-2.328875950063368,-0.8788213163204442 -2.32991436522683,-0.8829064885072742 -2.328275474726272,-0.8867899117104466 L-2.2596445777154015,-1.0494138440694665 C-2.2580056872148435,-1.0532972672726388 -2.254354446263834,-1.055403300834914 -2.2501722910568858,-1.0548774532593257 L-2.177587263980233,-1.0457509004119183 C-2.1724918664317996,-1.0451102253735909 -2.167950485008192,-1.0475080150738425 -2.1656057188025377,-1.052076998781642 L-2.1174335211645867,-1.1459447735925945 C-2.1150887549589323,-1.150513757300394 -2.1157886963210566,-1.1556013522892772 -2.1192801793220437,-1.159367396252793 L-2.1690171008782917,-1.2130154974000156 C-2.1718828093286637,-1.2161065575620351 -2.17230076293227,-1.220300869500004 -2.170101383289789,-1.223896654120361 L-2.077999197280689,-1.3744753070987064 C-2.0757998176382078,-1.3780710917190635 -2.07187547001711,-1.3796094134008121 -2.0678183995427504,-1.3784661212186307 L-1.9974043293657235,-1.3586232674999785 C-1.9924613308575554,-1.3572303186748005 -1.9876133009015071,-1.3589244692662696 -1.9846137521111327,-1.3630929519321182 L-1.9229893322409781,-1.4487326077517002 C-1.9199897834506037,-1.4529010904175488 -1.9199236403594921,-1.4580361820207062 -1.9228148266532679,-1.4622805409235324 L-1.9640003933185963,-1.5227423406077194 C-1.9663733955618636,-1.5262259878632845 -1.9661615512127568,-1.5304357455545903 -1.9634508129352,-1.5336635677055686 L-1.8499347485690327,-1.6688332630194367 C-1.847224010291476,-1.672061085170415 -1.843114219441355,-1.672997331407267 -1.8392728619498744,-1.6712621338766087 L-1.7726026826444814,-1.6411462358494573 C-1.7679225015951918,-1.6390321294124044 -1.762876120084792,-1.639984796370377 -1.7592887936730692,-1.6436596609797298 L-1.6855887392793218,-1.7191581494122028 C-1.682001412867599,-1.7228330140215555 -1.6811706628506096,-1.7279008927780564 -1.6833969681129124,-1.7325287546558958 L-1.715111162385118,-1.798453636182219 C-1.7169384494724345,-1.802252051608194 -1.716101539423311,-1.806383216022428 -1.7129399959244391,-1.80917097149099 L-1.580545814499495,-1.925912241508267 C-1.5773842710006232,-1.928699996976829 -1.5731808428578462,-1.9290132535749536 -1.569641007927952,-1.9267249121413257 L-1.5082040211307208,-1.8870087092025778 C-1.5038912050511848,-1.8842206707979978 -1.4987591998104814,-1.8844105731168679 -1.4946642307215698,-1.887509729266883 L-1.4105348792337122,-1.951180538838162 C-1.4064399101448006,-1.954279694988177 -1.4048631107845395,-1.9591671528610184 -1.406374803034668,-1.9640751389268318 L-1.4279091822198384,-2.033990449379581 C-1.4291499355771742,-2.038018782652042 -1.4277066550155793,-2.041979070402734 -1.4241649299528636,-2.0442644853383394 L-1.2758500987073773,-2.139969522995981 C-1.2723083736446616,-2.1422549379315865 -1.2681052058479825,-2.141938207256222 -1.2649459675426074,-2.1391478396858816 L-1.2101145740170205,-2.09071852618014 C-1.2062654640917405,-2.087318835978897 -1.201162475637428,-2.086741731554665 -1.1966513387140412,-2.089195949218152 L-1.1039720008247436,-2.139616779255261 C-1.0994608639013566,-2.1420709969187484 -1.0971732382899495,-2.1466688561753315 -1.0979365488210324,-2.1517473301306116 L-1.1088100704726611,-2.2240912770058445 C-1.1094365737202965,-2.2282595418161053 -1.1074191631490276,-2.231960486619083 -1.1035763728078445,-2.233692508628605 L-0.9426539999889583,-2.306223421533154 C-0.9388112096477753,-2.3079554435426757 -0.934702194020246,-2.3070158008337285 -0.9319941245026478,-2.303785739327253 L-0.8849931669739209,-2.247725146091204 C-0.8816937459581653,-2.2437897475545743 -0.8767337666198777,-2.242458527946441 -0.8719072332064546,-2.244212983956271 L-0.7727482121761684,-2.280257516434093 C-0.7679216787627453,-2.282011972443923 -0.7649743286761634,-2.2862175245061906 -0.7649722063922689,-2.2913530416347014 L-0.7649419740046123,-2.3645095807039995 C-0.7649402320952606,-2.3687246649040494 -0.7623937571328084,-2.372083593768042 -0.7583357430993604,-2.3732235323418673 L-0.5884005685996326,-2.420960099752761 C-0.5843425545661846,-2.4221000383265867 -0.5804194797269802,-2.420558473649462 -0.578223072795232,-2.416960872443391 L-0.5401024749878104,-2.3545213004925856 C-0.5374264464949419,-2.3501381039208273 -0.5327202740149778,-2.3480825063750648 -0.527686160892368,-2.3490980090831286 L-0.42426250539555976,-2.3699610687079073 C-0.41922839227294995,-2.370976571415971 -0.41568715664177824,-2.3746958712003177 -0.4149196489512215,-2.379773712535595 L-0.4039863378658622,-2.452108647603692 C-0.40335638971089993,-2.4562763931777183 -0.4003377344000028,-2.459218273182367 -0.3961551460021306,-2.459740663976449 L-0.22100324081046183,-2.481616529860031 C-0.21682065241258971,-2.482138920654113 -0.21317115337093215,-2.480029870016339 -0.21153547312643592,-2.476145093576758 L-0.18314678620294358,-2.4087213397702913 C-0.18115392828748886,-2.4039882585318035 -0.17680669078233474,-2.4012542017008105 -0.17167745171907592,-2.4015080664546784 L-0.06629947531709814,-2.4067236069495643 C-0.0611702362538392,-2.4069774717034322 -0.05711422043036235,-2.4101274361986325 -0.05559847218668216,-2.415034171156127 L-0.034006314506514396,-2.484931659303483 C-0.032762232106765474,-2.4889589657023543 -0.029338828218891028,-2.4914180801096655 -0.025125097569883827,-2.491311253776889 L0.1513309341815544,-2.4868377474381007 C0.15554466483056162,-2.486730921105324 0.1588390642966975,-2.484101497213047 0.15987747946015984,-2.480016325026217 L0.177900099144741,-2.409114524609726 C0.17916526933004912,-2.4041372879181946 0.1830564617581219,-2.400785846113683 0.18816624803716916,-2.4002724019942523 L0.2931445754833602,-2.389723916803011 C0.2982543617624075,-2.38921047268358 0.30273455308705743,-2.3917207368879714 0.30496468257279585,-2.3963467571168677 L0.33673335372516355,-2.462245403960393 C0.33856377962467304,-2.4660423078140825 0.3423154589036744,-2.467963724071761 0.346466204024098,-2.467230066935875 L0.5202846261707937,-2.4365071191140784 C0.5244353712912174,-2.4357734619781923 0.5273010797415894,-2.4326824018161735 0.5277190333451955,-2.428488089878204 L0.5349729902485966,-2.355692071911295 C0.5354822108924492,-2.3505818630097735 0.5388304354345994,-2.346687901903565 0.5438066247476288,-2.3454186184040227 L0.6460402608743494,-2.3193417432549794 C0.6510164501873787,-2.318072459755437 0.6558207369423024,-2.31988694851478 0.6587154302625656,-2.324128916367433 L0.6999509552697383,-2.3845566550308797 C0.7023268359791011,-2.3880383397814904 0.7063229843335996,-2.389379136625384 0.7103180231383494,-2.3880350373744723 L0.8776160193558421,-2.3317489479558637 C0.8816110581605917,-2.3304048487049522 0.883984060403859,-2.326921201449387 0.8837722160547521,-2.3227114437580814 L0.8800954687665556,-2.2496473509903345 C0.879837364721231,-2.244518323501316 0.8825678275739616,-2.240168827749948 0.887299260074625,-2.2381720585662457 L0.9845044743868029,-2.1971493077594904 C0.9892359068874665,-2.195152538575788 0.9942569692454039,-2.196230719209552 0.997751563734754,-2.199993876133774 L1.0475328091077252,-2.253600850789233 C1.0504010713779188,-2.256689541352747 1.0545524214571116,-2.2574197675969634 1.0583025113808922,-2.2554952511872344 L1.2153429208852995,-2.174903358399462 C1.21909301080908,-2.172978841989733 1.2209202978963962,-2.169180426563758 1.2200833878472728,-2.165049262149524 L1.2055580688262517,-2.093349225678595 C1.204538405709618,-2.088315953600722 1.206590112844753,-2.0836080837519524 1.2109710961494429,-2.080928433408093 L1.3009764847861252,-2.0258761874085938 C1.305357468090815,-2.0231965370647345 1.3104831438157456,-2.0235143247991996 1.314499576007934,-2.0267146080877336 L1.371714510986103,-2.0723033275042613 C1.375011082577672,-2.0749300276373974 1.3792249000806895,-2.0750333712343036 1.3826462703114406,-2.0725714281821825 L1.5259210698558996,-1.9694740217360314 C1.5293424400866507,-1.9670120786839103 1.5305831934439864,-1.9629837454114492 1.5291399128823917,-1.9590234576607573 L1.50409049375311,-1.8902891378206614 C1.5023320491542504,-1.8854640561349219 1.5036591688247347,-1.8805029782216525 1.5075918390057812,-1.8772003056783284 L1.588386830314252,-1.8093483406906163 C1.5923195004952986,-1.8060456681472925 1.5974352904614513,-1.8055959641296 1.601883839898259,-1.8081618847420888 L1.6652543773790482,-1.84471397226101 C1.6689056183300575,-1.846820005823285 1.6730877735370058,-1.8462941582476968 1.6761039963174167,-1.84334978429273 L1.802412663634583,-1.720049889884871 C1.8054288864149939,-1.7171055159299042 1.8060553896626295,-1.7129372511196437 1.8040379790913603,-1.7092363063166658 L1.7690240224842484,-1.6450031142325847 C1.7665660771497593,-1.6404940072906304 1.7671389636951536,-1.6353905435955092 1.7705354713992538,-1.6315386250998365 L1.840315238783386,-1.5524026418997399 C1.8437117464874864,-1.5485507234040672 1.848703372400606,-1.5473435732788587 1.8534846658386215,-1.5492178127888756 L1.9215952127313707,-1.5759167551755249 C1.9255195603524689,-1.5774550768572737 1.9295766308268283,-1.5763117846750918 1.9321203287241426,-1.5729507522660016 L2.0386413369049405,-1.4322026857905643 C2.041185034802255,-1.428841653381474 2.0411832928929035,-1.4246265691814242 2.0386368179304513,-1.4212676403174318 L1.9944404777772886,-1.3629704393583728 C1.9913379381443097,-1.3588780331582122 1.9911437942258565,-1.3537461866269678 1.993928267083461,-1.3494310676730359 L2.051134045847488,-1.2607788333569692 C2.053918518705092,-1.2564637144030373 2.058674475890693,-1.2545260839093548 2.0636817071353604,-1.2556667749033334 L2.1350107863717764,-1.2719161619034667 C2.1391205772218975,-1.2728524081403187 2.142961934713378,-1.2711172106096604 2.144976285719904,-1.267414599656527 L2.229330131462242,-1.1123624403393944 C2.231344482468768,-1.1086598293862608 2.230714534313806,-1.1044920838122345 2.227695879002909,-1.1015502038075862 L2.175304428510464,-1.0504912571097478 C2.171626600187604,-1.0469069692433945 2.170669762659628,-1.041861376847414 2.172780000148301,-1.0371794500621345 L2.216133907724337,-0.9409913090513113 C2.21824414521301,-0.9363093822660318 2.222658193446549,-0.933684554867266 2.227779509226063,-0.934066216193336 L2.300733747043759,-0.9395030633526745 C2.3049371751865357,-0.9398163199507991 2.3084770101164303,-0.9375279785171713 2.309917016959297,-0.9335664992303071 L2.370219374739826,-0.7676738560946427 C2.3716593815826927,-0.7637123768077786 2.370415299182944,-0.759685070408907 2.3669918952950697,-0.7572259560015963 L2.3075756728930785,-0.7145458360618369 C2.303404712487642,-0.7115497335973682 2.3017065555193925,-0.7067031055331876 2.303095418420699,-0.7017589574242925 L2.331629000153672,-0.6001835938427758 C2.3330178630549785,-0.5952394457338805 2.336991399792913,-0.591986055736723 2.342112398375479,-0.5916001617115364 L2.4150621176548572,-0.5861030188486598 C2.4192652854515364,-0.5857862881732956 2.4224245237569115,-0.5829959206029551 2.4232580190627893,-0.5788640658834815 L2.4581618338553377,-0.40583670644759573 C2.4589953291612154,-0.40170485172812204 2.457164903261706,-0.3979079478744326 2.4534132239827047,-0.39598653161675457 L2.3882994898972756,-0.362638641787757 C2.3837285697724147,-0.3602976527033187 2.381327027384442,-0.3557582546330798 2.3819634907961937,-0.3506623292993628 L2.395039353620514,-0.24596876892132857 C2.3956758170322656,-0.24087284358761155 2.399120080029942,-0.23706356634853368 2.404126366769421,-0.23591873720694242 L2.4754419913275627,-0.21961040140965227 C2.479551006955092,-0.21867075870070526 2.48225907647269,-0.21544069719423006 2.4824674413337546,-0.2112307658488955 L2.4911930195926755,-0.034933835403481314 C2.49140138445374,-0.030723904058146772 2.4890255037443776,-0.027242219307536116 2.485029355389879,-0.02590142246364249  Z" style="stroke:black;fill:#00AA00;opacity:1.0"></path><circle cx="0" cy="0" r="0.195"></circle></svg>